<svg width="25" height="25" viewBox="0 0 25 25" fill="none" xmlns="http://www.w3.org/2000/svg">
<path fill-rule="evenodd" clip-rule="evenodd" d="M12.2289 22.3567C17.7517 22.3567 22.2289 17.8795 22.2289 12.3567C22.2289 6.83385 17.7517 2.3567 12.2289 2.3567C6.70603 2.3567 2.22888 6.83385 2.22888 12.3567C2.22888 17.8795 6.70603 22.3567 12.2289 22.3567ZM12.2291 9.3567C13.3337 9.3567 14.2291 8.46127 14.2291 7.3567C14.2291 6.25213 13.3337 5.3567 12.2291 5.3567C11.1245 5.3567 10.2291 6.25213 10.2291 7.3567C10.2291 8.46127 11.1245 9.3567 12.2291 9.3567ZM6.52172 9.66615C6.14042 9.50455 5.70028 9.6826 5.53859 10.0639C5.37688 10.4452 5.55493 10.8855 5.93627 11.0472L5.93759 11.0477L5.94021 11.0488L5.94926 11.0527L5.98226 11.0664C6.01074 11.0782 6.05201 11.0952 6.10496 11.1166C6.21081 11.1593 6.36347 11.2198 6.55386 11.2922C6.93419 11.4367 7.46742 11.6293 8.0805 11.8221C9.06937 12.1332 10.3169 12.4616 11.4791 12.5698V13.8089C11.4791 14.2404 11.3551 14.6627 11.1217 15.0256L8.59819 18.9511C8.3742 19.2996 8.47508 19.7636 8.82351 19.9876C9.17193 20.2116 9.63597 20.1107 9.85996 19.7623L12.2291 16.077L14.5982 19.7623C14.8222 20.1107 15.2862 20.2116 15.6347 19.9876C15.9831 19.7636 16.084 19.2996 15.86 18.9511L13.3364 15.0256C13.1031 14.6627 12.9791 14.2404 12.9791 13.8089V12.5698C14.1413 12.4616 15.3888 12.1332 16.3777 11.8221C16.9908 11.6293 17.524 11.4367 17.9043 11.2922C18.0947 11.2198 18.2474 11.1593 18.3532 11.1166C18.4062 11.0952 18.4474 11.0782 18.4759 11.0664L18.5089 11.0527L18.518 11.0488L18.5206 11.0477L18.5217 11.0473C18.903 10.8856 19.0813 10.4452 18.9196 10.0639C18.7579 9.6826 18.3176 9.5046 17.9363 9.66622L17.9288 9.66936L17.9016 9.68069C17.8771 9.69086 17.84 9.70612 17.7914 9.72575C17.6942 9.76502 17.5512 9.82171 17.3715 9.88999C17.0117 10.0267 16.5066 10.2091 15.9276 10.3913C14.7494 10.7619 13.3403 11.1067 12.2291 11.1067C11.1178 11.1067 9.70879 10.7619 8.5306 10.3913C7.95152 10.2091 7.44651 10.0267 7.08664 9.88999C6.90694 9.82171 6.764 9.76502 6.66679 9.72575C6.6182 9.70612 6.58108 9.69086 6.55655 9.68069L6.52934 9.66936L6.52308 9.66673L6.52172 9.66615Z" fill="#2D2D2D"/>
</svg>
