<?xml version="1.0" encoding="UTF-8" standalone="no"?>
<svg
   width="25"
   height="25"
   viewBox="0 0 25 25"
   fill="none"
   version="1.1"
   id="svg1"
   sodipodi:docname="access.svg"
   inkscape:version="1.4 (86a8ad7, 2024-10-11)"
   xmlns:inkscape="http://www.inkscape.org/namespaces/inkscape"
   xmlns:sodipodi="http://sodipodi.sourceforge.net/DTD/sodipodi-0.dtd"
   xmlns="http://www.w3.org/2000/svg"
   xmlns:svg="http://www.w3.org/2000/svg">
  <defs
     id="defs1" />
  <sodipodi:namedview
     id="namedview1"
     pagecolor="#ffffff"
     bordercolor="#000000"
     borderopacity="0.25"
     inkscape:showpageshadow="2"
     inkscape:pageopacity="0.0"
     inkscape:pagecheckerboard="0"
     inkscape:deskcolor="#d1d1d1"
     inkscape:zoom="31.32"
     inkscape:cx="12.484036"
     inkscape:cy="12.5"
     inkscape:window-width="1920"
     inkscape:window-height="1001"
     inkscape:window-x="-9"
     inkscape:window-y="-9"
     inkscape:window-maximized="1"
     inkscape:current-layer="svg1" />
  <path
     fill-rule="evenodd"
     clip-rule="evenodd"
     d="m 3.999975,10.067605 v 4.8648 c 0,2.2934 0,3.44 0.72162,4.1525 0.65556,0.6472 1.6741,0.7064 3.59665,0.7119 -0.00524,-0.0348 -0.01024,-0.0697 -0.01503,-0.1048 -0.11487,-0.8436 -0.11485,-1.9161 -0.11483,-3.2467 v -0.0534 c 0,-0.403 0.33092,-0.7297 0.73913,-0.7297 0.40821,0 0.73913,0.3267 0.73913,0.7297 0,1.3966 0.00157,2.3707 0.10165,3.1056 0.09722,0.7139 0.27503,1.092 0.54783,1.3613 0.2728,0.2693 0.6557,0.4449 1.3789,0.5408 0.7444,0.0989 1.731,0.1004 3.1456,0.1004 h 0.9855 c 1.4146,0 2.4012,-0.0015 3.1456,-0.1004 0.7231,-0.0959 1.1061,-0.2715 1.3788,-0.5408 0.2728,-0.2693 0.4506,-0.6474 0.5478,-1.3613 0.1001,-0.7349 0.1017,-1.709 0.1017,-3.1056 v -7.7838 c 0,-1.39662 -0.0016,-2.37068 -0.1017,-3.10561 -0.0972,-0.71395 -0.275,-1.09202 -0.5478,-1.3613 -0.2727,-0.26928 -0.6557,-0.44485 -1.3788,-0.54084 -0.7444,-0.09881 -1.731,-0.10036 -3.1456,-0.10036 h -0.9855 c -1.4146,0 -2.4012,0.00155 -3.1456,0.10036 -0.7232,0.09599 -1.1061,0.27156 -1.3789,0.54084 -0.2728,0.26928 -0.45061,0.64735 -0.54783,1.3613 -0.10008,0.73493 -0.10165,1.70899 -0.10165,3.10561 0,0.40302 -0.33092,0.72973 -0.73913,0.72973 -0.40821,0 -0.73913,-0.32671 -0.73913,-0.72973 v -0.05339 c -2e-5,-1.33063 -4e-5,-2.40316 0.11483,-3.24669 0.00479,-0.03515 0.00979,-0.07008 0.01503,-0.10478 -1.92255,0.00542 -2.94109,0.06467 -3.59665,0.7119 -0.72162,0.71244 -0.72162,1.8591 -0.72162,4.15246 z m 9.88505,5.3808 2.4637,-2.4324 c 0.2887,-0.285 0.2887,-0.747 0,-1.032 l -2.4637,-2.43244 c -0.2887,-0.28498 -0.7567,-0.28498 -1.0453,0 -0.2887,0.28498 -0.2887,0.74704 0,1.03204 l 1.202,1.1867 h -7.08523 c -0.40821,0 -0.73913,0.3267 -0.73913,0.7297 0,0.403 0.33092,0.7297 0.73913,0.7297 h 7.08523 l -1.202,1.1867 c -0.2887,0.285 -0.2887,0.7471 0,1.032 0.2886,0.285 0.7566,0.285 1.0453,0 z"
     fill="#2d2d2d"
     id="path1" />
</svg>
