<?xml version="1.0" encoding="UTF-8" standalone="no"?>
<svg
   width="25"
   height="25"
   viewBox="0 0 25 25"
   fill="none"
   version="1.1"
   id="svg1"
   sodipodi:docname="accessibility.svg"
   inkscape:version="1.4 (86a8ad7, 2024-10-11)"
   xmlns:inkscape="http://www.inkscape.org/namespaces/inkscape"
   xmlns:sodipodi="http://sodipodi.sourceforge.net/DTD/sodipodi-0.dtd"
   xmlns="http://www.w3.org/2000/svg"
   xmlns:svg="http://www.w3.org/2000/svg">
  <defs
     id="defs1" />
  <sodipodi:namedview
     id="namedview1"
     pagecolor="#ffffff"
     bordercolor="#000000"
     borderopacity="0.25"
     inkscape:showpageshadow="2"
     inkscape:pageopacity="0.0"
     inkscape:pagecheckerboard="0"
     inkscape:deskcolor="#d1d1d1"
     inkscape:zoom="31.32"
     inkscape:cx="12.5"
     inkscape:cy="12.5"
     inkscape:window-width="1920"
     inkscape:window-height="1001"
     inkscape:window-x="-9"
     inkscape:window-y="-9"
     inkscape:window-maximized="1"
     inkscape:current-layer="svg1" />
  <path
     fill-rule="evenodd"
     clip-rule="evenodd"
     d="m 12.50001,22.5 c 5.5228,0 10,-4.4772 10,-10 0,-5.52285 -4.4772,-10 -10,-10 -5.52287,0 -10.00002,4.47715 -10.00002,10 0,5.5228 4.47715,10 10.00002,10 z m 2e-4,-13 c 1.1046,0 2,-0.89543 2,-2 0,-1.10457 -0.8954,-2 -2,-2 -1.1046,0 -2,0.89543 -2,2 0,1.10457 0.8954,2 2,2 z M 6.79283,9.80945 C 6.41153,9.64785 5.97139,9.8259 5.8097,10.2072 c -0.16171,0.3813 0.01634,0.8216 0.39768,0.9833 l 0.00132,5e-4 0.00262,0.0011 0.00905,0.0039 0.033,0.0137 c 0.02848,0.0118 0.06975,0.0288 0.1227,0.0502 0.10585,0.0427 0.25851,0.1032 0.4489,0.1756 0.38033,0.1445 0.91356,0.3371 1.52664,0.5299 0.98887,0.3111 2.2364,0.6395 3.3986,0.7477 v 1.2391 c 0,0.4315 -0.124,0.8538 -0.3574,1.2167 L 8.8693,19.0944 c -0.22399,0.3485 -0.12311,0.8125 0.22532,1.0365 0.34842,0.224 0.81246,0.1231 1.03645,-0.2253 l 2.36914,-3.6853 2.3691,3.6853 c 0.224,0.3484 0.688,0.4493 1.0365,0.2253 0.3484,-0.224 0.4493,-0.688 0.2253,-1.0365 l -2.5236,-3.9255 c -0.2333,-0.3629 -0.3573,-0.7852 -0.3573,-1.2167 v -1.2391 c 1.1622,-0.1082 2.4097,-0.4366 3.3986,-0.7477 0.6131,-0.1928 1.1463,-0.3854 1.5266,-0.5299 0.1904,-0.0724 0.3431,-0.1329 0.4489,-0.1756 0.053,-0.0214 0.0942,-0.0384 0.1227,-0.0502 l 0.033,-0.0137 0.0091,-0.0039 0.0026,-0.0011 0.0011,-4e-4 c 0.3813,-0.1617 0.5596,-0.6021 0.3979,-0.9834 -0.1617,-0.3813 -0.602,-0.5593 -0.9833,-0.39768 l -0.0075,0.00314 -0.0272,0.01133 c -0.0245,0.01017 -0.0616,0.02543 -0.1102,0.04506 -0.0972,0.03927 -0.2402,0.09596 -0.4199,0.16424 -0.3598,0.13671 -0.8649,0.31911 -1.4439,0.50131 -1.1782,0.3706 -2.5873,0.7154 -3.6985,0.7154 -1.1113,0 -2.52031,-0.3448 -3.6985,-0.7154 C 8.22263,10.3524 7.71762,10.17 7.35775,10.03329 7.17805,9.96501 7.03511,9.90832 6.9379,9.86905 6.88931,9.84942 6.85219,9.83416 6.82766,9.82399 L 6.80045,9.81266 6.79419,9.81003 Z"
     fill="#2d2d2d"
     id="path1" />
</svg>
