<svg width="25" height="25" viewBox="0 0 25 25" fill="none" xmlns="http://www.w3.org/2000/svg">
<path fill-rule="evenodd" clip-rule="evenodd" d="M22.2289 12.3567C22.2289 17.8795 17.7517 22.3567 12.2289 22.3567C6.70603 22.3567 2.22888 17.8795 2.22888 12.3567C2.22888 6.83385 6.70603 2.3567 12.2289 2.3567C17.7517 2.3567 22.2289 6.83385 22.2289 12.3567ZM15.2289 10.3567C15.2289 12.0136 13.8858 13.3567 12.2289 13.3567C10.572 13.3567 9.22888 12.0136 9.22888 10.3567C9.22888 8.69985 10.572 7.3567 12.2289 7.3567C13.8858 7.3567 15.2289 8.69985 15.2289 10.3567ZM12.2289 20.8567C14.0129 20.8567 15.6686 20.3071 17.0358 19.3679C17.6397 18.9531 17.8977 18.1629 17.5467 17.5199C16.8189 16.187 15.3191 15.3567 12.2288 15.3567C9.13857 15.3567 7.63885 16.1869 6.91102 17.5199C6.55993 18.1629 6.81798 18.953 7.42184 19.3678C8.78906 20.307 10.4448 20.8567 12.2289 20.8567Z" fill="#2D2D2D"/>
</svg>
