<?xml version="1.0" encoding="UTF-8" standalone="no"?>
<svg
   width="25"
   height="25"
   viewBox="0 0 25 25"
   fill="none"
   version="1.1"
   id="svg1"
   sodipodi:docname="account.svg"
   inkscape:version="1.4 (86a8ad7, 2024-10-11)"
   xmlns:inkscape="http://www.inkscape.org/namespaces/inkscape"
   xmlns:sodipodi="http://sodipodi.sourceforge.net/DTD/sodipodi-0.dtd"
   xmlns="http://www.w3.org/2000/svg"
   xmlns:svg="http://www.w3.org/2000/svg">
  <defs
     id="defs1" />
  <sodipodi:namedview
     id="namedview1"
     pagecolor="#ffffff"
     bordercolor="#000000"
     borderopacity="0.25"
     inkscape:showpageshadow="2"
     inkscape:pageopacity="0.0"
     inkscape:pagecheckerboard="0"
     inkscape:deskcolor="#d1d1d1"
     inkscape:zoom="31.32"
     inkscape:cx="12.5"
     inkscape:cy="12.5"
     inkscape:window-width="1920"
     inkscape:window-height="1001"
     inkscape:window-x="-9"
     inkscape:window-y="-9"
     inkscape:window-maximized="1"
     inkscape:current-layer="svg1" />
  <path
     fill-rule="evenodd"
     clip-rule="evenodd"
     d="m 22.50001,12.5 c 0,5.5228 -4.4772,10 -10,10 -5.52287,0 -10.00002,-4.4772 -10.00002,-10 0,-5.52285 4.47715,-10 10.00002,-10 5.5228,0 10,4.47715 10,10 z m -7,-2 c 0,1.6569 -1.3431,3 -3,3 -1.6569,0 -3.00002,-1.3431 -3.00002,-3 0,-1.65685 1.34312,-3 3.00002,-3 1.6569,0 3,1.34315 3,3 z m -3,10.5 c 1.784,0 3.4397,-0.5496 4.8069,-1.4888 0.6039,-0.4148 0.8619,-1.205 0.5109,-1.848 -0.7278,-1.3329 -2.2276,-2.1632 -5.3179,-2.1632 -3.09023,0 -4.58995,0.8302 -5.31778,2.1632 -0.35109,0.643 -0.09304,1.4331 0.51082,1.8479 C 9.06017,20.4503 10.71591,21 12.50001,21 Z"
     fill="#2d2d2d"
     id="path1" />
</svg>
