<svg width="25" height="25" viewBox="0 0 25 25" fill="none" xmlns="http://www.w3.org/2000/svg">
<path fill-rule="evenodd" clip-rule="evenodd" d="M15.2289 1.6067C15.6431 1.6067 15.9789 1.94249 15.9789 2.3567V3.3567C15.9789 4.3232 15.1954 5.1067 14.2289 5.1067H13.2289C13.0908 5.1067 12.9789 5.21863 12.9789 5.3567V6.3567H14.2289C18.0001 6.3567 19.8858 6.3567 21.0573 7.52827C22.2289 8.69985 22.2289 10.5855 22.2289 14.3567C22.2289 18.1279 22.2289 20.0136 21.0573 21.1851C19.8858 22.3567 18.0001 22.3567 14.2289 22.3567H10.2289C6.45764 22.3567 4.57203 22.3567 3.40045 21.1851C2.22888 20.0136 2.22888 18.1279 2.22888 14.3567C2.22888 10.5855 2.22888 8.69985 3.40045 7.52827C4.57203 6.3567 6.45764 6.3567 10.2289 6.3567H11.4789V5.3567C11.4789 4.3902 12.2624 3.6067 13.2289 3.6067H14.2289C14.367 3.6067 14.4789 3.49477 14.4789 3.3567V2.3567C14.4789 1.94249 14.8147 1.6067 15.2289 1.6067ZM8.97888 12.3567C8.97888 11.9425 8.64309 11.6067 8.22888 11.6067C7.81467 11.6067 7.47888 11.9425 7.47888 12.3567V13.4067C7.47888 13.5172 7.38934 13.6067 7.27888 13.6067H6.22888C5.81467 13.6067 5.47888 13.9425 5.47888 14.3567C5.47888 14.7709 5.81467 15.1067 6.22888 15.1067H7.27888C7.38934 15.1067 7.47888 15.1962 7.47888 15.3067V16.3567C7.47888 16.7709 7.81467 17.1067 8.22888 17.1067C8.64309 17.1067 8.97888 16.7709 8.97888 16.3567V15.3067C8.97888 15.1962 9.06842 15.1067 9.17888 15.1067H10.2289C10.6431 15.1067 10.9789 14.7709 10.9789 14.3567C10.9789 13.9425 10.6431 13.6067 10.2289 13.6067H9.17888C9.06842 13.6067 8.97888 13.5172 8.97888 13.4067V12.3567ZM15.2289 13.8567C15.7812 13.8567 16.2289 13.409 16.2289 12.8567C16.2289 12.3044 15.7812 11.8567 15.2289 11.8567C14.6766 11.8567 14.2289 12.3044 14.2289 12.8567C14.2289 13.409 14.6766 13.8567 15.2289 13.8567ZM18.2289 15.8567C18.2289 16.409 17.7812 16.8567 17.2289 16.8567C16.6766 16.8567 16.2289 16.409 16.2289 15.8567C16.2289 15.3044 16.6766 14.8567 17.2289 14.8567C17.7812 14.8567 18.2289 15.3044 18.2289 15.8567Z" fill="#2D2D2D"/>
</svg>
