<?xml version="1.0" encoding="UTF-8" standalone="no"?>
<svg
   width="25"
   height="25"
   viewBox="0 0 25 25"
   fill="none"
   version="1.1"
   id="svg1"
   sodipodi:docname="activity.svg"
   inkscape:version="1.4 (86a8ad7, 2024-10-11)"
   xmlns:inkscape="http://www.inkscape.org/namespaces/inkscape"
   xmlns:sodipodi="http://sodipodi.sourceforge.net/DTD/sodipodi-0.dtd"
   xmlns="http://www.w3.org/2000/svg"
   xmlns:svg="http://www.w3.org/2000/svg">
  <defs
     id="defs1" />
  <sodipodi:namedview
     id="namedview1"
     pagecolor="#ffffff"
     bordercolor="#000000"
     borderopacity="0.25"
     inkscape:showpageshadow="2"
     inkscape:pageopacity="0.0"
     inkscape:pagecheckerboard="0"
     inkscape:deskcolor="#d1d1d1"
     inkscape:zoom="31.32"
     inkscape:cx="12.5"
     inkscape:cy="12.5"
     inkscape:window-width="1920"
     inkscape:window-height="1001"
     inkscape:window-x="-9"
     inkscape:window-y="-9"
     inkscape:window-maximized="1"
     inkscape:current-layer="svg1" />
  <path
     fill-rule="evenodd"
     clip-rule="evenodd"
     d="m 15.50001,2.125 c 0.4142,0 0.75,0.33579 0.75,0.75 v 1 c 0,0.9665 -0.7835,1.75 -1.75,1.75 h -1 c -0.1381,0 -0.25,0.11193 -0.25,0.25 v 1 h 1.25 c 3.7712,0 5.6569,0 6.8284,1.17157 1.1716,1.17158 1.1716,3.05723 1.1716,6.82843 0,3.7712 0,5.6569 -1.1716,6.8284 -1.1715,1.1716 -3.0572,1.1716 -6.8284,1.1716 h -4 c -3.77126,0 -5.65687,0 -6.82845,-1.1716 -1.17157,-1.1715 -1.17157,-3.0572 -1.17157,-6.8284 0,-3.7712 0,-5.65685 1.17157,-6.82843 C 4.84314,6.875 6.72875,6.875 10.50001,6.875 h 1.25 v -1 c 0,-0.9665 0.7835,-1.75 1.75,-1.75 h 1 c 0.1381,0 0.25,-0.11193 0.25,-0.25 v -1 c 0,-0.41421 0.3358,-0.75 0.75,-0.75 z m -6.25002,10.75 c 0,-0.4142 -0.33579,-0.75 -0.75,-0.75 -0.41421,0 -0.75,0.3358 -0.75,0.75 v 1.05 c 0,0.1105 -0.08954,0.2 -0.2,0.2 h -1.05 c -0.41421,0 -0.75,0.3358 -0.75,0.75 0,0.4142 0.33579,0.75 0.75,0.75 h 1.05 c 0.11046,0 0.2,0.0895 0.2,0.2 v 1.05 c 0,0.4142 0.33579,0.75 0.75,0.75 0.41421,0 0.75,-0.3358 0.75,-0.75 v -1.05 c 0,-0.1105 0.08954,-0.2 0.2,-0.2 h 1.05002 c 0.4142,0 0.75,-0.3358 0.75,-0.75 0,-0.4142 -0.3358,-0.75 -0.75,-0.75 H 9.44999 c -0.11046,0 -0.2,-0.0895 -0.2,-0.2 z m 6.25002,1.5 c 0.5523,0 1,-0.4477 1,-1 0,-0.5523 -0.4477,-1 -1,-1 -0.5523,0 -1,0.4477 -1,1 0,0.5523 0.4477,1 1,1 z m 3,2 c 0,0.5523 -0.4477,1 -1,1 -0.5523,0 -1,-0.4477 -1,-1 0,-0.5523 0.4477,-1 1,-1 0.5523,0 1,0.4477 1,1 z"
     fill="#2d2d2d"
     id="path1" />
</svg>
