<svg width="25" height="25" viewBox="0 0 25 25" fill="none" xmlns="http://www.w3.org/2000/svg">
<path fill-rule="evenodd" clip-rule="evenodd" d="M12.2289 22.3567C17.7517 22.3567 22.2289 17.8795 22.2289 12.3567C22.2289 6.83385 17.7517 2.3567 12.2289 2.3567C6.70603 2.3567 2.22888 6.83385 2.22888 12.3567C2.22888 17.8795 6.70603 22.3567 12.2289 22.3567ZM12.9789 9.3567C12.9789 8.94249 12.6431 8.6067 12.2289 8.6067C11.8147 8.6067 11.4789 8.94249 11.4789 9.3567V11.6067H9.22888C8.81467 11.6067 8.47888 11.9425 8.47888 12.3567C8.47888 12.7709 8.81467 13.1067 9.22888 13.1067H11.4789V15.3567C11.4789 15.7709 11.8147 16.1067 12.2289 16.1067C12.6431 16.1067 12.9789 15.7709 12.9789 15.3567V13.1067H15.2289C15.6431 13.1067 15.9789 12.7709 15.9789 12.3567C15.9789 11.9425 15.6431 11.6067 15.2289 11.6067H12.9789V9.3567Z" fill="#2D2D2D"/>
</svg>
