<?xml version="1.0" encoding="UTF-8" standalone="no"?>
<svg
   width="25"
   height="25"
   viewBox="0 0 25 25"
   fill="none"
   version="1.1"
   id="svg1"
   sodipodi:docname="appearance.svg"
   inkscape:version="1.4 (86a8ad7, 2024-10-11)"
   xmlns:inkscape="http://www.inkscape.org/namespaces/inkscape"
   xmlns:sodipodi="http://sodipodi.sourceforge.net/DTD/sodipodi-0.dtd"
   xmlns="http://www.w3.org/2000/svg"
   xmlns:svg="http://www.w3.org/2000/svg">
  <defs
     id="defs1" />
  <sodipodi:namedview
     id="namedview1"
     pagecolor="#ffffff"
     bordercolor="#000000"
     borderopacity="0.25"
     inkscape:showpageshadow="2"
     inkscape:pageopacity="0.0"
     inkscape:pagecheckerboard="0"
     inkscape:deskcolor="#d1d1d1"
     inkscape:zoom="31.32"
     inkscape:cx="12.5"
     inkscape:cy="12.5"
     inkscape:window-width="1920"
     inkscape:window-height="1001"
     inkscape:window-x="-9"
     inkscape:window-y="-9"
     inkscape:window-maximized="1"
     inkscape:current-layer="svg1" />
  <path
     fill-rule="evenodd"
     clip-rule="evenodd"
     d="m 11.34681,22.460252 c -4.97969,-0.5718 -8.84682,-4.8014 -8.84682,-9.9342 0,-5.5228504 4.47715,-10.0000004 10.00002,-10.0000004 5.5228,0 10,4.47715 10,10.0000004 0,5.1565 -3.2827,4.7325 -6.0865,4.3703 -1.6171,-0.2089 -3.0749,-0.3972 -3.6516,0.5177 -0.3945,0.6256 0.0319,1.4058 0.5549,1.9288 0.6535,0.6535 0.6535,1.7129 0,2.3664 -0.523,0.523 -1.2352,0.8354 -1.97,0.751 z m 0.2382,-14.9344404 c 0,0.82842 -0.6716,1.5 -1.50002,1.5 -0.82842,0 -1.5,-0.67158 -1.5,-1.5 0,-0.82843 0.67158,-1.5 1.5,-1.5 0.82842,0 1.50002,0.67157 1.50002,1.5 z M 6.99999,13.526052 c 0.82843,0 1.5,-0.6716 1.5,-1.5 0,-0.8284 -0.67157,-1.5 -1.5,-1.5 -0.82843,0 -1.5,0.6716 -1.5,1.5 0,0.8284 0.67157,1.5 1.5,1.5 z m 11.00002,0 c 0.8284,0 1.5,-0.6716 1.5,-1.5 0,-0.8284 -0.6716,-1.5 -1.5,-1.5 -0.8284,0 -1.5,0.6716 -1.5,1.5 0,0.8284 0.6716,1.5 1.5,1.5 z m -3,-4.5000204 c 0.8284,0 1.5,-0.67157 1.5,-1.5 0,-0.82842 -0.6716,-1.5 -1.5,-1.5 -0.8284,0 -1.5,0.67158 -1.5,1.5 0,0.82843 0.6716,1.5 1.5,1.5 z"
     fill="#2d2d2d"
     id="path1" />
</svg>
