<svg width="25" height="25" viewBox="0 0 25 25" fill="none" xmlns="http://www.w3.org/2000/svg">
<path fill-rule="evenodd" clip-rule="evenodd" d="M11.0757 22.2909C6.09601 21.7191 2.22888 17.4895 2.22888 12.3567C2.22888 6.83385 6.70603 2.3567 12.2289 2.3567C17.7517 2.3567 22.2289 6.83385 22.2289 12.3567C22.2289 17.5132 18.9462 17.0892 16.1424 16.727C14.5253 16.5181 13.0675 16.3298 12.4908 17.2447C12.0963 17.8703 12.5227 18.6505 13.0457 19.1735C13.6992 19.827 13.6992 20.8864 13.0457 21.5399C12.5227 22.0629 11.8105 22.3753 11.0757 22.2909ZM11.3139 7.35646C11.3139 8.18488 10.6423 8.85646 9.81388 8.85646C8.98546 8.85646 8.31388 8.18488 8.31388 7.35646C8.31388 6.52803 8.98546 5.85646 9.81388 5.85646C10.6423 5.85646 11.3139 6.52803 11.3139 7.35646ZM6.72888 13.3567C7.55731 13.3567 8.22888 12.6851 8.22888 11.8567C8.22888 11.0283 7.55731 10.3567 6.72888 10.3567C5.90045 10.3567 5.22888 11.0283 5.22888 11.8567C5.22888 12.6851 5.90045 13.3567 6.72888 13.3567ZM17.7289 13.3567C18.5573 13.3567 19.2289 12.6851 19.2289 11.8567C19.2289 11.0283 18.5573 10.3567 17.7289 10.3567C16.9005 10.3567 16.2289 11.0283 16.2289 11.8567C16.2289 12.6851 16.9005 13.3567 17.7289 13.3567ZM14.7289 8.85668C15.5573 8.85668 16.2289 8.18511 16.2289 7.35668C16.2289 6.52826 15.5573 5.85668 14.7289 5.85668C13.9005 5.85668 13.2289 6.52826 13.2289 7.35668C13.2289 8.18511 13.9005 8.85668 14.7289 8.85668Z" fill="#2D2D2D"/>
</svg>
