<?xml version="1.0" encoding="UTF-8" standalone="no"?>
<svg
   width="25"
   height="25"
   viewBox="0 0 25 25"
   fill="none"
   version="1.1"
   id="svg3"
   sodipodi:docname="backup.svg"
   inkscape:version="1.4 (86a8ad7, 2024-10-11)"
   xmlns:inkscape="http://www.inkscape.org/namespaces/inkscape"
   xmlns:sodipodi="http://sodipodi.sourceforge.net/DTD/sodipodi-0.dtd"
   xmlns="http://www.w3.org/2000/svg"
   xmlns:svg="http://www.w3.org/2000/svg">
  <defs
     id="defs3" />
  <sodipodi:namedview
     id="namedview3"
     pagecolor="#ffffff"
     bordercolor="#000000"
     borderopacity="0.25"
     inkscape:showpageshadow="2"
     inkscape:pageopacity="0.0"
     inkscape:pagecheckerboard="0"
     inkscape:deskcolor="#d1d1d1"
     inkscape:zoom="11.073292"
     inkscape:cx="-9.2565064"
     inkscape:cy="16.752019"
     inkscape:window-width="1920"
     inkscape:window-height="1001"
     inkscape:window-x="-9"
     inkscape:window-y="-9"
     inkscape:window-maximized="1"
     inkscape:current-layer="svg3" />
  <g
     id="g3"
     transform="translate(0.1461225,0.51829529)">
    <path
       d="M 9.67519,3.60671 C 8.54237,3.60669 7.61662,3.60667 6.88576,3.70493 6.12181,3.80764 5.45948,4.02992 4.93078,4.55862 4.40209,5.08731 4.17981,5.74965 4.0771,6.5136 3.97884,7.24446 3.97885,8.17019 3.97888,9.30302 v 6.05978 c -0.46507,0.0135 -0.76071,0.0567 -1,0.1949 -0.22803,0.1316 -0.41739,0.321 -0.54904,0.549 -0.20096,0.3481 -0.20096,0.8154 -0.20096,1.75 0,0.9346 0,1.4019 0.20096,1.75 0.13165,0.228 0.32101,0.4174 0.54904,0.549 0.34808,0.201 0.81538,0.201 1.75,0.201 0.93462,0 1.40192,0 1.75,-0.201 0.22803,-0.1316 0.41739,-0.321 0.54904,-0.549 0.20096,-0.3481 0.20096,-0.8154 0.20096,-1.75 0,-0.9346 0,-1.4019 -0.20096,-1.75 -0.13165,-0.228 -0.32101,-0.4174 -0.54904,-0.549 -0.23929,-0.1382 -0.53493,-0.1814 -1,-0.1949 V 9.35671 C 5.47888,8.157 5.48047,7.33266 5.56372,6.71347 5.64407,6.11585 5.7879,5.82282 5.99144,5.61928 6.19498,5.41574 6.48802,5.2719 7.08564,5.19155 7.70483,5.10831 8.52917,5.10671 9.72888,5.10671 h 5.00002 c 1.1997,0 2.024,0.0016 2.6432,0.08484 0.5977,0.08035 0.8907,0.22419 1.0942,0.42773 0.2036,0.20354 0.3474,0.49657 0.4278,1.09419 0.0832,0.61919 0.0848,1.44353 0.0848,2.64324 V 10.546 L 18.2592,9.82638 c -0.2929,-0.29289 -0.7677,-0.29289 -1.0606,0 -0.2929,0.29292 -0.2929,0.76772 0,1.06062 l 2,2 c 0.2929,0.2929 0.7677,0.2929 1.0606,0 l 2,-2 c 0.2929,-0.2929 0.2929,-0.7677 0,-1.06062 -0.2929,-0.29289 -0.7677,-0.29289 -1.0606,0 L 20.4789,10.546 V 9.30302 c 0,-1.13283 0,-2.05856 -0.0982,-2.78942 C 20.278,5.74965 20.0557,5.08731 19.527,4.55862 18.9983,4.02992 18.336,3.80764 17.572,3.70493 16.8412,3.60667 15.9154,3.60669 14.7826,3.60671 Z"
       fill="#2d2d2d"
       id="path1" />
    <path
       d="m 9.92984,16.1067 c -0.20096,0.3481 -0.20096,0.8154 -0.20096,1.75 0,0.9346 0,1.4019 0.20096,1.75 0.13166,0.228 0.32106,0.4174 0.54906,0.549 0.3481,0.201 0.8154,0.201 1.75,0.201 0.9346,0 1.4019,0 1.75,-0.201 0.228,-0.1316 0.4174,-0.321 0.549,-0.549 0.201,-0.3481 0.201,-0.8154 0.201,-1.75 0,-0.9346 0,-1.4019 -0.201,-1.75 -0.1316,-0.228 -0.321,-0.4174 -0.549,-0.549 -0.3481,-0.201 -0.8154,-0.201 -1.75,-0.201 -0.9346,0 -1.4019,0 -1.75,0.201 -0.228,0.1316 -0.4174,0.321 -0.54906,0.549 z"
       fill="#2d2d2d"
       id="path2" />
    <path
       d="m 17.2289,17.8567 c 0,-0.9346 0,-1.4019 0.201,-1.75 0.1316,-0.228 0.321,-0.4174 0.549,-0.549 0.3481,-0.201 0.8154,-0.201 1.75,-0.201 0.9346,0 1.4019,0 1.75,0.201 0.228,0.1316 0.4174,0.321 0.549,0.549 0.201,0.3481 0.201,0.8154 0.201,1.75 0,0.9346 0,1.4019 -0.201,1.75 -0.1316,0.228 -0.321,0.4174 -0.549,0.549 -0.3481,0.201 -0.8154,0.201 -1.75,0.201 -0.9346,0 -1.4019,0 -1.75,-0.201 -0.228,-0.1316 -0.4174,-0.321 -0.549,-0.549 -0.201,-0.3481 -0.201,-0.8154 -0.201,-1.75 z"
       fill="#2d2d2d"
       id="path3" />
  </g>
</svg>
