<?xml version="1.0" encoding="UTF-8" standalone="no"?>
<svg
   class="vc-settings-quickActions-img vc-log-icon vc-icon"
   role="img"
   width="24"
   height="24"
   viewBox="0 0 24 24"
   version="1.1"
   id="svg1"
   sodipodi:docname="billing.svg"
   inkscape:version="1.4 (86a8ad7, 2024-10-11)"
   xmlns:inkscape="http://www.inkscape.org/namespaces/inkscape"
   xmlns:sodipodi="http://sodipodi.sourceforge.net/DTD/sodipodi-0.dtd"
   xmlns="http://www.w3.org/2000/svg"
   xmlns:svg="http://www.w3.org/2000/svg">
  <defs
     id="defs1" />
  <sodipodi:namedview
     id="namedview1"
     pagecolor="#ffffff"
     bordercolor="#000000"
     borderopacity="0.25"
     inkscape:showpageshadow="2"
     inkscape:pageopacity="0.0"
     inkscape:pagecheckerboard="0"
     inkscape:deskcolor="#d1d1d1"
     inkscape:zoom="15.083333"
     inkscape:cx="11.966851"
     inkscape:cy="11.966851"
     inkscape:window-width="1920"
     inkscape:window-height="1001"
     inkscape:window-x="-9"
     inkscape:window-y="-9"
     inkscape:window-maximized="1"
     inkscape:current-layer="svg1" />
  <path
     fill="currentColor"
     fill-rule="evenodd"
     clip-rule="evenodd"
     d="m 2.945,7.9999983 h 2.89 V 18.819999 c 0,0.86 0.37,1.68 1,2.27 0.46,0.43 1.02,0.71 1.63,0.84 a 1,1 0 0 0 0.37,0.07 h 10 a 4,4 0 0 0 4,-4 v -1 a 2,2 0 0 0 -2,-2 h -1 V 4.9999983 a 3,3 0 0 0 -3,-3 H 4.505 c -0.87,0 -1.7,0.32 -2.34,0.9 -0.63,0.6 -1,1.42 -1,2.28 0,0.71 0.3,1.35 0.52,1.75 a 5.35,5.35 0 0 0 0.48,0.7 l 0.01,0.01 h 0.01 l 0.76,-0.64 -0.76,0.65 a 1,1 0 0 0 0.76,0.35 z m 1.56,-4 c -0.38,0 -0.72,0.14 -0.97,0.37 -0.24,0.23 -0.37,0.52 -0.37,0.81 a 1.69,1.69 0 0 0 0.3,0.82 h 2.37 v -0.83 c 0,-0.29 -0.13,-0.58 -0.37,-0.8 -0.23,-0.23 -0.59,-0.37 -0.96,-0.37 z m 5,13.0000007 a 3.58,3.58 0 0 1 0,3 h 9.33 a 2,2 0 0 0 2,-2 v -1 H 9.495 Z M 3.695,6.3499983 Z m 7.14,1.65 a 1,1 0 1 0 0,2 h 5 a 1,1 0 1 0 0,-2 z m -1,5.0000007 a 1,1 0 0 1 1,-1 h 5 a 1,1 0 1 1 0,2 h -5 a 1,1 0 0 1 -1,-1 z"
     id="path1"
     style="fill:#2d2d2d;fill-opacity:1" />
</svg>
