<svg width="25" height="25" viewBox="0 0 25 25" fill="none" xmlns="http://www.w3.org/2000/svg">
<path fill-rule="evenodd" clip-rule="evenodd" d="M7.4739 2.3567H16.9839C18.1428 2.3567 18.7222 2.3567 19.1895 2.51931C20.0757 2.82766 20.7714 3.54389 21.0709 4.45616C21.2289 4.93725 21.2289 5.53375 21.2289 6.72676V20.7309C21.2289 21.5891 20.2439 22.0445 19.6208 21.4743C19.2547 21.1393 18.7031 21.1393 18.337 21.4743L17.8539 21.9164C17.2123 22.5035 16.2455 22.5035 15.6039 21.9164C14.9623 21.3293 13.9955 21.3293 13.3539 21.9164C12.7123 22.5035 11.7455 22.5035 11.1039 21.9164C10.4623 21.3293 9.49547 21.3293 8.85388 21.9164C8.21229 22.5035 7.24547 22.5035 6.60388 21.9164L6.12078 21.4743C5.75471 21.1393 5.20305 21.1393 4.83698 21.4743C4.21388 22.0445 3.22888 21.5891 3.22888 20.7309V6.72676C3.22888 5.53375 3.22888 4.93725 3.38683 4.45616C3.68636 3.54389 4.3821 2.82766 5.26827 2.51931C5.73559 2.3567 6.31502 2.3567 7.4739 2.3567ZM7.22888 7.1067C6.81467 7.1067 6.47888 7.44249 6.47888 7.8567C6.47888 8.27091 6.81467 8.6067 7.22888 8.6067H7.72888C8.14309 8.6067 8.47888 8.27091 8.47888 7.8567C8.47888 7.44249 8.14309 7.1067 7.72888 7.1067H7.22888ZM10.7289 7.1067C10.3147 7.1067 9.97888 7.44249 9.97888 7.8567C9.97888 8.27091 10.3147 8.6067 10.7289 8.6067H17.2289C17.6431 8.6067 17.9789 8.27091 17.9789 7.8567C17.9789 7.44249 17.6431 7.1067 17.2289 7.1067H10.7289ZM7.22888 10.6067C6.81467 10.6067 6.47888 10.9425 6.47888 11.3567C6.47888 11.7709 6.81467 12.1067 7.22888 12.1067H7.72888C8.14309 12.1067 8.47888 11.7709 8.47888 11.3567C8.47888 10.9425 8.14309 10.6067 7.72888 10.6067H7.22888ZM10.7289 10.6067C10.3147 10.6067 9.97888 10.9425 9.97888 11.3567C9.97888 11.7709 10.3147 12.1067 10.7289 12.1067H17.2289C17.6431 12.1067 17.9789 11.7709 17.9789 11.3567C17.9789 10.9425 17.6431 10.6067 17.2289 10.6067H10.7289ZM7.22888 14.1067C6.81467 14.1067 6.47888 14.4425 6.47888 14.8567C6.47888 15.2709 6.81467 15.6067 7.22888 15.6067H7.72888C8.14309 15.6067 8.47888 15.2709 8.47888 14.8567C8.47888 14.4425 8.14309 14.1067 7.72888 14.1067H7.22888ZM10.7289 14.1067C10.3147 14.1067 9.97888 14.4425 9.97888 14.8567C9.97888 15.2709 10.3147 15.6067 10.7289 15.6067H17.2289C17.6431 15.6067 17.9789 15.2709 17.9789 14.8567C17.9789 14.4425 17.6431 14.1067 17.2289 14.1067H10.7289Z" fill="#2D2D2D"/>
</svg>
