<?xml version="1.0" encoding="UTF-8" standalone="no"?>
<svg
   width="25"
   height="25"
   viewBox="0 0 25 25"
   fill="none"
   version="1.1"
   id="svg1"
   sodipodi:docname="billing_alt.svg"
   inkscape:version="1.4 (86a8ad7, 2024-10-11)"
   xmlns:inkscape="http://www.inkscape.org/namespaces/inkscape"
   xmlns:sodipodi="http://sodipodi.sourceforge.net/DTD/sodipodi-0.dtd"
   xmlns="http://www.w3.org/2000/svg"
   xmlns:svg="http://www.w3.org/2000/svg">
  <defs
     id="defs1" />
  <sodipodi:namedview
     id="namedview1"
     pagecolor="#ffffff"
     bordercolor="#000000"
     borderopacity="0.25"
     inkscape:showpageshadow="2"
     inkscape:pageopacity="0.0"
     inkscape:pagecheckerboard="0"
     inkscape:deskcolor="#d1d1d1"
     inkscape:zoom="31.32"
     inkscape:cx="12.5"
     inkscape:cy="12.5"
     inkscape:window-width="1920"
     inkscape:window-height="1001"
     inkscape:window-x="-9"
     inkscape:window-y="-9"
     inkscape:window-maximized="1"
     inkscape:current-layer="svg1" />
  <path
     fill-rule="evenodd"
     clip-rule="evenodd"
     d="m 7.74501,2.4999875 h 9.51 c 1.1589,0 1.7383,0 2.2056,0.16261 0.8862,0.30835 1.5819,1.02458 1.8814,1.93685 0.158,0.48109 0.158,1.07759 0.158,2.2706 V 20.874187 c 0,0.858201 -0.985,1.3136 -1.6081,0.7434 -0.3661,-0.335 -0.9177,-0.335 -1.2838,0 l -0.4831,0.442101 c -0.6416,0.5871 -1.6084,0.5871 -2.25,0 -0.6416,-0.5871 -1.6084,-0.5871 -2.25,0 -0.6416,0.5871 -1.6084,0.5871 -2.25,0 -0.6416,-0.5871 -1.60843,-0.5871 -2.25002,0 -0.64159,0.5871 -1.60841,0.5871 -2.25,0 l -0.4831,-0.442101 c -0.36607,-0.335 -0.91773,-0.335 -1.2838,0 -0.6231,0.5702 -1.6081,0.114801 -1.6081,-0.7434 V 6.8700475 c 0,-1.19301 0,-1.78951 0.15795,-2.2706 0.29953,-0.91227 0.99527,-1.6285 1.88144,-1.93685 0.46732,-0.16261 1.04675,-0.16261 2.20563,-0.16261 z m -0.24502,4.75 c -0.41421,0 -0.75,0.33579 -0.75,0.75 0,0.41421 0.33579,0.75 0.75,0.75 h 0.5 c 0.41421,0 0.75,-0.33579 0.75,-0.75 0,-0.41421 -0.33579,-0.75 -0.75,-0.75 z m 3.50002,0 c -0.4142,0 -0.75002,0.33579 -0.75002,0.75 0,0.41421 0.33582,0.75 0.75002,0.75 h 6.5 c 0.4142,0 0.75,-0.33579 0.75,-0.75 0,-0.41421 -0.3358,-0.75 -0.75,-0.75 z M 7.49999,10.749988 c -0.41421,0 -0.75,0.3358 -0.75,0.75 0,0.4142 0.33579,0.75 0.75,0.75 h 0.5 c 0.41421,0 0.75,-0.3358 0.75,-0.75 0,-0.4142 -0.33579,-0.75 -0.75,-0.75 z m 3.50002,0 c -0.4142,0 -0.75002,0.3358 -0.75002,0.75 0,0.4142 0.33582,0.75 0.75002,0.75 h 6.5 c 0.4142,0 0.75,-0.3358 0.75,-0.75 0,-0.4142 -0.3358,-0.75 -0.75,-0.75 z m -3.50002,3.5 c -0.41421,0 -0.75,0.3358 -0.75,0.75 0,0.4142 0.33579,0.75 0.75,0.75 h 0.5 c 0.41421,0 0.75,-0.3358 0.75,-0.75 0,-0.4142 -0.33579,-0.75 -0.75,-0.75 z m 3.50002,0 c -0.4142,0 -0.75002,0.3358 -0.75002,0.75 0,0.4142 0.33582,0.75 0.75002,0.75 h 6.5 c 0.4142,0 0.75,-0.3358 0.75,-0.75 0,-0.4142 -0.3358,-0.75 -0.75,-0.75 z"
     fill="#2d2d2d"
     id="path1" />
</svg>
