<?xml version="1.0" encoding="UTF-8" standalone="no"?>
<svg
   width="24"
   height="24"
   viewBox="0 0 24 24"
   fill="none"
   version="1.1"
   id="svg2"
   sodipodi:docname="broom.svg"
   inkscape:version="1.4 (86a8ad7, 2024-10-11)"
   xmlns:inkscape="http://www.inkscape.org/namespaces/inkscape"
   xmlns:sodipodi="http://sodipodi.sourceforge.net/DTD/sodipodi-0.dtd"
   xmlns="http://www.w3.org/2000/svg"
   xmlns:svg="http://www.w3.org/2000/svg">
  <defs
     id="defs2" />
  <sodipodi:namedview
     id="namedview2"
     pagecolor="#ffffff"
     bordercolor="#000000"
     borderopacity="0.25"
     inkscape:showpageshadow="2"
     inkscape:pageopacity="0.0"
     inkscape:pagecheckerboard="0"
     inkscape:deskcolor="#d1d1d1"
     inkscape:zoom="32.625"
     inkscape:cx="12.015326"
     inkscape:cy="12"
     inkscape:window-width="1920"
     inkscape:window-height="1001"
     inkscape:window-x="-9"
     inkscape:window-y="-9"
     inkscape:window-maximized="1"
     inkscape:current-layer="svg2" />
  <g
     id="g2">
    <path
       d="m 18.2211,19.6431 c 0.477,-0.9035 0.9416,-1.9366 1.2402,-2.9808 0.4109,-1.4376 0.5594,-2.7872 0.6016,-3.8172 L 18.5105,11.2926 12.7073,5.48944 11.1549,3.93701 C 10.1248,3.97917 8.77531,4.12767 7.33767,4.53865 6.29348,4.83716 5.26037,5.30183 4.35693,5.77885 2.10098,6.96998 1.42721,9.71071 2.49716,11.8068 l 0.01305,0.0256 0.69902,1.1491 c 1.94079,3.1903 4.61881,5.8684 7.80917,7.8092 l 1.1491,0.6991 0.0256,0.013 c 2.0961,1.07 4.8368,0.3962 6.028,-1.8597 z"
       fill="#2d2d2d"
       id="path1" />
    <path
       d="m 21.7747,3.31343 c 0.3004,-0.30047 0.3004,-0.78762 0,-1.08808 -0.3005,-0.30047 -0.7877,-0.30047 -1.0881,0 l -1.6748,1.67483 c -1.7,-1.23449 -4.0177,-1.23443 -5.7176,2e-5 l 1.1085,1.10846 4.5888,4.58883 1.1084,1.10841 c 1.2345,-1.69993 1.2344,-4.01769 -1e-4,-5.71764 z"
       fill="#2d2d2d"
       id="path2" />
  </g>
</svg>
