<?xml version="1.0" encoding="UTF-8" standalone="no"?>
<svg
   width="25"
   height="25"
   viewBox="0 0 25 25"
   fill="none"
   version="1.1"
   id="svg1"
   sodipodi:docname="chart.svg"
   inkscape:version="1.4 (86a8ad7, 2024-10-11)"
   xmlns:inkscape="http://www.inkscape.org/namespaces/inkscape"
   xmlns:sodipodi="http://sodipodi.sourceforge.net/DTD/sodipodi-0.dtd"
   xmlns="http://www.w3.org/2000/svg"
   xmlns:svg="http://www.w3.org/2000/svg">
  <defs
     id="defs1" />
  <sodipodi:namedview
     id="namedview1"
     pagecolor="#ffffff"
     bordercolor="#000000"
     borderopacity="0.25"
     inkscape:showpageshadow="2"
     inkscape:pageopacity="0.0"
     inkscape:pagecheckerboard="0"
     inkscape:deskcolor="#d1d1d1"
     inkscape:zoom="31.32"
     inkscape:cx="12.484036"
     inkscape:cy="12.5"
     inkscape:window-width="1920"
     inkscape:window-height="1001"
     inkscape:window-x="-9"
     inkscape:window-y="-9"
     inkscape:window-maximized="1"
     inkscape:current-layer="svg1" />
  <path
     d="m 20.750015,14.250005 c 0,-0.4142 -0.3358,-0.75 -0.75,-0.75 h -3 c -0.4142,0 -0.75,0.3358 -0.75,0.75 v 6.75 h -1.5 V 4.749995 c 0,-0.72831 -0.0016,-1.19909 -0.0482,-1.54597 -0.0438,-0.32531 -0.1144,-0.42727 -0.1715,-0.48436 -0.0571,-0.05709 -0.159,-0.1277 -0.4843,-0.17144 -0.3469,-0.04664 -0.8177,-0.04823 -1.546,-0.04823 -0.7283,0 -1.1991,0.00159 -1.546,0.04823 -0.3253,0.04374 -0.4273,0.11435 -0.4844,0.17144 -0.057,0.05709 -0.1277,0.15905 -0.1714,0.48436 -0.0466,0.34688 -0.0482,0.81766 -0.0482,1.54597 v 16.25001 H 8.749985 V 9.249995 c 0,-0.41421 -0.33579,-0.75 -0.75,-0.75 h -3 c -0.41421,0 -0.75,0.33579 -0.75,0.75 v 11.75001 h -1.5 -0.25 c -0.41421,0 -0.75,0.3358 -0.75,0.75 0,0.4142 0.33579,0.75 0.75,0.75 h 20.00003 c 0.4142,0 0.75,-0.3358 0.75,-0.75 0,-0.4142 -0.3358,-0.75 -0.75,-0.75 h -0.25 -1.5 z"
     fill="#2d2d2d"
     id="path1" />
</svg>
