<svg width="25" height="25" viewBox="0 0 25 25" fill="none" xmlns="http://www.w3.org/2000/svg">
<path fill-rule="evenodd" clip-rule="evenodd" d="M12.2289 22.3567C17.7517 22.3567 22.2289 17.8795 22.2289 12.3567C22.2289 6.83385 17.7517 2.3567 12.2289 2.3567C6.70603 2.3567 2.22888 6.83385 2.22888 12.3567C2.22888 13.9564 2.6045 15.4683 3.27234 16.8092C3.44982 17.1655 3.50889 17.5728 3.406 17.9573L2.81039 20.1834C2.55183 21.1497 3.43589 22.0337 4.40223 21.7752L6.62827 21.1796C7.01281 21.0767 7.42009 21.1358 7.77641 21.3132C9.11725 21.9811 10.6292 22.3567 12.2289 22.3567ZM8.22888 13.6067C7.81467 13.6067 7.47888 13.9425 7.47888 14.3567C7.47888 14.7709 7.81467 15.1067 8.22888 15.1067H13.7289C14.1431 15.1067 14.4789 14.7709 14.4789 14.3567C14.4789 13.9425 14.1431 13.6067 13.7289 13.6067H8.22888ZM7.47888 10.8567C7.47888 10.4425 7.81467 10.1067 8.22888 10.1067H16.2289C16.6431 10.1067 16.9789 10.4425 16.9789 10.8567C16.9789 11.2709 16.6431 11.6067 16.2289 11.6067H8.22888C7.81467 11.6067 7.47888 11.2709 7.47888 10.8567Z" fill="#2D2D2D"/>
</svg>
