<?xml version="1.0" encoding="UTF-8" standalone="no"?>
<svg
   width="25"
   height="25"
   viewBox="0 0 25 25"
   fill="none"
   version="1.1"
   id="svg4"
   sodipodi:docname="clips.svg"
   inkscape:version="1.4 (86a8ad7, 2024-10-11)"
   xmlns:inkscape="http://www.inkscape.org/namespaces/inkscape"
   xmlns:sodipodi="http://sodipodi.sourceforge.net/DTD/sodipodi-0.dtd"
   xmlns="http://www.w3.org/2000/svg"
   xmlns:svg="http://www.w3.org/2000/svg">
  <defs
     id="defs4" />
  <sodipodi:namedview
     id="namedview4"
     pagecolor="#ffffff"
     bordercolor="#000000"
     borderopacity="0.25"
     inkscape:showpageshadow="2"
     inkscape:pageopacity="0.0"
     inkscape:pagecheckerboard="0"
     inkscape:deskcolor="#d1d1d1"
     inkscape:zoom="31.32"
     inkscape:cx="12.5"
     inkscape:cy="7.3595147"
     inkscape:window-width="1920"
     inkscape:window-height="1001"
     inkscape:window-x="-9"
     inkscape:window-y="-9"
     inkscape:window-maximized="1"
     inkscape:current-layer="svg4" />
  <g
     id="g4"
     transform="translate(0.56676164,-0.2082669)">
    <path
       d="M 15.0701,8.45182 18.4776,7.53879 C 18.702,7.47866 18.8142,7.44859 18.9025,7.40503 19.2653,7.22614 19.4846,6.84635 19.4581,6.44275 19.4517,6.34447 19.4216,6.23227 19.3615,6.00785 19.1811,5.33462 19.0909,4.998 18.9602,4.733 18.4235,3.64475 17.2842,2.98693 16.0734,3.06629 c -0.1232,0.00808 -0.2538,0.02853 -0.4131,0.06277 0.0191,0.0823 0.0244,0.16924 0.0138,0.25795 z"
       fill="#2d2d2d"
       id="path1" />
    <path
       d="M 9.37909,4.80032 14.1472,3.52269 13.5468,8.55664 c -0.0122,0.10283 -0.0031,0.20329 0.024,0.29689 L 8.7915,10.1341 9.39557,5.06933 C 9.40663,4.97664 9.40027,4.88588 9.37909,4.80032 Z"
       fill="#2d2d2d"
       id="path2" />
    <path
       fill-rule="evenodd"
       clip-rule="evenodd"
       d="M 16.2289,11.3567 H 4.22888 v 5 c 0,2.8284 0,4.2426 0.87868,5.1213 0.87868,0.8787 2.29289,0.8787 5.12134,0.8787 h 4 c 2.8284,0 4.2426,0 5.1213,-0.8787 0.8787,-0.8787 0.8787,-2.2929 0.8787,-5.1213 v -1 c 0,-1.8856 0,-2.8284 -0.5858,-3.4142 -0.5858,-0.5858 -1.5286,-0.5858 -3.4142,-0.5858 z m -3.1916,4.2235 c 0.7944,0.5695 1.1916,0.8543 1.1916,1.2765 0,0.4222 -0.3972,0.707 -1.1916,1.2765 -0.8053,0.5773 -1.2079,0.866 -1.5082,0.654 -0.3002,-0.2119 -0.3002,-0.7848 -0.3002,-1.9305 0,-1.1457 0,-1.7186 0.3002,-1.9305 0.3003,-0.212 0.7029,0.0767 1.5082,0.654 z"
       fill="#2d2d2d"
       id="path3" />
    <path
       d="m 7.26841,10.239 c -0.01226,0.1028 -0.00309,0.2032 0.02397,0.2968 L 4.23016,11.3564 C 3.74637,9.55083 3.50448,8.64806 3.71253,7.8716 3.84883,7.36294 4.11661,6.89911 4.48898,6.52674 5.05739,5.95833 5.96017,5.71644 7.76571,5.23264 l 0.1031,-0.02762 z"
       fill="#2d2d2d"
       id="path4" />
  </g>
</svg>
