<?xml version="1.0" encoding="UTF-8" standalone="no"?>
<svg
   width="25"
   height="25"
   viewBox="0 0 25 25"
   fill="none"
   version="1.1"
   id="svg4"
   sodipodi:docname="cloud.svg"
   inkscape:version="1.4 (86a8ad7, 2024-10-11)"
   xmlns:inkscape="http://www.inkscape.org/namespaces/inkscape"
   xmlns:sodipodi="http://sodipodi.sourceforge.net/DTD/sodipodi-0.dtd"
   xmlns="http://www.w3.org/2000/svg"
   xmlns:svg="http://www.w3.org/2000/svg">
  <defs
     id="defs4" />
  <sodipodi:namedview
     id="namedview4"
     pagecolor="#ffffff"
     bordercolor="#000000"
     borderopacity="0.25"
     inkscape:showpageshadow="2"
     inkscape:pageopacity="0.0"
     inkscape:pagecheckerboard="0"
     inkscape:deskcolor="#d1d1d1"
     inkscape:zoom="31.32"
     inkscape:cx="12.5"
     inkscape:cy="12.5"
     inkscape:window-width="1920"
     inkscape:window-height="1001"
     inkscape:window-x="-9"
     inkscape:window-y="-9"
     inkscape:window-maximized="1"
     inkscape:current-layer="svg4" />
  <g
     id="g4"
     transform="translate(0.27111,0.1433)">
    <path
       fill-rule="evenodd"
       clip-rule="evenodd"
       d="m 3.40045,20.1851 c 1.17158,1.1716 3.05719,1.1716 6.82845,1.1716 h 3.9292 c -0.2749,-0.4728 -0.4292,-1.0208 -0.4292,-1.5882 0,-0.816 0.3191,-1.5919 0.8571,-2.1618 h -0.8571 c -0.4142,0 -0.75,-0.3358 -0.75,-0.75 0,-0.4142 0.3358,-0.75 0.75,-0.75 h 1.9282 c 0.5113,-1.2899 1.7267,-2.25 3.2385,-2.25 1.5606,0 2.8095,1.0283 3.2883,2.3805 l 0.0144,0.01 c 0.0306,-0.8178 0.0306,-1.7711 0.0306,-2.8905 v -0.25 H 2.22888 v 0.25 c 0,3.7712 0,5.6569 1.17157,6.8284 z m 2.82843,-1.5784 c -0.41421,0 -0.75,-0.3358 -0.75,-0.75 v -2 c 0,-0.4142 0.33579,-0.75 0.75,-0.75 0.41421,0 0.75,0.3358 0.75,0.75 v 2 c 0,0.4142 -0.33579,0.75 -0.75,0.75 z m 3,0 c -0.41421,0 -0.75,-0.3358 -0.75,-0.75 v -2 c 0,-0.4142 0.33579,-0.75 0.75,-0.75 0.41421,0 0.75,0.3358 0.75,0.75 v 2 c 0,0.4142 -0.33579,0.75 -0.75,0.75 z"
       fill="#2d2d2d"
       id="path1" />
    <path
       fill-rule="evenodd"
       clip-rule="evenodd"
       d="M 3.40045,4.52827 C 2.22888,5.69985 2.22888,7.58546 2.22888,11.3567 v 0.25 H 22.2289 v -0.25 c 0,-3.77124 0,-5.65685 -1.1716,-6.82843 C 19.8858,3.3567 18.0001,3.3567 14.2289,3.3567 h -4 c -3.77126,0 -5.65687,0 -6.82845,1.17157 z M 9.22888,9.6067 c -0.41421,0 -0.75,-0.33579 -0.75,-0.75 v -2 c 0,-0.41421 0.33579,-0.75 0.75,-0.75 0.41421,0 0.75,0.33579 0.75,0.75 v 2 c 0,0.41421 -0.33579,0.75 -0.75,0.75 z m -3.75,-0.75 c 0,0.41421 0.33579,0.75 0.75,0.75 0.41421,0 0.75,-0.33579 0.75,-0.75 v -2 c 0,-0.41421 -0.33579,-0.75 -0.75,-0.75 -0.41421,0 -0.75,0.33579 -0.75,0.75 z m 7.50002,-1 c 0,-0.41421 0.3358,-0.75 0.75,-0.75 h 4.5 c 0.4142,0 0.75,0.33579 0.75,0.75 0,0.41421 -0.3358,0.75 -0.75,0.75 h -4.5 c -0.4142,0 -0.75,-0.33579 -0.75,-0.75 z"
       fill="#2d2d2d"
       id="path2" />
    <path
       fill-rule="evenodd"
       clip-rule="evenodd"
       d="m 20.8832,17.2373 c -0.1113,-1.058 -0.9587,-1.8806 -1.9876,-1.8806 -0.8451,0 -1.5678,0.555 -1.8607,1.3395 -0.0899,0.2409 -0.1393,0.5034 -0.1393,0.7781 0,0.2587 0.0438,0.5066 0.124,0.7357 -0.0941,-0.0195 -0.1913,-0.0298 -0.2907,-0.0298 -0.4399,0 -0.8356,0.2005 -1.1099,0.5199 -0.2424,0.2821 -0.3901,0.657 -0.3901,1.0684 0,0.8771 0.6716,1.5882 1.5,1.5882 h 3.5 c 1.1046,0 2,-0.9481 2,-2.1176 0,-0.927 -0.5625,-1.7148 -1.3457,-2.0018 z"
       fill="#2d2d2d"
       id="path3" />
    <path
       d="m 20.8832,17.2373 c -0.1113,-1.058 -0.9587,-1.8806 -1.9876,-1.8806 -0.8451,0 -1.5678,0.555 -1.8607,1.3395 -0.0899,0.2409 -0.1393,0.5034 -0.1393,0.7781 0,0.2587 0.0438,0.5066 0.124,0.7357 -0.0941,-0.0195 -0.1913,-0.0298 -0.2907,-0.0298 -0.4399,0 -0.8356,0.2005 -1.1099,0.5199 -0.2424,0.2821 -0.3901,0.657 -0.3901,1.0684 0,0.8771 0.6716,1.5882 1.5,1.5882 h 3.5 c 1.1046,0 2,-0.9481 2,-2.1176 0,-0.927 -0.5625,-1.7148 -1.3457,-2.0018 z"
       fill="#2d2d2d"
       id="path4" />
  </g>
</svg>
