<?xml version="1.0" encoding="UTF-8" standalone="no"?>
<svg
   height="25"
   viewBox="0 0 25 25"
   width="25"
   fill="#2d2d2d"
   version="1.1"
   id="svg1"
   sodipodi:docname="community.svg"
   inkscape:version="1.4 (86a8ad7, 2024-10-11)"
   xmlns:inkscape="http://www.inkscape.org/namespaces/inkscape"
   xmlns:sodipodi="http://sodipodi.sourceforge.net/DTD/sodipodi-0.dtd"
   xmlns="http://www.w3.org/2000/svg"
   xmlns:svg="http://www.w3.org/2000/svg">
  <defs
     id="defs1" />
  <sodipodi:namedview
     id="namedview1"
     pagecolor="#ffffff"
     bordercolor="#000000"
     borderopacity="0.25"
     inkscape:showpageshadow="2"
     inkscape:pageopacity="0.0"
     inkscape:pagecheckerboard="0"
     inkscape:deskcolor="#d1d1d1"
     inkscape:zoom="31.32"
     inkscape:cx="12.515964"
     inkscape:cy="12.468072"
     inkscape:window-width="1920"
     inkscape:window-height="1001"
     inkscape:window-x="-9"
     inkscape:window-y="-9"
     inkscape:window-maximized="1"
     inkscape:current-layer="svg1" />
  <path
     d="m 2.4996179,12.522728 q 0,-0.454563 0.2045564,-0.840941 Q 2.9087229,11.295409 3.272377,11.0454 L 7.8179987,7.7952752 q 0.2500151,-0.1818251 0.5113832,-0.2613736 0.2613759,-0.079548 0.5341125,-0.079548 0.2727367,0 0.5341125,0.079548 0.2613759,0.079548 0.5113833,0.2613736 L 14.454619,11.0454 q 0.363647,0.250009 0.568204,0.636387 0.204556,0.386378 0.204556,0.840941 v 6.34115 q 0,0.750029 -0.534113,1.284141 -0.534112,0.534111 -1.284142,0.534111 h -0.909127 q -0.750032,0 -1.284136,-0.534111 -0.534112,-0.534112 -0.534112,-1.284141 v -2.272813 q 0,-0.568204 -0.397743,-0.965946 Q 9.8862608,15.227377 9.3180581,15.227377 H 8.4089307 q -0.5682027,0 -0.9659392,0.397742 -0.3977441,0.397742 -0.3977441,0.965946 v 2.272813 q 0,0.750029 -0.5341127,1.284141 Q 5.9770222,20.68213 5.2269924,20.68213 H 4.3178727 q -0.7500297,0 -1.2841422,-0.534111 Q 2.4996179,19.613907 2.4996179,18.863878 Z M 22.500382,6.1361211 V 18.863878 q 0,0.750029 -0.534112,1.284141 -0.534112,0.534111 -1.284142,0.534111 h -2.727374 q -0.386385,0 -0.647753,-0.261373 -0.261376,-0.261374 -0.261376,-0.647753 v -8.159402 q 0,-0.454562 -0.193188,-0.84094 -0.193187,-0.386379 -0.556842,-0.636388 L 11.545418,6.7270527 Q 11.249953,6.4997713 11.068125,6.1815774 10.886298,5.8633834 10.886298,5.5451896 q 0,-0.5682036 0.363655,-0.8977616 0.363644,-0.329558 0.977306,-0.329558 h 8.454868 q 0.75003,0 1.284143,0.5341113 0.534112,0.5341112 0.534112,1.2841398 z m -5.000193,3.6365018 h 0.909127 q 0.181819,0 0.318195,-0.1363683 0.136369,-0.136369 0.136369,-0.3181937 v -0.909126 q 0,-0.181825 -0.136369,-0.318194 -0.136376,-0.1363687 -0.318195,-0.1363687 h -0.909127 q -0.181827,0 -0.318195,0.1363687 -0.136369,0.136369 -0.136369,0.318194 v 0.9091259 q 0,0.1818247 0.136369,0.3181938 0.136368,0.1363683 0.318195,0.1363683 z m 0,3.6365031 h 0.909127 q 0.181819,0 0.318195,-0.13637 0.136369,-0.136369 0.136369,-0.318193 v -0.909126 q 0,-0.181824 -0.136369,-0.318193 -0.136376,-0.13637 -0.318195,-0.13637 h -0.909127 q -0.181827,0 -0.318195,0.13637 -0.136369,0.136369 -0.136369,0.318193 v 0.909126 q 0,0.181824 0.136369,0.318193 0.136368,0.13637 0.318195,0.13637 z m 0,3.636502 h 0.909127 q 0.181819,0 0.318195,-0.136369 0.136369,-0.136369 0.136369,-0.318194 v -0.909126 q 0,-0.181825 -0.136369,-0.318194 -0.136376,-0.136368 -0.318195,-0.136368 h -0.909127 q -0.181827,0 -0.318195,0.136368 -0.136369,0.136369 -0.136369,0.318194 v 0.909126 q 0,0.181825 0.136369,0.318194 0.136368,0.136369 0.318195,0.136369 z"
     id="path1"
     style="stroke-width:0.0227281" />
</svg>
