<svg width="25" height="25" viewBox="0 0 25 25" fill="none" xmlns="http://www.w3.org/2000/svg">
<path fill-rule="evenodd" clip-rule="evenodd" d="M3.69335 3.82117C2.22888 5.28563 2.22888 7.64265 2.22888 12.3567C2.22888 17.0707 2.22888 19.4278 3.69335 20.8922C5.15781 22.3567 7.51483 22.3567 12.2289 22.3567C16.9429 22.3567 19.3 22.3567 20.7644 20.8922C22.2289 19.4278 22.2289 17.0707 22.2289 12.3567C22.2289 7.64265 22.2289 5.28563 20.7644 3.82117C19.3 2.3567 16.9429 2.3567 12.2289 2.3567C7.51483 2.3567 5.15781 2.3567 3.69335 3.82117ZM13.7592 6.82637L12.7592 5.82637C12.4663 5.53348 11.9915 5.53348 11.6986 5.82637L10.6986 6.82637C10.4057 7.11926 10.4057 7.59414 10.6986 7.88703C10.9096 8.09805 11.2151 8.15704 11.4789 8.06399V13.0982C11.4076 13.0682 11.3344 13.0414 11.2595 13.018L9.85604 12.5794C9.33419 12.4163 8.97888 11.933 8.97888 11.3863V10.9383C9.57012 10.6574 9.97888 10.0548 9.97888 9.3567C9.97888 8.3902 9.19538 7.6067 8.22888 7.6067C7.26238 7.6067 6.47888 8.3902 6.47888 9.3567C6.47888 10.0548 6.88764 10.6574 7.47888 10.9383V11.3863C7.47888 12.5891 8.26057 13.6524 9.40862 14.0111L10.8121 14.4497C11.2088 14.5737 11.4789 14.9411 11.4789 15.3567V15.7751C10.8877 16.056 10.4789 16.6586 10.4789 17.3567C10.4789 18.3232 11.2624 19.1067 12.2289 19.1067C13.1954 19.1067 13.9789 18.3232 13.9789 17.3567C13.9789 16.7172 13.6358 16.1578 13.1237 15.8525C13.2413 15.6648 13.4237 15.5191 13.6457 15.4497L15.0492 15.0111C16.1972 14.6524 16.9789 13.5891 16.9789 12.3863V12.0651C17.1791 12.0262 17.412 11.9414 17.6128 11.7406C17.8486 11.5048 17.9244 11.2246 17.9539 11.0053C17.9791 10.8181 17.979 10.5963 17.9789 10.3912V10.3223C17.979 10.1172 17.9791 9.89534 17.9539 9.70813C17.9244 9.4888 17.8486 9.20863 17.6128 8.97283C17.377 8.73703 17.0968 8.66118 16.8775 8.63169C16.6903 8.60652 16.4685 8.60662 16.2634 8.6067H16.1945C15.9893 8.60662 15.7675 8.60652 15.5803 8.63169C15.361 8.66118 15.0808 8.73703 14.845 8.97283C14.6092 9.20863 14.5334 9.4888 14.5039 9.70813C14.4787 9.89534 14.4788 10.1171 14.4789 10.3222V10.3911C14.4788 10.5963 14.4787 10.8181 14.5039 11.0053C14.5334 11.2246 14.6092 11.5048 14.845 11.7406C15.0458 11.9414 15.2787 12.0262 15.4789 12.0651V12.3863C15.4789 12.933 15.1236 13.4163 14.6017 13.5794L13.1983 14.018C13.1234 14.0414 13.0502 14.0682 12.9789 14.0982V8.06399C13.2427 8.15704 13.5482 8.09805 13.7592 7.88703C14.0521 7.59414 14.0521 7.11926 13.7592 6.82637Z" fill="#2D2D2D"/>
</svg>
