<?xml version="1.0" encoding="UTF-8" standalone="no"?>
<svg
   width="25"
   height="25"
   viewBox="0 0 25 25"
   fill="none"
   version="1.1"
   id="svg1"
   sodipodi:docname="connections.svg"
   inkscape:version="1.4 (86a8ad7, 2024-10-11)"
   xmlns:inkscape="http://www.inkscape.org/namespaces/inkscape"
   xmlns:sodipodi="http://sodipodi.sourceforge.net/DTD/sodipodi-0.dtd"
   xmlns="http://www.w3.org/2000/svg"
   xmlns:svg="http://www.w3.org/2000/svg">
  <defs
     id="defs1" />
  <sodipodi:namedview
     id="namedview1"
     pagecolor="#ffffff"
     bordercolor="#000000"
     borderopacity="0.25"
     inkscape:showpageshadow="2"
     inkscape:pageopacity="0.0"
     inkscape:pagecheckerboard="0"
     inkscape:deskcolor="#d1d1d1"
     inkscape:zoom="31.32"
     inkscape:cx="12.5"
     inkscape:cy="12.5"
     inkscape:window-width="1920"
     inkscape:window-height="1001"
     inkscape:window-x="-9"
     inkscape:window-y="-9"
     inkscape:window-maximized="1"
     inkscape:current-layer="svg1" />
  <path
     fill-rule="evenodd"
     clip-rule="evenodd"
     d="M 3.96446,3.96447 C 2.49999,5.42893 2.49999,7.78595 2.49999,12.5 c 0,4.714 0,7.0711 1.46447,8.5355 C 5.42892,22.5 7.78594,22.5 12.50001,22.5 c 4.714,0 7.0711,0 8.5355,-1.4645 1.4645,-1.4644 1.4645,-3.8215 1.4645,-8.5355 0,-4.71405 0,-7.07107 -1.4645,-8.53553 C 19.57111,2.5 17.21401,2.5 12.50001,2.5 7.78594,2.5 5.42892,2.5 3.96446,3.96447 Z m 10.06585,3.0052 -1,-1 c -0.2929,-0.29289 -0.7677,-0.29289 -1.0606,0 l -1,1 c -0.2929,0.29289 -0.2929,0.76777 0,1.06066 0.211,0.21102 0.5165,0.27001 0.7803,0.17696 v 5.03421 c -0.0713,-0.03 -0.1445,-0.0568 -0.2194,-0.0802 L 10.12715,12.7227 C 9.6053,12.5596 9.24999,12.0763 9.24999,11.5296 v -0.448 c 0.59124,-0.2809 1,-0.8835 1,-1.5816 0,-0.9665 -0.7835,-1.75 -1.75,-1.75 -0.9665,0 -1.75,0.7835 -1.75,1.75 0,0.6981 0.40876,1.3007 1,1.5816 v 0.448 c 0,1.2028 0.78169,2.2661 1.92974,2.6248 l 1.40348,0.4386 c 0.3967,0.124 0.6668,0.4914 0.6668,0.907 v 0.4184 c -0.5912,0.2809 -1,0.8835 -1,1.5816 0,0.9665 0.7835,1.75 1.75,1.75 0.9665,0 1.75,-0.7835 1.75,-1.75 0,-0.6395 -0.3431,-1.1989 -0.8552,-1.5042 0.1176,-0.1877 0.3,-0.3334 0.522,-0.4028 l 1.4035,-0.4386 c 1.148,-0.3587 1.9297,-1.422 1.9297,-2.6248 v -0.3212 c 0.2002,-0.0389 0.4331,-0.1237 0.6339,-0.3245 0.2358,-0.2358 0.3116,-0.516 0.3411,-0.7353 0.0252,-0.1872 0.0251,-0.409 0.025,-0.6141 v -0.0689 c 10e-5,-0.2051 2e-4,-0.42696 -0.025,-0.61417 -0.0295,-0.21933 -0.1053,-0.4995 -0.3411,-0.7353 -0.2358,-0.2358 -0.516,-0.31165 -0.7353,-0.34114 -0.1872,-0.02517 -0.409,-0.02507 -0.6141,-0.02499 h -0.0689 c -0.2052,-8e-5 -0.427,-1.8e-4 -0.6142,0.02499 -0.2193,0.02949 -0.4995,0.10534 -0.7353,0.34114 -0.2358,0.2358 -0.3116,0.51597 -0.3411,0.7353 -0.0252,0.18721 -0.0251,0.40897 -0.025,0.61407 v 0.0689 c -10e-5,0.2052 -2e-4,0.427 0.025,0.6142 0.0295,0.2193 0.1053,0.4995 0.3411,0.7353 0.2008,0.2008 0.4337,0.2856 0.6339,0.3245 v 0.3212 c 0,0.5467 -0.3553,1.03 -0.8772,1.1931 l -1.4034,0.4386 c -0.0749,0.0234 -0.1481,0.0502 -0.2194,0.0802 V 8.20729 c 0.2638,0.09305 0.5693,0.03406 0.7803,-0.17696 0.2929,-0.29289 0.2929,-0.76777 0,-1.06066 z"
     fill="#2d2d2d"
     id="path1" />
</svg>
