<?xml version="1.0" encoding="UTF-8" standalone="no"?>
<svg
   data-stacking-context="true"
   aria-owns="w-full1"
   width="25"
   height="25"
   viewBox="426.79999 -77.399994 25 25"
   version="1.1"
   id="svg102"
   sodipodi:docname="Untitled-1.svg"
   inkscape:version="1.4 (86a8ad7, 2024-10-11)"
   xmlns:inkscape="http://www.inkscape.org/namespaces/inkscape"
   xmlns:sodipodi="http://sodipodi.sourceforge.net/DTD/sodipodi-0.dtd"
   xmlns:xlink="http://www.w3.org/1999/xlink"
   xmlns="http://www.w3.org/2000/svg"
   xmlns:svg="http://www.w3.org/2000/svg">
  <defs
     id="defs102">
    <radialGradient
       inkscape:collect="always"
       xlink:href="#svg1-__lottie_element_510"
       id="radialGradient105"
       cx="0"
       cy="0.00050159392"
       fx="0"
       fy="0.00050159392"
       r="160.42468"
       gradientUnits="userSpaceOnUse"
       gradientTransform="matrix(0.50849976,0,0,0.50849976,697.99987,193.79987)" />
  </defs>
  <sodipodi:namedview
     id="namedview102"
     pagecolor="#ffffff"
     bordercolor="#000000"
     borderopacity="0.25"
     inkscape:showpageshadow="2"
     inkscape:pageopacity="0.0"
     inkscape:pagecheckerboard="0"
     inkscape:deskcolor="#d1d1d1"
     inkscape:zoom="31.32"
     inkscape:cx="12.5"
     inkscape:cy="12.5"
     inkscape:window-width="1920"
     inkscape:window-height="1001"
     inkscape:window-x="-9"
     inkscape:window-y="-9"
     inkscape:window-maximized="1"
     inkscape:current-layer="svg102" />
  <!-- Generated by dom-to-svg from https://www.element-to-svg.com/ -->
  <style
     id="style1" />
  <g
     id="g112"
     transform="matrix(0.11943285,0,0,0.11943285,355.93588,-88.046095)">
    <path
       fill="rgb(255, 255, 255)"
       fill-opacity="1"
       d="m 700.85662,164.25045 c 1.45685,6.52456 4.7321,12.5035 9.4464,17.24373 4.7143,4.74075 10.67494,8.04905 17.19136,9.542 0.63766,0.14747 1.20616,0.50647 1.61347,1.01853 0.40731,0.51206 0.62901,1.14717 0.62901,1.8011 0,0.65444 -0.2217,1.28956 -0.62901,1.80162 -0.40731,0.51206 -0.97581,0.87106 -1.61347,1.01801 -6.5088,1.45736 -12.46943,4.73515 -17.18577,9.452 -4.71684,4.71633 -7.99463,10.67697 -9.45199,17.18576 -0.14695,0.63766 -0.50596,1.20667 -1.01801,1.61398 -0.51206,0.40731 -1.14718,0.62902 -1.80162,0.62902 -0.65444,0 -1.28905,-0.22171 -1.80111,-0.62902 -0.51205,-0.40731 -0.87106,-0.97632 -1.01852,-1.61398 -1.48736,-6.50727 -4.78447,-12.46078 -9.51098,-17.17407 -4.72651,-4.71328 -10.68968,-7.99412 -17.20102,-9.46369 -0.63715,-0.14695 -1.20616,-0.50595 -1.61347,-1.01801 -0.40731,-0.51206 -0.62901,-1.14718 -0.62901,-1.80162 0,-0.65393 0.2217,-1.28904 0.62901,-1.8011 0.40731,-0.51206 0.97632,-0.87106 1.61347,-1.01853 6.51337,-1.49092 12.47401,-4.78854 17.19899,-9.51301 4.72447,-4.72447 8.02158,-10.68561 9.51301,-17.19848 0.13882,-0.63969 0.49019,-1.21379 0.99666,-1.62771 0.50697,-0.41443 1.13904,-0.64427 1.79348,-0.65291 0.65444,-0.009 1.2926,0.20492 1.80975,0.60562 0.51765,0.4007 0.88428,0.96463 1.03937,1.60076 z"
       color="#000000"
       stroke="none"
       id="path35"
       style="display:block;mix-blend-mode:normal;fill:#2d2d2d;fill-opacity:1;stroke:none;stroke-width:0.508;stroke-dasharray:none;stroke-dashoffset:0;stroke-opacity:1"
       inkscape:label="path2" />
    <path
       fill="rgb(255, 255, 255)"
       fill-opacity="1"
       d="m 778.69726,190.66243 c 0,0 -21.417,-51.70528 -21.417,-51.70528 -0.83241,-2.00908 -2.42859,-3.60526 -4.43767,-4.43767 0,0 -51.70477,-21.417 -51.70477,-21.417 -2.00908,-0.8319 -4.26682,-0.8319 -6.2759,0 0,0 -51.70477,21.417 -51.70477,21.417 -2.00959,0.83241 -3.60577,2.42859 -4.43767,4.43767 0,0 -21.417,51.70528 -21.417,51.70528 -0.83241,2.00908 -0.83241,4.26631 0,6.27539 0,0 21.417,51.70527 21.417,51.70527 0.8319,2.00909 2.42808,3.60476 4.43767,4.43717 0,0 51.70477,21.4175 51.70477,21.4175 2.00908,0.83191 4.26682,0.83191 6.2759,0 0,0 51.70477,-21.4175 51.70477,-21.4175 2.00908,-0.83241 3.60526,-2.42808 4.43767,-4.43717 0,0 21.417,-51.70527 21.417,-51.70527 0.83241,-2.00908 0.83241,-4.26631 0,-6.27539 z m -21.96109,5.73079 c 0,0 -56.02396,56.0204 -56.02396,56.0204 -1.49957,1.50007 -3.93172,1.50007 -5.43129,0 0,0 -56.01837,-56.0204 -56.01837,-56.0204 -1.49956,-1.50008 -1.49956,-3.93172 0,-5.4318 0,0 56.01837,-56.02091 56.01837,-56.02091 1.49957,-1.49956 3.93172,-1.49956 5.43129,0 0,0 56.02396,56.02091 56.02396,56.02091 1.50007,1.50008 1.50007,3.93172 0,5.4318 z"
       color="#000000"
       stroke="none"
       id="path34"
       style="display:inline;opacity:1;mix-blend-mode:normal;fill:#2d2d2d;fill-opacity:1;stroke:url(#radialGradient105);stroke-width:0.508;stroke-dasharray:none;stroke-dashoffset:0"
       inkscape:label="path1" />
  </g>
</svg>
