<?xml version="1.0" encoding="UTF-8" standalone="no"?>
<svg
   width="25"
   height="25"
   viewBox="0 0 25 25"
   fill="none"
   version="1.1"
   id="svg1"
   sodipodi:docname="developer.svg"
   inkscape:version="1.4 (86a8ad7, 2024-10-11)"
   xmlns:inkscape="http://www.inkscape.org/namespaces/inkscape"
   xmlns:sodipodi="http://sodipodi.sourceforge.net/DTD/sodipodi-0.dtd"
   xmlns="http://www.w3.org/2000/svg"
   xmlns:svg="http://www.w3.org/2000/svg">
  <defs
     id="defs1" />
  <sodipodi:namedview
     id="namedview1"
     pagecolor="#ffffff"
     bordercolor="#000000"
     borderopacity="0.25"
     inkscape:showpageshadow="2"
     inkscape:pageopacity="0.0"
     inkscape:pagecheckerboard="0"
     inkscape:deskcolor="#d1d1d1"
     inkscape:zoom="31.32"
     inkscape:cx="12.5"
     inkscape:cy="12.5"
     inkscape:window-width="1920"
     inkscape:window-height="1001"
     inkscape:window-x="-9"
     inkscape:window-y="-9"
     inkscape:window-maximized="1"
     inkscape:current-layer="svg1" />
  <path
     fill-rule="evenodd"
     clip-rule="evenodd"
     d="m 22.500025,12.5 c 0,5.5228 -4.4772,10 -10,10 -5.5229,0 -10.00005,-4.4772 -10.00005,-10 0,-5.52285 4.47715,-10 10.00005,-10 5.5228,0 10,4.47715 10,10 z m -8.5119,-5.55409 c 0.4001,0.1072 0.6375,0.51846 0.5303,0.91856 l -2.5882,9.65923 c -0.1072,0.4001 -0.5185,0.6376 -0.9186,0.5304 -0.4001,-0.1073 -0.6375,-0.5185 -0.5303,-0.9186 l 2.5882,-9.65926 c 0.1072,-0.4001 0.5185,-0.63754 0.9186,-0.53033 z m 1.4816,2.02377 c 0.2929,-0.2929 0.7677,-0.2929 1.0606,0 l 0.2084,0.20833 c 0.6353,0.63529 1.1651,1.16509 1.5291,1.64219 0.3843,0.5036 0.6538,1.0357 0.6538,1.6798 0,0.6441 -0.2695,1.1762 -0.6538,1.6798 -0.364,0.4771 -0.8938,1.0069 -1.5291,1.6422 l -0.2084,0.2083 c -0.2929,0.2929 -0.7677,0.2929 -1.0606,0 -0.2929,-0.2929 -0.2929,-0.7677 0,-1.0606 l 0.1715,-0.1716 c 0.6817,-0.6817 1.1385,-1.1407 1.4341,-1.5282 0.2824,-0.3701 0.3463,-0.5856 0.3463,-0.7699 0,-0.1843 -0.0639,-0.3998 -0.3463,-0.7699 -0.2956,-0.3875 -0.7524,-0.8465 -1.4341,-1.5282 l -0.1715,-0.17157 c -0.2929,-0.29289 -0.2929,-0.76775 0,-1.06065 z m -6.99989,0 c 0.29289,-0.2929 0.76776,-0.2929 1.06066,0 0.29289,0.2929 0.29289,0.76776 0,1.06065 l -0.17158,0.17157 c -0.68165,0.6817 -1.13842,1.1407 -1.43406,1.5282 -0.28243,0.3701 -0.34627,0.5856 -0.34627,0.7699 0,0.1843 0.06384,0.3998 0.34627,0.7699 0.29564,0.3875 0.75241,0.8465 1.43406,1.5282 l 0.17158,0.1716 c 0.29289,0.2929 0.29289,0.7677 0,1.0606 -0.2929,0.2929 -0.76777,0.2929 -1.06066,0 L 8.261485,15.822 C 7.626145,15.1867 7.096355,14.6569 6.732325,14.1798 6.348085,13.6762 6.078585,13.1441 6.078585,12.5 c 0,-0.6441 0.2695,-1.1762 0.65374,-1.6798 0.36403,-0.4771 0.89382,-1.00689 1.52916,-1.64219 z"
     fill="#2d2d2d"
     id="path1" />
</svg>
