<svg width="25" height="25" viewBox="0 0 25 25" fill="none" xmlns="http://www.w3.org/2000/svg">
<path fill-rule="evenodd" clip-rule="evenodd" d="M22.2289 12.3567C22.2289 17.8795 17.7517 22.3567 12.2289 22.3567C6.706 22.3567 2.22885 17.8795 2.22885 12.3567C2.22885 6.83385 6.706 2.3567 12.2289 2.3567C17.7517 2.3567 22.2289 6.83385 22.2289 12.3567ZM13.717 6.80261C14.1171 6.90981 14.3545 7.32107 14.2473 7.72117L11.6591 17.3804C11.5519 17.7805 11.1406 18.018 10.7405 17.9108C10.3404 17.8035 10.103 17.3923 10.2102 16.9922L12.7984 7.33294C12.9056 6.93284 13.3169 6.6954 13.717 6.80261ZM15.1986 8.82638C15.4915 8.53348 15.9663 8.53348 16.2592 8.82638L16.4676 9.03471C17.1029 9.67 17.6327 10.1998 17.9967 10.6769C18.381 11.1805 18.6505 11.7126 18.6505 12.3567C18.6505 13.0008 18.381 13.5329 17.9967 14.0365C17.6327 14.5136 17.1029 15.0434 16.4676 15.6787L16.2592 15.887C15.9663 16.1799 15.4915 16.1799 15.1986 15.887C14.9057 15.5941 14.9057 15.1193 15.1986 14.8264L15.3701 14.6548C16.0518 13.9731 16.5086 13.5141 16.8042 13.1266C17.0866 12.7565 17.1505 12.541 17.1505 12.3567C17.1505 12.1724 17.0866 11.9569 16.8042 11.5868C16.5086 11.1993 16.0518 10.7403 15.3701 10.0586L15.1986 9.88703C14.9057 9.59414 14.9057 9.11928 15.1986 8.82638ZM8.19871 8.82638C8.4916 8.53348 8.96647 8.53348 9.25937 8.82638C9.55226 9.11928 9.55226 9.59414 9.25937 9.88703L9.08779 10.0586C8.40614 10.7403 7.94937 11.1993 7.65373 11.5868C7.3713 11.9569 7.30746 12.1724 7.30746 12.3567C7.30746 12.541 7.3713 12.7565 7.65373 13.1266C7.94937 13.5141 8.40614 13.9731 9.08779 14.6548L9.25937 14.8264C9.55226 15.1193 9.55226 15.5941 9.25937 15.887C8.96647 16.1799 8.4916 16.1799 8.19871 15.887L7.99036 15.6787C7.35502 15.0434 6.82523 14.5136 6.4612 14.0365C6.07696 13.5329 5.80746 13.0008 5.80746 12.3567C5.80746 11.7126 6.07696 11.1805 6.4612 10.6769C6.82523 10.1998 7.35502 9.67001 7.99036 9.03471L8.19871 8.82638Z" fill="#2D2D2D"/>
</svg>
