<?xml version="1.0" encoding="UTF-8" standalone="no"?>
<svg
   width="25"
   height="25"
   viewBox="0 0 25 25"
   fill="none"
   version="1.1"
   id="svg3"
   sodipodi:docname="devices.svg"
   inkscape:version="1.4 (86a8ad7, 2024-10-11)"
   xmlns:inkscape="http://www.inkscape.org/namespaces/inkscape"
   xmlns:sodipodi="http://sodipodi.sourceforge.net/DTD/sodipodi-0.dtd"
   xmlns="http://www.w3.org/2000/svg"
   xmlns:svg="http://www.w3.org/2000/svg">
  <defs
     id="defs3" />
  <sodipodi:namedview
     id="namedview3"
     pagecolor="#ffffff"
     bordercolor="#000000"
     borderopacity="0.25"
     inkscape:showpageshadow="2"
     inkscape:pageopacity="0.0"
     inkscape:pagecheckerboard="0"
     inkscape:deskcolor="#d1d1d1"
     inkscape:zoom="31.32"
     inkscape:cx="12.5"
     inkscape:cy="12.5"
     inkscape:window-width="1920"
     inkscape:window-height="1001"
     inkscape:window-x="-9"
     inkscape:window-y="-9"
     inkscape:window-maximized="1"
     inkscape:current-layer="svg3" />
  <g
     id="g3"
     transform="translate(0.27111,-0.1067)">
    <path
       d="m 14.2289,2.3567 h -4 c -3.77126,0 -5.65687,0 -6.82845,1.17157 C 2.22888,4.69985 2.22888,6.58546 2.22888,10.3567 v 1 c 0,0.5516 0,1.0494 0.00652,1.5 h 10.5952 c 0.1037,-0.6793 0.3359,-1.3873 0.9234,-1.9749 0.6181,-0.618 1.3695,-0.8429 2.0805,-0.93849 0.6456,-0.0868 1.4393,-0.08671 2.3049,-0.08661 h 0.179 c 0.8656,-10e-5 1.6593,-1.9e-4 2.3049,0.08661 0.5371,0.07219 1.0973,0.21819 1.6056,0.55169 v -0.1383 c 0,-3.77124 0,-5.65685 -1.1716,-6.82843 C 19.8858,2.3567 18.0001,2.3567 14.2289,2.3567 Z"
       fill="#2d2d2d"
       id="path1" />
    <path
       d="m 3.10754,16.478 c 0.87868,0.8787 2.29289,0.8787 5.12132,0.8787 h 3.25004 v 4 H 8.22886 c -0.41421,0 -0.75,0.3358 -0.75,0.75 0,0.4142 0.33579,0.75 0.75,0.75 H 13.7794 L 13.754,22.8316 c -0.618,-0.6181 -0.8429,-1.3695 -0.9385,-2.0805 -0.0868,-0.6456 -0.0867,-1.4393 -0.0866,-2.3049 v -3.179 c -10e-5,-0.4989 -10e-5,-0.974 0.0165,-1.4105 H 2.26721 c 0.07058,1.2579 0.27103,2.052 0.84033,2.6213 z"
       fill="#2d2d2d"
       id="path2" />
    <path
       fill-rule="evenodd"
       clip-rule="evenodd"
       d="m 22.2289,15.3567 v 3 c 0,1.8856 0,2.8284 -0.5858,3.4142 -0.5858,0.5858 -1.5286,0.5858 -3.4142,0.5858 -1.8856,0 -2.8284,0 -3.4142,-0.5858 -0.5858,-0.5858 -0.5858,-1.5286 -0.5858,-3.4142 v -3 c 0,-1.8856 0,-2.8284 0.5858,-3.4142 0.5858,-0.5858 1.5286,-0.5858 3.4142,-0.5858 1.8856,0 2.8284,0 3.4142,0.5858 0.5858,0.5858 0.5858,1.5286 0.5858,3.4142 z m -5.75,5 c 0,-0.4142 0.3358,-0.75 0.75,-0.75 h 2 c 0.4142,0 0.75,0.3358 0.75,0.75 0,0.4142 -0.3358,0.75 -0.75,0.75 h -2 c -0.4142,0 -0.75,-0.3358 -0.75,-0.75 z"
       fill="#2d2d2d"
       id="path3" />
  </g>
</svg>
