<?xml version="1.0" encoding="UTF-8" standalone="no"?>
<svg
   width="25"
   height="25"
   viewBox="0 0 25 25"
   fill="none"
   version="1.1"
   id="svg1"
   sodipodi:docname="dismiss.svg"
   inkscape:version="1.4 (86a8ad7, 2024-10-11)"
   xmlns:inkscape="http://www.inkscape.org/namespaces/inkscape"
   xmlns:sodipodi="http://sodipodi.sourceforge.net/DTD/sodipodi-0.dtd"
   xmlns="http://www.w3.org/2000/svg"
   xmlns:svg="http://www.w3.org/2000/svg">
  <defs
     id="defs1" />
  <sodipodi:namedview
     id="namedview1"
     pagecolor="#ffffff"
     bordercolor="#000000"
     borderopacity="0.25"
     inkscape:showpageshadow="2"
     inkscape:pageopacity="0.0"
     inkscape:pagecheckerboard="0"
     inkscape:deskcolor="#d1d1d1"
     inkscape:zoom="31.32"
     inkscape:cx="12.484036"
     inkscape:cy="12.5"
     inkscape:window-width="1920"
     inkscape:window-height="1001"
     inkscape:window-x="-9"
     inkscape:window-y="-9"
     inkscape:window-maximized="1"
     inkscape:current-layer="svg1" />
  <path
     fill-rule="evenodd"
     clip-rule="evenodd"
     d="m 22.499985,12.49998 c 0,5.5228 -4.4772,10 -10,10 -5.52282,0 -9.99997,-4.4772 -9.99997,-10 0,-5.52281 4.47715,-9.99996 9.99997,-9.99996 5.5228,0 10,4.47715 10,9.99996 z M 9.469645,9.46967 c 0.29289,-0.29289 0.76776,-0.29289 1.06064,0 l 1.9697,1.96961 1.9696,-1.96959 c 0.2929,-0.29289 0.7678,-0.29289 1.0607,0 0.2929,0.29289 0.2929,0.76779 0,1.06059 l -1.9697,1.9697 1.9697,1.9696 c 0.2929,0.2929 0.2929,0.7678 0,1.0607 -0.2929,0.2929 -0.7678,0.2929 -1.0607,0 l -1.9696,-1.9696 -1.9697,1.9696 c -0.29285,0.2929 -0.76773,0.2929 -1.06062,0 -0.29289,-0.2929 -0.29289,-0.7678 0,-1.0606 l 1.96962,-1.9697 -1.96964,-1.9697 c -0.2929,-0.2928 -0.2929,-0.76772 0,-1.06061 z"
     fill="#2d2d2d"
     id="path1" />
</svg>
