<?xml version="1.0" encoding="UTF-8" standalone="no"?>
<svg
   width="25"
   height="25"
   viewBox="0 0 25 25"
   fill="none"
   version="1.1"
   id="svg1"
   sodipodi:docname="emoji.svg"
   inkscape:version="1.4 (86a8ad7, 2024-10-11)"
   xmlns:inkscape="http://www.inkscape.org/namespaces/inkscape"
   xmlns:sodipodi="http://sodipodi.sourceforge.net/DTD/sodipodi-0.dtd"
   xmlns="http://www.w3.org/2000/svg"
   xmlns:svg="http://www.w3.org/2000/svg">
  <defs
     id="defs1" />
  <sodipodi:namedview
     id="namedview1"
     pagecolor="#ffffff"
     bordercolor="#000000"
     borderopacity="0.25"
     inkscape:showpageshadow="2"
     inkscape:pageopacity="0.0"
     inkscape:pagecheckerboard="0"
     inkscape:deskcolor="#d1d1d1"
     inkscape:zoom="31.32"
     inkscape:cx="12.484036"
     inkscape:cy="12.5"
     inkscape:window-width="1920"
     inkscape:window-height="1001"
     inkscape:window-x="-9"
     inkscape:window-y="-9"
     inkscape:window-maximized="1"
     inkscape:current-layer="svg1" />
  <path
     fill-rule="evenodd"
     clip-rule="evenodd"
     d="m 12.500015,22.500005 c 5.5228,0 10,-4.4772 10,-10 0,-5.52286 -4.4772,-10.00001 -10,-10.00001 -5.52288,0 -10.00003,4.47715 -10.00003,10.00001 0,5.5228 4.47715,10 10.00003,10 z m -3.60256,-6.4466 c 0.24666,-0.3328 0.71638,-0.4026 1.04916,-0.1559 0.7284,0.5398 1.6075,0.8525 2.5534,0.8525 0.9459,0 1.825,-0.3127 2.5534,-0.8525 0.3328,-0.2467 0.8025,-0.1769 1.0491,0.1559 0.2467,0.3328 0.1769,0.8025 -0.1559,1.0491 -0.9724,0.7208 -2.1616,1.1475 -3.4466,1.1475 -1.285,0 -2.4742,-0.4267 -3.44664,-1.1475 -0.33277,-0.2466 -0.40257,-0.7163 -0.15592,-1.0491 z m 7.60256,-5.0534 c 0,0.8284 -0.4477,1.5 -1,1.5 -0.5523,0 -1,-0.6716 -1,-1.5 0,-0.8284 0.4477,-1.50001 1,-1.50001 0.5523,0 1,0.67161 1,1.50001 z m -7.00003,1.5 c 0.55233,0 1.00003,-0.6716 1.00003,-1.5 0,-0.8284 -0.4477,-1.50001 -1.00003,-1.50001 -0.55228,0 -1,0.67161 -1,1.50001 0,0.8284 0.44772,1.5 1,1.5 z"
     fill="#2d2d2d"
     id="path1" />
</svg>
