<?xml version="1.0" encoding="UTF-8" standalone="no"?>
<svg
   width="25"
   height="25"
   fill="none"
   aria-hidden="true"
   class="icon__23977"
   viewBox="0 0 25 25"
   version="1.1"
   id="svg1"
   sodipodi:docname="emoji.svg"
   inkscape:version="1.4 (86a8ad7, 2024-10-11)"
   xmlns:inkscape="http://www.inkscape.org/namespaces/inkscape"
   xmlns:sodipodi="http://sodipodi.sourceforge.net/DTD/sodipodi-0.dtd"
   xmlns="http://www.w3.org/2000/svg"
   xmlns:svg="http://www.w3.org/2000/svg">
  <defs
     id="defs1" />
  <sodipodi:namedview
     id="namedview1"
     pagecolor="#ffffff"
     bordercolor="#000000"
     borderopacity="0.25"
     inkscape:showpageshadow="2"
     inkscape:pageopacity="0.0"
     inkscape:pagecheckerboard="0"
     inkscape:deskcolor="#d1d1d1"
     inkscape:zoom="31.32"
     inkscape:cx="12.484036"
     inkscape:cy="12.5"
     inkscape:window-width="1920"
     inkscape:window-height="1001"
     inkscape:window-x="-9"
     inkscape:window-y="-9"
     inkscape:window-maximized="1"
     inkscape:current-layer="svg1" />
  <path
     fill="#2d2d2d"
     fill-rule="evenodd"
     d="m 12.497351,22.526182 a 10.026182,10.026182 0 1 0 0,-20.0523637 10.026182,10.026182 0 0 0 0,20.0523637 z M 7.484259,13.41147 a 1.3672064,1.3672064 0 1 0 0,-2.734412 1.3672064,1.3672064 0 0 0 0,2.734412 z m 10.026183,0 a 1.3672064,1.3672064 0 1 0 0,-2.734412 1.3672064,1.3672064 0 0 0 0,2.734412 z m -8.9324177,1.066421 a 0.91147103,0.91147103 0 0 1 1.266945,0.246098 3.1901485,3.1901485 0 0 0 5.3047617,0 0.91260985,0.91260985 0 0 1 1.513042,1.020848 5.0130907,5.0130907 0 0 1 -8.3308459,0 0.91147103,0.91147103 0 0 1 0.2460972,-1.27606 z"
     clip-rule="evenodd"
     id="path1"
     style="stroke-width:0.91147" />
</svg>
