<?xml version="1.0" encoding="UTF-8" standalone="no"?>
<svg
   height="24px"
   viewBox="0 -960 960 960"
   width="24px"
   fill="#2D2D2D"
   version="1.1"
   id="svg1"
   sodipodi:docname="family.svg"
   inkscape:version="1.4 (86a8ad7, 2024-10-11)"
   xmlns:inkscape="http://www.inkscape.org/namespaces/inkscape"
   xmlns:sodipodi="http://sodipodi.sourceforge.net/DTD/sodipodi-0.dtd"
   xmlns="http://www.w3.org/2000/svg"
   xmlns:svg="http://www.w3.org/2000/svg">
  <defs
     id="defs1" />
  <sodipodi:namedview
     id="namedview1"
     pagecolor="#ffffff"
     bordercolor="#000000"
     borderopacity="0.25"
     inkscape:showpageshadow="2"
     inkscape:pageopacity="0.0"
     inkscape:pagecheckerboard="0"
     inkscape:deskcolor="#d1d1d1"
     inkscape:zoom="32.625"
     inkscape:cx="12"
     inkscape:cy="12"
     inkscape:window-width="1920"
     inkscape:window-height="1001"
     inkscape:window-x="-9"
     inkscape:window-y="-9"
     inkscape:window-maximized="1"
     inkscape:current-layer="svg1" />
  <path
     d="m 703.64,-375.275 q -42.38,0 -72.05,-29.45 -29.68,-29.44 -29.68,-71.82 0,-42.38 29.45,-72.05 29.45,-29.68 71.83,-29.68 42.38,0 72.05,29.45 29.67,29.45 29.67,71.83 0,42.37 -29.45,72.05 -29.44,29.67 -71.82,29.67 z m -132.23,199.42 q -17.45,0 -29.47,-12.03 -12.03,-12.02 -12.03,-29.47 v -17 q 0,-12.76 4.84,-23.53 4.84,-10.78 14.27,-18.74 32.48,-27.47 72.08,-40.85 39.6,-13.38 82.31,-13.38 42.72,0 82.2,13.38 39.48,13.38 71.96,40.85 9.43,7.96 14.39,18.74 4.95,10.77 4.95,23.53 v 17 q 0,17.45 -12.02,29.47 -12.02,12.03 -29.48,12.03 z m -192.19,-304.27 q -63.59,0 -107.86,-44.27 -44.27,-44.27 -44.27,-107.86 0,-63.58 44.27,-107.74 44.27,-44.15 107.86,-44.15 63.58,0 107.86,44.15 44.27,44.16 44.27,107.74 0,63.59 -44.27,107.86 -44.28,44.27 -107.86,44.27 z m -296.13,203.66 q 0,-27.94 13.81,-51.46 13.82,-23.52 37.73,-37.48 55.72,-32.48 117.88,-49.6 62.17,-17.12 126.71,-17.12 53.43,0 105.13,11.62 51.69,11.62 100.65,34.1 l -91.09,54.33 q -18.08,12.32 -27.04,31.97 -8.96,19.64 -8.96,41.25 v 35.5 q 0,12.67 3.84,25.6 3.84,12.94 12.79,21.9 H 166.09 q -34.49,0 -58.74,-24.26 -24.26,-24.26 -24.26,-58.74 z"
     id="path1" />
</svg>
