<?xml version="1.0" encoding="UTF-8" standalone="no"?>
<svg
   width="25"
   height="25"
   viewBox="0 0 25 25"
   fill="none"
   version="1.1"
   id="svg1"
   sodipodi:docname="flag.svg"
   inkscape:version="1.4 (86a8ad7, 2024-10-11)"
   xmlns:inkscape="http://www.inkscape.org/namespaces/inkscape"
   xmlns:sodipodi="http://sodipodi.sourceforge.net/DTD/sodipodi-0.dtd"
   xmlns="http://www.w3.org/2000/svg"
   xmlns:svg="http://www.w3.org/2000/svg">
  <defs
     id="defs1" />
  <sodipodi:namedview
     id="namedview1"
     pagecolor="#ffffff"
     bordercolor="#000000"
     borderopacity="0.25"
     inkscape:showpageshadow="2"
     inkscape:pageopacity="0.0"
     inkscape:pagecheckerboard="0"
     inkscape:deskcolor="#d1d1d1"
     inkscape:zoom="31.32"
     inkscape:cx="12.484036"
     inkscape:cy="12.5"
     inkscape:window-width="1920"
     inkscape:window-height="1001"
     inkscape:window-x="-9"
     inkscape:window-y="-9"
     inkscape:window-maximized="1"
     inkscape:current-layer="svg1" />
  <path
     d="m 5.874975,1.749995 c 0.41421,0 0.75,0.33579 0.75,0.75 v 1.85 l 1.72067,-0.34413 c 1.65058,-0.33011 3.36148,-0.17303 4.92428,0.4521 l 0.2037,0.08146 c 1.5611,0.62446 3.2793,0.74108 4.9105,0.33327 0.7573,-0.18931 1.4909,0.38343 1.4909,1.16399 v 7.36702 c 0,0.6443 -0.4385,1.2059 -1.0636,1.3622 l -0.2144,0.0536 c -1.7696,0.4424 -3.6335,0.3159 -5.3271,-0.3615 -1.5628,-0.6252 -3.2737,-0.7822 -4.92428,-0.4521 l -1.72067,0.3441 v 8.15 c 0,0.4142 -0.33579,0.75 -0.75,0.75 -0.41421,0 -0.75,-0.3358 -0.75,-0.75 V 2.499995 c 0,-0.41421 0.33579,-0.75 0.75,-0.75 z"
     fill="#2d2d2d"
     id="path1" />
</svg>
