<?xml version="1.0" encoding="UTF-8" standalone="no"?>
<svg
   width="25"
   height="25"
   viewBox="0 0 25 25"
   version="1.1"
   id="svg1"
   sodipodi:docname="game.svg"
   inkscape:version="1.3.2 (091e20e, 2023-11-25, custom)"
   xmlns:inkscape="http://www.inkscape.org/namespaces/inkscape"
   xmlns:sodipodi="http://sodipodi.sourceforge.net/DTD/sodipodi-0.dtd"
   xmlns="http://www.w3.org/2000/svg"
   xmlns:svg="http://www.w3.org/2000/svg">
  <sodipodi:namedview
     id="namedview1"
     pagecolor="#ffffff"
     bordercolor="#000000"
     borderopacity="0.25"
     inkscape:showpageshadow="2"
     inkscape:pageopacity="0.0"
     inkscape:pagecheckerboard="0"
     inkscape:deskcolor="#d1d1d1"
     inkscape:zoom="46.04"
     inkscape:cx="12.5"
     inkscape:cy="12.5"
     inkscape:window-width="2560"
     inkscape:window-height="1364"
     inkscape:window-x="2551"
     inkscape:window-y="-9"
     inkscape:window-maximized="1"
     inkscape:current-layer="svg1" />
  <defs
     id="defs1" />
  <path
     fill="#2d2d2d"
     fill-rule="evenodd"
     d="m 10.6665,5.633816 -0.502,-0.355 a 4.24,4.24 0 0 0 -2.45,-0.779 h -0.612 c -0.405,0 -0.813,0.025 -1.194,0.16 -2.383,0.846 -4.022,3.935 -3.903,10.943 0.024,1.412 0.354,2.972 1.628,3.581 a 3.2,3.2 0 0 0 1.393,0.316 2.74,2.74 0 0 0 1.53,-0.437 c 0.41,-0.268 0.77,-0.616 1.13,-0.964 0.444,-0.43 0.888,-0.86 1.424,-1.138 a 4.1,4.1 0 0 1 1.89,-0.461 h 1.999 c 0.658,0 1.306,0.158 1.89,0.46 0.536,0.279 0.98,0.709 1.425,1.139 0.36,0.348 0.72,0.696 1.128,0.964 0.39,0.256 0.895,0.437 1.531,0.437 a 3.2,3.2 0 0 0 1.393,-0.316 c 1.274,-0.609 1.604,-2.17 1.628,-3.581 0.119,-7.008 -1.52,-10.097 -3.903,-10.942 -0.382,-0.136 -0.792,-0.161 -1.195,-0.161 h -0.612 a 4.24,4.24 0 0 0 -2.45,0.78 l -0.502,0.354 a 2.31,2.31 0 0 1 -2.666,0 m 6.083,2.866 a 0.75,0.75 0 1 1 0,1.5 0.75,0.75 0 0 1 0,-1.5 m -9.25,0.25 a 0.75,0.75 0 0 1 0.75,0.75 v 0.75 h 0.75 a 0.75,0.75 0 0 1 0,1.5 h -0.75 v 0.75 a 0.75,0.75 0 0 1 -1.5,0 v -0.75 h -0.75 a 0.75,0.75 0 0 1 0,-1.5 h 0.75 v -0.75 a 0.75,0.75 0 0 1 0.75,-0.75 m 11.5,2 a 0.75,0.75 0 1 1 -1.5,0 0.75,0.75 0 0 1 1.5,0 m -3.75,0.75 a 0.75,0.75 0 1 0 0,-1.5 0.75,0.75 0 0 0 0,1.5 m 2.25,0.75 a 0.75,0.75 0 1 0 -1.5,0 0.75,0.75 0 0 0 1.5,0"
     clip-rule="evenodd"
     id="path1" />
</svg>
