<?xml version="1.0" encoding="UTF-8" standalone="no"?>
<svg
   width="25"
   height="25"
   viewBox="0 0 25 25"
   fill="none"
   version="1.1"
   id="svg6"
   sodipodi:docname="gift.svg"
   inkscape:version="1.4 (86a8ad7, 2024-10-11)"
   xmlns:inkscape="http://www.inkscape.org/namespaces/inkscape"
   xmlns:sodipodi="http://sodipodi.sourceforge.net/DTD/sodipodi-0.dtd"
   xmlns="http://www.w3.org/2000/svg"
   xmlns:svg="http://www.w3.org/2000/svg">
  <defs
     id="defs6" />
  <sodipodi:namedview
     id="namedview6"
     pagecolor="#ffffff"
     bordercolor="#000000"
     borderopacity="0.25"
     inkscape:showpageshadow="2"
     inkscape:pageopacity="0.0"
     inkscape:pagecheckerboard="0"
     inkscape:deskcolor="#d1d1d1"
     inkscape:zoom="31.32"
     inkscape:cx="12.5"
     inkscape:cy="12.5"
     inkscape:window-width="1920"
     inkscape:window-height="1001"
     inkscape:window-x="-9"
     inkscape:window-y="-9"
     inkscape:window-maximized="1"
     inkscape:current-layer="svg6" />
  <g
     id="g6"
     transform="translate(0.27141,0.14355)">
    <path
       d="M 11.4787,2.3567 C 7.26033,2.36081 5.07776,2.43628 3.69311,3.82093 2.30846,5.20558 2.23299,7.38815 2.22888,11.6065 H 7.1424 C 6.79143,11.1681 6.52919,10.651 6.38619,10.079 5.84794,7.92596 7.79814,5.97576 9.95116,6.51401 c 0.57204,0.143 1.08914,0.40524 1.52754,0.75621 z"
       fill="#2d2d2d"
       id="path1" />
    <path
       d="m 2.22888,13.1065 c 0.00411,4.2183 0.07958,6.4008 1.46423,7.7855 1.38465,1.3846 3.56722,1.4601 7.78559,1.4642 v -7.8761 c -0.7797,1.5573 -2.39002,2.6264 -4.25006,2.6264 -0.41421,0 -0.75,-0.3358 -0.75,-0.75 0,-0.4142 0.33579,-0.75 0.75,-0.75 1.53679,0 2.82446,-1.0667 3.16306,-2.5 z"
       fill="#2d2d2d"
       id="path2" />
    <path
       d="m 12.9786,22.3562 c 4.2183,-0.0041 6.4008,-0.0796 7.7855,-1.4642 1.3846,-1.3847 1.4601,-3.5672 1.4642,-7.7855 h -8.1628 c 0.3386,1.4333 1.6263,2.5 3.1631,2.5 0.4142,0 0.75,0.3358 0.75,0.75 0,0.4142 -0.3358,0.75 -0.75,0.75 -1.8601,0 -3.4704,-1.0691 -4.25,-2.6264 z"
       fill="#2d2d2d"
       id="path3" />
    <path
       d="M 22.2283,11.6065 C 22.2242,7.38815 22.1487,5.20558 20.7641,3.82093 19.3794,2.43628 17.1969,2.36081 12.9786,2.3567 v 4.91352 c 0.4384,-0.35097 0.9555,-0.61321 1.5274,-0.75621 2.1531,-0.53825 4.1033,1.41195 3.565,3.56499 -0.143,0.572 -0.4052,1.0891 -0.7562,1.5275 z"
       fill="#2d2d2d"
       id="path4" />
    <path
       d="M 9.58737,7.96922 C 10.6989,8.2471 11.4787,9.24581 11.4787,10.3915 v 1.215 h -1.215 C 9.11801,11.6065 8.1193,10.8267 7.84142,9.71517 7.57781,8.66073 8.53293,7.70561 9.58737,7.96922 Z"
       fill="#2d2d2d"
       id="path5" />
    <path
       d="m 12.9786,10.3915 v 1.215 h 1.2149 c 1.1457,0 2.1444,-0.7798 2.4223,-1.89133 C 16.8794,8.66073 15.9243,7.70561 14.8699,7.96922 13.7583,8.2471 12.9786,9.24581 12.9786,10.3915 Z"
       fill="#2d2d2d"
       id="path6" />
  </g>
</svg>
