<?xml version="1.0" encoding="UTF-8" standalone="no"?>
<svg
   width="25"
   height="25"
   viewBox="0 0 25 25"
   fill="none"
   version="1.1"
   id="svg4"
   sodipodi:docname="hammer.svg"
   inkscape:version="1.4 (86a8ad7, 2024-10-11)"
   xmlns:inkscape="http://www.inkscape.org/namespaces/inkscape"
   xmlns:sodipodi="http://sodipodi.sourceforge.net/DTD/sodipodi-0.dtd"
   xmlns="http://www.w3.org/2000/svg"
   xmlns:svg="http://www.w3.org/2000/svg">
  <defs
     id="defs4" />
  <sodipodi:namedview
     id="namedview4"
     pagecolor="#ffffff"
     bordercolor="#000000"
     borderopacity="0.25"
     inkscape:showpageshadow="2"
     inkscape:pageopacity="0.0"
     inkscape:pagecheckerboard="0"
     inkscape:deskcolor="#d1d1d1"
     inkscape:zoom="31.32"
     inkscape:cx="12.484036"
     inkscape:cy="12.5"
     inkscape:window-width="1920"
     inkscape:window-height="1001"
     inkscape:window-x="-9"
     inkscape:window-y="-9"
     inkscape:window-maximized="1"
     inkscape:current-layer="svg4" />
  <g
     id="g4"
     transform="translate(-0.07982375,0.0044925)">
    <path
       d="M 8.18814,5.09938 C 9.924,3.36352 10.792,2.49559 11.8705,2.49559 c 1.0785,0 1.9465,0.86793 3.6823,2.60379 l 4.4187,4.41877 c 1.7359,1.73585 2.6038,2.60375 2.6038,3.68235 0,1.0785 -0.8679,1.9464 -2.6038,3.6823 -1.7359,1.7358 -2.6037,2.6038 -3.6822,2.6038 -1.0786,0 -1.9465,-0.868 -3.6823,-2.6038 L 8.18814,12.464 C 6.45228,10.7282 5.58435,9.86021 5.58435,8.78169 c 0,-1.07853 0.86793,-1.94645 2.60379,-3.68231 z"
       fill="#2d2d2d"
       id="path1" />
    <path
       d="m 7.86835,14.2655 -4.45819,4.4582 c -0.34244,0.3425 -0.51367,0.5137 -0.61651,0.6918 -0.27907,0.4834 -0.27907,1.0789 0,1.5623 0.10284,0.1781 0.27406,0.3493 0.61648,0.6917 0.34245,0.3425 0.5137,0.5137 0.69182,0.6166 0.48337,0.2791 1.0789,0.2791 1.56227,0 0.17812,-0.1029 0.34934,-0.2741 0.69179,-0.6165 l 4.45819,-4.4582 z"
       fill="#2d2d2d"
       id="path2" />
    <path
       d="m 8.92896,13.2049 0.00438,-0.0044 2.94586,2.9458 -0.0044,0.0044 z"
       fill="#2d2d2d"
       id="path3" />
    <path
       d="M 20.253,7.6782 C 20.5077,7.20289 20.4997,6.62823 20.2289,6.15918 20.126,5.98106 19.9548,5.80984 19.6124,5.4674 19.2699,5.12495 19.0987,4.95373 18.9206,4.85089 18.4515,4.58009 17.8769,4.57206 17.4016,4.82682 Z"
       fill="#2d2d2d"
       id="path4" />
  </g>
</svg>
