<svg width="25" height="25" viewBox="0 0 25 25" fill="none" xmlns="http://www.w3.org/2000/svg">
<path d="M5.69574 4.74877C5.98834 5.04196 5.98787 5.51683 5.69468 5.80943C4.01607 7.4847 2.97885 9.79888 2.97885 12.3567C2.97885 14.9445 4.04048 17.2829 5.75388 18.9626C6.04967 19.2526 6.05439 19.7274 5.76442 20.0232C5.47446 20.319 4.99961 20.3237 4.70382 20.0337C2.71449 18.0836 1.47885 15.3638 1.47885 12.3567C1.47885 9.38453 2.68606 6.69286 4.63508 4.74772C4.92826 4.45512 5.40314 4.45559 5.69574 4.74877Z" fill="#2D2D2D"/>
<path d="M18.8453 4.82116C19.1411 4.53119 19.6159 4.53591 19.9059 4.8317C21.806 6.76996 22.9789 9.42713 22.9789 12.3567C22.9789 15.3212 21.778 18.0066 19.8379 19.9505C19.5453 20.2437 19.0704 20.2442 18.7773 19.9516C18.4841 19.659 18.4836 19.1841 18.7762 18.8909C20.4471 17.2167 21.4789 14.9079 21.4789 12.3567C21.4789 9.83543 20.4711 7.551 18.8348 5.88177C18.5448 5.58598 18.5495 5.11113 18.8453 4.82116Z" fill="#2D2D2D"/>
<path d="M8.53808 7.84431C8.82111 8.14675 8.80537 8.62136 8.50293 8.90439C7.55402 9.79238 6.97885 11.007 6.97885 12.339C6.97885 13.6864 7.56754 14.914 8.53641 15.8046C8.84136 16.0849 8.86133 16.5594 8.58101 16.8643C8.3007 17.1693 7.82624 17.1892 7.52129 16.9089C6.26852 15.7574 5.47885 14.1391 5.47885 12.339C5.47885 10.5597 6.25033 8.95802 7.47801 7.80916C7.78045 7.52613 8.25506 7.54187 8.53808 7.84431Z" fill="#2D2D2D"/>
<path d="M15.9718 7.88233C16.2581 7.583 16.7328 7.57245 17.0322 7.85876C18.2294 9.00388 18.9789 10.5853 18.9789 12.339C18.9789 14.1135 18.2114 15.7116 16.9893 16.8598C16.6875 17.1434 16.2128 17.1286 15.9292 16.8267C15.6456 16.5249 15.6604 16.0502 15.9622 15.7666C16.9067 14.8792 17.4789 13.6675 17.4789 12.339C17.4789 11.0259 16.92 9.8272 15.9953 8.94273C15.696 8.65642 15.6855 8.18166 15.9718 7.88233Z" fill="#2D2D2D"/>
<path d="M12.2289 14.3568C13.3335 14.3568 14.2289 13.4613 14.2289 12.3568C14.2289 11.2522 13.3335 10.3568 12.2289 10.3568C11.1243 10.3568 10.2289 11.2522 10.2289 12.3568C10.2289 13.4613 11.1243 14.3568 12.2289 14.3568Z" fill="#2D2D2D"/>
</svg>
