<?xml version="1.0" encoding="UTF-8" standalone="no"?>
<svg
   width="25"
   height="25"
   viewBox="0 0 25 25"
   fill="none"
   version="1.1"
   id="svg1"
   sodipodi:docname="hotspot.svg"
   inkscape:version="1.4 (86a8ad7, 2024-10-11)"
   xmlns:inkscape="http://www.inkscape.org/namespaces/inkscape"
   xmlns:sodipodi="http://sodipodi.sourceforge.net/DTD/sodipodi-0.dtd"
   xmlns="http://www.w3.org/2000/svg"
   xmlns:svg="http://www.w3.org/2000/svg">
  <defs
     id="defs1" />
  <sodipodi:namedview
     id="namedview1"
     pagecolor="#ffffff"
     bordercolor="#000000"
     borderopacity="0.25"
     inkscape:showpageshadow="2"
     inkscape:pageopacity="0.0"
     inkscape:pagecheckerboard="0"
     inkscape:deskcolor="#d1d1d1"
     inkscape:zoom="31.32"
     inkscape:cx="12.484036"
     inkscape:cy="12.5"
     inkscape:window-width="1920"
     inkscape:window-height="1001"
     inkscape:window-x="-9"
     inkscape:window-y="-9"
     inkscape:window-maximized="1"
     inkscape:current-layer="svg1" />
  <path
     d="m 13.832385,22.024374 c 3.1259,-0.6266 7.1676,-2.8753 7.1676,-8.6901 0,-5.2915595 -3.8733,-8.8152295 -6.6585,-10.4343095 -0.618,-0.35928 -1.3415,0.11321 -1.3415,0.82807 v 1.82848 c 0,1.44186 -0.6062,4.07371 -2.29065,5.1683595 -0.86,0.5589 -1.7888,-0.2776 -1.89332,-1.2978795 l -0.08583,-0.83784 c -0.09977,-0.97401 -1.09176,-1.56529 -1.87021,-0.97144 -1.39849,1.06684 -2.85996,2.9349595 -2.85996,5.7165595 0,7.1111 5.28889,8.8889 7.93327,8.8889 0.1538,0 0.3155,-0.0046 0.4838,-0.0143 -1.3058,-0.1116 -3.41707,-0.9218 -3.41707,-3.5416 0,-2.0493 1.49507,-3.4357 2.63097,-4.1096 0.3055,-0.1813 0.6631,0.0541 0.6631,0.4093 v 0.5892 c 0,0.4509 0.1744,1.1558 0.5895,1.6383 0.4698,0.546 1.1593,-0.026 1.2149,-0.7441 0.0176,-0.2265 0.2454,-0.3709 0.4416,-0.2562 0.6413,0.3748 1.4599,1.1754 1.4599,2.4731 0,2.048 -1.129,2.9901 -2.1676,3.3571 z"
     fill="#2d2d2d"
     id="path1" />
</svg>
