<?xml version="1.0" encoding="UTF-8" standalone="no"?>
<svg
   width="24"
   height="24"
   viewBox="0 0 24 24"
   version="1.1"
   id="svg1"
   xmlns="http://www.w3.org/2000/svg"
   xmlns:svg="http://www.w3.org/2000/svg">
  <defs
     id="defs1" />
  <path
     d="m 22.460963,4.5156553 -8.58096,5.6155197 c -0.14835,0.0975 -0.2683,0.23143 -0.34715,0.38996 l -1.3085,2.61532 a 0.25093482,0.25093482 0 0 1 -0.44889,0 l -1.30808,-2.61532 a 1.0007722,1.0007722 0 0 0 -0.34758,-0.38996 L 1.5392735,4.5156553 c -0.21533,-0.14073 -0.47813,0.0941 -0.36156,0.32215 l 3.55759,6.9600497 a 0.25008707,0.25008707 0 0 1 -0.22339,0.36326 h -2.12913 c -0.24373,0 -0.34419,0.31155 -0.14623,0.45313 l 9.6177495,6.86594 a 0.25093482,0.25093482 0 0 0 0.29163,0 l 9.61776,-6.86594 c 0.19794,-0.14158 0.0975,-0.45356 -0.14625,-0.45356 h -2.12913 a 0.25008707,0.25008707 0 0 1 -0.22381,-0.36326 l 3.5576,-6.9591997 c 0.117,-0.22889 -0.14581,-0.4633 -0.36114,-0.32257"
     fill="#2d2d2d"
     color="#000000"
     stroke="none"
     id="path15"
     style="stroke-width:0.423877" />
</svg>
