<?xml version="1.0" encoding="UTF-8" standalone="no"?>
<svg
   width="25"
   height="25"
   viewBox="0 0 25 25"
   version="1.1"
   id="svg1"
   sodipodi:docname="incognito.svg"
   inkscape:version="1.3.2 (091e20e, 2023-11-25, custom)"
   xmlns:inkscape="http://www.inkscape.org/namespaces/inkscape"
   xmlns:sodipodi="http://sodipodi.sourceforge.net/DTD/sodipodi-0.dtd"
   xmlns="http://www.w3.org/2000/svg"
   xmlns:svg="http://www.w3.org/2000/svg">
  <sodipodi:namedview
     id="namedview1"
     pagecolor="#ffffff"
     bordercolor="#000000"
     borderopacity="0.25"
     inkscape:showpageshadow="2"
     inkscape:pageopacity="0.0"
     inkscape:pagecheckerboard="0"
     inkscape:deskcolor="#d1d1d1"
     inkscape:zoom="23.02"
     inkscape:cx="7.0156386"
     inkscape:cy="17.658558"
     inkscape:window-width="2560"
     inkscape:window-height="1364"
     inkscape:window-x="2551"
     inkscape:window-y="-9"
     inkscape:window-maximized="1"
     inkscape:current-layer="svg1" />
  <defs
     id="defs1" />
  <path
     fill="#2d2d2d"
     fill-rule="evenodd"
     d="M 5.114,8.545 4.688,10.25 H 2.5 a 0.75,0.75 0 0 0 0,1.5 h 20 a 0.75,0.75 0 0 0 0,-1.5 H 20.313 L 19.886,8.545 C 19.34,6.362 19.068,5.271 18.254,4.635 17.44,4 16.315,4 14.065,4 h -3.13 C 8.685,4 7.56,4 6.746,4.635 5.932,5.271 5.659,6.362 5.114,8.545 M 7,21 a 3.5,3.5 0 0 0 3.384,-2.604 l 1.11,-0.555 a 2.25,2.25 0 0 1 2.012,0 l 1.11,0.555 A 3.501,3.501 0 0 0 21.5,17.5 3.5,3.5 0 0 0 14.59,16.706 L 14.177,16.5 a 3.75,3.75 0 0 0 -3.354,0 L 10.41,16.706 A 3.501,3.501 0 0 0 3.5,17.5 3.5,3.5 0 0 0 7,21"
     clip-rule="evenodd"
     id="path1" />
</svg>
