<?xml version="1.0" encoding="UTF-8" standalone="no"?>
<svg
   width="25"
   height="25"
   viewBox="0 0 25 25"
   fill="none"
   version="1.1"
   id="svg1"
   sodipodi:docname="info.svg"
   inkscape:version="1.4 (86a8ad7, 2024-10-11)"
   xmlns:inkscape="http://www.inkscape.org/namespaces/inkscape"
   xmlns:sodipodi="http://sodipodi.sourceforge.net/DTD/sodipodi-0.dtd"
   xmlns="http://www.w3.org/2000/svg"
   xmlns:svg="http://www.w3.org/2000/svg">
  <defs
     id="defs1" />
  <sodipodi:namedview
     id="namedview1"
     pagecolor="#ffffff"
     bordercolor="#000000"
     borderopacity="0.25"
     inkscape:showpageshadow="2"
     inkscape:pageopacity="0.0"
     inkscape:pagecheckerboard="0"
     inkscape:deskcolor="#d1d1d1"
     inkscape:zoom="31.32"
     inkscape:cx="12.484036"
     inkscape:cy="12.5"
     inkscape:window-width="1920"
     inkscape:window-height="1001"
     inkscape:window-x="-9"
     inkscape:window-y="-9"
     inkscape:window-maximized="1"
     inkscape:current-layer="svg1" />
  <path
     fill-rule="evenodd"
     clip-rule="evenodd"
     d="m 22.500005,12.500015 c 0,5.5228 -4.4772,10 -10,10 -5.52286,0 -10.00001,-4.4772 -10.00001,-10 0,-5.52288 4.47715,-10.00003 10.00001,-10.00003 5.5228,0 10,4.47715 10,10.00003 z m -10,5.75 c 0.4142,0 0.75,-0.3358 0.75,-0.75 v -6 c 0,-0.4142 -0.3358,-0.75 -0.75,-0.75 -0.4142,0 -0.75,0.3358 -0.75,0.75 v 6 c 0,0.4142 0.3358,0.75 0.75,0.75 z m 0,-10.75003 c 0.5523,0 1,0.44772 1,1 0,0.55228 -0.4477,1 -1,1 -0.5523,0 -1,-0.44772 -1,-1 0,-0.55228 0.4477,-1 1,-1 z"
     fill="#2d2d2d"
     id="path1" />
</svg>
