<?xml version="1.0" encoding="UTF-8" standalone="no"?>
<svg
   width="25"
   height="25"
   viewBox="0 0 25 25"
   fill="none"
   version="1.1"
   id="svg1"
   sodipodi:docname="keyboard.svg"
   inkscape:version="1.4 (86a8ad7, 2024-10-11)"
   xmlns:inkscape="http://www.inkscape.org/namespaces/inkscape"
   xmlns:sodipodi="http://sodipodi.sourceforge.net/DTD/sodipodi-0.dtd"
   xmlns="http://www.w3.org/2000/svg"
   xmlns:svg="http://www.w3.org/2000/svg">
  <defs
     id="defs1" />
  <sodipodi:namedview
     id="namedview1"
     pagecolor="#ffffff"
     bordercolor="#000000"
     borderopacity="0.25"
     inkscape:showpageshadow="2"
     inkscape:pageopacity="0.0"
     inkscape:pagecheckerboard="0"
     inkscape:deskcolor="#d1d1d1"
     inkscape:zoom="31.32"
     inkscape:cx="12.5"
     inkscape:cy="12.5"
     inkscape:window-width="1920"
     inkscape:window-height="1001"
     inkscape:window-x="-9"
     inkscape:window-y="-9"
     inkscape:window-maximized="1"
     inkscape:current-layer="svg1" />
  <path
     fill-rule="evenodd"
     clip-rule="evenodd"
     d="m 8.49999,5.5 h 8.00002 c 2.8284,0 4.2426,0 5.1213,0.87868 0.8787,0.87868 0.8787,2.29289 0.8787,5.12132 v 2 c 0,2.8284 0,4.2426 -0.8787,5.1213 C 20.74261,19.5 19.32841,19.5 16.50001,19.5 H 8.49999 c -2.82843,0 -4.24264,0 -5.12132,-0.8787 C 2.49999,17.7426 2.49999,16.3284 2.49999,13.5 v -2 c 0,-2.82843 0,-4.24264 0.87868,-5.12132 C 4.25735,5.5 5.67156,5.5 8.49999,5.5 Z m -2,5 c 0.55228,0 1,-0.44772 1,-1 0,-0.55228 -0.44772,-1 -1,-1 -0.55228,0 -1,0.44772 -1,1 0,0.55228 0.44772,1 1,1 z m 0,3 c 0.55228,0 1,-0.4477 1,-1 0,-0.5523 -0.44772,-1 -1,-1 -0.55228,0 -1,0.4477 -1,1 0,0.5523 0.44772,1 1,1 z m 3,0 c 0.55228,0 1.00002,-0.4477 1.00002,-1 0,-0.5523 -0.44774,-1 -1.00002,-1 -0.55228,0 -1,0.4477 -1,1 0,0.5523 0.44772,1 1,1 z m 0,-3 c 0.55228,0 1.00002,-0.44772 1.00002,-1 0,-0.55228 -0.44774,-1 -1.00002,-1 -0.55228,0 -1,0.44772 -1,1 0,0.55228 0.44772,1 1,1 z m 3.00002,0 c 0.5523,0 1,-0.44772 1,-1 0,-0.55228 -0.4477,-1 -1,-1 -0.5523,0 -1,0.44772 -1,1 0,0.55228 0.4477,1 1,1 z m 0,3 c 0.5523,0 1,-0.4477 1,-1 0,-0.5523 -0.4477,-1 -1,-1 -0.5523,0 -1,0.4477 -1,1 0,0.5523 0.4477,1 1,1 z m 3,-3 c 0.5523,0 1,-0.44772 1,-1 0,-0.55228 -0.4477,-1 -1,-1 -0.5523,0 -1,0.44772 -1,1 0,0.55228 0.4477,1 1,1 z m 0,3 c 0.5523,0 1,-0.4477 1,-1 0,-0.5523 -0.4477,-1 -1,-1 -0.5523,0 -1,0.4477 -1,1 0,0.5523 0.4477,1 1,1 z m 3,-3 c 0.5523,0 1,-0.44772 1,-1 0,-0.55228 -0.4477,-1 -1,-1 -0.5523,0 -1,0.44772 -1,1 0,0.55228 0.4477,1 1,1 z m 0,3 c 0.5523,0 1,-0.4477 1,-1 0,-0.5523 -0.4477,-1 -1,-1 -0.5523,0 -1,0.4477 -1,1 0,0.5523 0.4477,1 1,1 z m -0.25,3 c 0,0.4142 -0.3358,0.75 -0.75,0.75 H 7.49999 c -0.41421,0 -0.75,-0.3358 -0.75,-0.75 0,-0.4142 0.33579,-0.75 0.75,-0.75 h 10.00002 c 0.4142,0 0.75,0.3358 0.75,0.75 z"
     fill="#2d2d2d"
     id="path1" />
</svg>
