<svg width="25" height="25" viewBox="0 0 25 25" fill="none" xmlns="http://www.w3.org/2000/svg">
<path fill-rule="evenodd" clip-rule="evenodd" d="M8.22888 5.3567H16.2289C19.0573 5.3567 20.4715 5.3567 21.3502 6.23538C22.2289 7.11406 22.2289 8.52827 22.2289 11.3567V13.3567C22.2289 16.1851 22.2289 17.5993 21.3502 18.478C20.4715 19.3567 19.0573 19.3567 16.2289 19.3567H8.22888C5.40045 19.3567 3.98624 19.3567 3.10756 18.478C2.22888 17.5993 2.22888 16.1851 2.22888 13.3567V11.3567C2.22888 8.52827 2.22888 7.11406 3.10756 6.23538C3.98624 5.3567 5.40045 5.3567 8.22888 5.3567ZM6.22888 10.3567C6.78116 10.3567 7.22888 9.90898 7.22888 9.3567C7.22888 8.80442 6.78116 8.3567 6.22888 8.3567C5.6766 8.3567 5.22888 8.80442 5.22888 9.3567C5.22888 9.90898 5.6766 10.3567 6.22888 10.3567ZM6.22888 13.3567C6.78116 13.3567 7.22888 12.909 7.22888 12.3567C7.22888 11.8044 6.78116 11.3567 6.22888 11.3567C5.6766 11.3567 5.22888 11.8044 5.22888 12.3567C5.22888 12.909 5.6766 13.3567 6.22888 13.3567ZM9.22888 13.3567C9.78116 13.3567 10.2289 12.909 10.2289 12.3567C10.2289 11.8044 9.78116 11.3567 9.22888 11.3567C8.6766 11.3567 8.22888 11.8044 8.22888 12.3567C8.22888 12.909 8.6766 13.3567 9.22888 13.3567ZM9.22888 10.3567C9.78116 10.3567 10.2289 9.90898 10.2289 9.3567C10.2289 8.80442 9.78116 8.3567 9.22888 8.3567C8.6766 8.3567 8.22888 8.80442 8.22888 9.3567C8.22888 9.90898 8.6766 10.3567 9.22888 10.3567ZM12.2289 10.3567C12.7812 10.3567 13.2289 9.90898 13.2289 9.3567C13.2289 8.80442 12.7812 8.3567 12.2289 8.3567C11.6766 8.3567 11.2289 8.80442 11.2289 9.3567C11.2289 9.90898 11.6766 10.3567 12.2289 10.3567ZM12.2289 13.3567C12.7812 13.3567 13.2289 12.909 13.2289 12.3567C13.2289 11.8044 12.7812 11.3567 12.2289 11.3567C11.6766 11.3567 11.2289 11.8044 11.2289 12.3567C11.2289 12.909 11.6766 13.3567 12.2289 13.3567ZM15.2289 10.3567C15.7812 10.3567 16.2289 9.90898 16.2289 9.3567C16.2289 8.80442 15.7812 8.3567 15.2289 8.3567C14.6766 8.3567 14.2289 8.80442 14.2289 9.3567C14.2289 9.90898 14.6766 10.3567 15.2289 10.3567ZM15.2289 13.3567C15.7812 13.3567 16.2289 12.909 16.2289 12.3567C16.2289 11.8044 15.7812 11.3567 15.2289 11.3567C14.6766 11.3567 14.2289 11.8044 14.2289 12.3567C14.2289 12.909 14.6766 13.3567 15.2289 13.3567ZM18.2289 10.3567C18.7812 10.3567 19.2289 9.90898 19.2289 9.3567C19.2289 8.80442 18.7812 8.3567 18.2289 8.3567C17.6766 8.3567 17.2289 8.80442 17.2289 9.3567C17.2289 9.90898 17.6766 10.3567 18.2289 10.3567ZM18.2289 13.3567C18.7812 13.3567 19.2289 12.909 19.2289 12.3567C19.2289 11.8044 18.7812 11.3567 18.2289 11.3567C17.6766 11.3567 17.2289 11.8044 17.2289 12.3567C17.2289 12.909 17.6766 13.3567 18.2289 13.3567ZM17.9789 16.3567C17.9789 16.7709 17.6431 17.1067 17.2289 17.1067H7.22888C6.81467 17.1067 6.47888 16.7709 6.47888 16.3567C6.47888 15.9425 6.81467 15.6067 7.22888 15.6067H17.2289C17.6431 15.6067 17.9789 15.9425 17.9789 16.3567Z" fill="#2D2D2D"/>
</svg>
