<?xml version="1.0" encoding="UTF-8" standalone="no"?>
<svg
   width="25"
   height="25"
   viewBox="0 0 25 25"
   fill="none"
   version="1.1"
   id="svg4"
   sodipodi:docname="language.svg"
   inkscape:version="1.4 (86a8ad7, 2024-10-11)"
   xmlns:inkscape="http://www.inkscape.org/namespaces/inkscape"
   xmlns:sodipodi="http://sodipodi.sourceforge.net/DTD/sodipodi-0.dtd"
   xmlns="http://www.w3.org/2000/svg"
   xmlns:svg="http://www.w3.org/2000/svg">
  <defs
     id="defs4" />
  <sodipodi:namedview
     id="namedview4"
     pagecolor="#ffffff"
     bordercolor="#000000"
     borderopacity="0.25"
     inkscape:showpageshadow="2"
     inkscape:pageopacity="0.0"
     inkscape:pagecheckerboard="true"
     inkscape:deskcolor="#d1d1d1"
     inkscape:zoom="22.146584"
     inkscape:cx="6.1409018"
     inkscape:cy="13.839606"
     inkscape:window-width="1920"
     inkscape:window-height="1001"
     inkscape:window-x="-9"
     inkscape:window-y="-9"
     inkscape:window-maximized="1"
     inkscape:current-layer="svg4"
     inkscape:clip-to-page="false"
     labelstyle="default" />
  <g
     id="g4">
    <path
       d="M8.42893 5.35C8.26744 5.08254 8.0979 4.83282 7.92944 4.60544C9.08396 3.76599 10.5049 3.27084 12.0416 3.27084C13.3616 3.27084 14.5963 3.6362 15.65 4.27131C15.6348 4.36043 15.6133 4.46138 15.5835 4.57376C15.4779 4.97287 15.3117 5.35379 15.1704 5.57614C15.1217 5.65281 14.9214 5.84864 14.558 6.11938C14.396 6.24008 14.2161 6.35092 14.0019 6.47895L13.9276 6.52327C13.7401 6.635 13.5255 6.76283 13.3187 6.90457C12.8307 7.23891 12.3225 7.69082 11.9807 8.42159C11.7335 8.95011 11.7505 9.46486 11.8598 9.8777C11.8955 10.0125 11.9151 10.1481 11.9154 10.2674C11.9155 10.3044 11.901 10.3636 11.8182 10.4327C11.7292 10.5071 11.6038 10.552 11.4911 10.5508C10.4141 10.5386 9.56463 9.64659 9.44134 8.22355C9.34764 7.14204 8.90574 6.13966 8.42893 5.35Z"
       fill="#2D2D2D"
       id="path1" />
    <path
       d="M16.6933 14.7797C16.9578 14.777 17.2059 14.7596 17.4385 14.729C16.5609 15.7903 15.3762 16.5883 14.0207 16.9871C13.9742 16.6057 14.0047 16.1474 14.2295 15.7239C14.4214 15.3622 14.9073 15.0905 15.5632 14.9293C15.8645 14.8552 16.151 14.8172 16.3638 14.7981C16.4693 14.7887 16.5541 14.7841 16.6106 14.7818C16.6388 14.7807 16.6597 14.7802 16.6724 14.78L16.6845 14.7798L16.6933 14.7797Z"
       fill="#2D2D2D"
       id="path2" />
    <path
       d="M5.04163 10.2708C5.04163 8.55147 5.66153 6.97688 6.69001 5.75837C6.79119 5.9019 6.8926 6.05581 6.99076 6.21837C7.39219 6.88322 7.70401 7.63451 7.7676 8.36856C7.93837 10.3396 9.24909 12.2055 11.4721 12.2307C12.4339 12.2416 13.5985 11.5187 13.5954 10.2632C13.5947 9.97568 13.5495 9.69552 13.4839 9.44773C13.4523 9.32845 13.4568 9.23103 13.5025 9.13332C13.673 8.76871 13.9247 8.52581 14.2682 8.29047C14.4282 8.18086 14.5945 8.0817 14.7868 7.96698L14.8638 7.92098C15.0791 7.7923 15.3246 7.64328 15.5618 7.46654C15.9066 7.20961 16.3523 6.84878 16.5884 6.47707C16.7754 6.18284 16.9486 5.80554 17.0828 5.41425C18.2957 6.67296 19.0416 8.38479 19.0416 10.2708C19.0416 10.8031 18.9822 11.3216 18.8696 11.8199C18.8022 12.0195 18.7182 12.206 18.5669 12.4023C18.3297 12.7101 17.8547 13.0875 16.6758 13.0998H16.6698L16.6411 13.1003C16.6174 13.1007 16.5848 13.1015 16.5443 13.1031C16.4634 13.1063 16.3503 13.1126 16.2137 13.1249C15.9424 13.1492 15.568 13.1981 15.1622 13.2978C14.404 13.4842 13.2914 13.9076 12.7455 14.9364C12.3147 15.7481 12.2662 16.5814 12.3632 17.2635C12.2566 17.2684 12.1494 17.2708 12.0416 17.2708C8.17564 17.2708 5.04163 14.1368 5.04163 10.2708Z"
       fill="#2D2D2D"
       id="path3" />
    <path
       fill-rule="evenodd"
       clip-rule="evenodd"
       d="M18.0451 1.77065C18.3213 1.46201 18.7955 1.43574 19.1041 1.71199C21.3662 3.73663 22.7916 6.68128 22.7916 9.95784C22.7916 15.7092 18.4028 20.4355 12.7916 20.9704V21.5208H14.0416C14.4558 21.5208 14.7916 21.8566 14.7916 22.2708C14.7916 22.685 14.4558 23.0208 14.0416 23.0208H10.0416C9.62742 23.0208 9.29163 22.685 9.29163 22.2708C9.29163 21.8566 9.62742 21.5208 10.0416 21.5208H11.2916V21.0123C8.19086 20.8918 5.41699 19.4944 3.48278 17.3333C3.20653 17.0247 3.2328 16.5505 3.54144 16.2743C3.85009 15.998 4.32423 16.0243 4.60048 16.333C6.3526 18.2906 8.89646 19.5208 11.7286 19.5208C17.0101 19.5208 21.2916 15.2393 21.2916 9.95784C21.2916 7.12567 20.0614 4.58181 18.1038 2.82969C17.7951 2.55344 17.7688 2.0793 18.0451 1.77065Z"
       fill="#2D2D2D"
       id="path4" />
  </g>
</svg>
