<?xml version="1.0" encoding="UTF-8" standalone="no"?>
<svg
   width="25"
   height="25"
   viewBox="0 0 25 25"
   fill="none"
   version="1.1"
   id="svg1"
   sodipodi:docname="letter.svg"
   inkscape:version="1.4 (86a8ad7, 2024-10-11)"
   xmlns:inkscape="http://www.inkscape.org/namespaces/inkscape"
   xmlns:sodipodi="http://sodipodi.sourceforge.net/DTD/sodipodi-0.dtd"
   xmlns="http://www.w3.org/2000/svg"
   xmlns:svg="http://www.w3.org/2000/svg">
  <defs
     id="defs1" />
  <sodipodi:namedview
     id="namedview1"
     pagecolor="#ffffff"
     bordercolor="#000000"
     borderopacity="0.25"
     inkscape:showpageshadow="2"
     inkscape:pageopacity="0.0"
     inkscape:pagecheckerboard="0"
     inkscape:deskcolor="#d1d1d1"
     inkscape:zoom="31.32"
     inkscape:cx="12.484036"
     inkscape:cy="12.5"
     inkscape:window-width="1920"
     inkscape:window-height="1001"
     inkscape:window-x="-9"
     inkscape:window-y="-9"
     inkscape:window-maximized="1"
     inkscape:current-layer="svg1" />
  <path
     fill-rule="evenodd"
     clip-rule="evenodd"
     d="m 3.671545,5.671565 c -1.17157,1.17158 -1.17157,3.05719 -1.17157,6.82844 0,3.7712 0,5.6569 1.17157,6.8284 1.17158,1.1716 3.05719,1.1716 6.82848,1.1716 h 4 c 3.7712,0 5.6569,0 6.8284,-1.1716 1.1716,-1.1715 1.1716,-3.0572 1.1716,-6.8284 0,-3.77125 0,-5.65686 -1.1716,-6.82844 -1.1715,-1.17157 -3.0572,-1.17157 -6.8284,-1.17157 h -4 c -3.77129,0 -5.6569,0 -6.82848,1.17157 z m 15.40468,2.34829 c 0.2651,0.31821 0.2221,0.79113 -0.0961,1.05631 l -2.1964,1.83044 c -0.8864,0.7386 -1.6048,1.3373 -2.2389,1.7451 -0.6605,0.4248 -1.3037,0.6932 -2.0448,0.6932 -0.7411,0 -1.3843,-0.2684 -2.0449,-0.6932 -0.63403,-0.4078 -1.35244,-1.0065 -2.23879,-1.7451 l -2.1965,-1.83044 c -0.31821,-0.26518 -0.3612,-0.7381 -0.09603,-1.05631 0.26518,-0.31821 0.7381,-0.3612 1.05631,-0.09603 l 2.15889,1.79908 c 0.93292,0.7775 1.58072,1.3155 2.12762,1.6672 0.5293,0.3405 0.8883,0.4548 1.2334,0.4548 0.3451,0 0.7041,-0.1143 1.2334,-0.4548 0.5469,-0.3517 1.1946,-0.8897 2.1276,-1.6672 l 2.1588,-1.79908 c 0.3182,-0.26517 0.7912,-0.22218 1.0564,0.09603 z"
     fill="#2d2d2d"
     id="path1" />
</svg>
