<?xml version="1.0" encoding="UTF-8" standalone="no"?>
<svg
   height="25"
   viewBox="0 0 25 25"
   width="25"
   fill="#2d2d2d"
   version="1.1"
   id="svg1"
   sodipodi:docname="members.svg"
   inkscape:version="1.4 (86a8ad7, 2024-10-11)"
   xmlns:inkscape="http://www.inkscape.org/namespaces/inkscape"
   xmlns:sodipodi="http://sodipodi.sourceforge.net/DTD/sodipodi-0.dtd"
   xmlns="http://www.w3.org/2000/svg"
   xmlns:svg="http://www.w3.org/2000/svg">
  <defs
     id="defs1" />
  <sodipodi:namedview
     id="namedview1"
     pagecolor="#ffffff"
     bordercolor="#000000"
     borderopacity="0.25"
     inkscape:showpageshadow="2"
     inkscape:pageopacity="0.0"
     inkscape:pagecheckerboard="0"
     inkscape:deskcolor="#d1d1d1"
     inkscape:zoom="31.32"
     inkscape:cx="12.484036"
     inkscape:cy="12.5"
     inkscape:window-width="1920"
     inkscape:window-height="1001"
     inkscape:window-x="-9"
     inkscape:window-y="-9"
     inkscape:window-maximized="1"
     inkscape:current-layer="svg1" />
  <path
     d="m 2.5206,17.217535 q 0,-0.771134 0.3969085,-1.417529 0.3969086,-0.646392 1.0546421,-0.986597 1.4061887,-0.703098 2.8577365,-1.054644 1.451548,-0.351545 2.9484583,-0.351545 1.4969086,0 2.9484606,0.351545 1.451547,0.351546 2.857736,1.054644 0.657734,0.340205 1.054643,0.986597 0.396905,0.646395 0.396905,1.417529 v 0.725773 q 0,0.748459 -0.532989,1.281447 -0.532992,0.532992 -1.281446,0.532992 H 4.3350385 q -0.7484548,0 -1.2814466,-0.532992 Q 2.5206,18.691767 2.5206,17.943308 Z m 15.830958,2.540212 q 0.249483,-0.408251 0.374225,-0.873197 0.124746,-0.464951 0.124746,-0.941242 V 17.03609 q 0,-0.997939 -0.555672,-1.916497 -0.555671,-0.91856 -1.576292,-1.57629 1.156704,0.136082 2.177323,0.464947 1.020622,0.328867 1.90516,0.805159 0.816496,0.453608 1.247423,1.00928 0.430929,0.555671 0.430929,1.213401 v 0.907218 q 0,0.748459 -0.532991,1.281447 -0.53299,0.532992 -1.281446,0.532992 z M 9.7783454,12.500002 q -1.4969104,0 -2.5628905,-1.065982 -1.0659808,-1.065983 -1.0659808,-2.5628927 0,-1.4969095 1.0659808,-2.5628905 1.0659801,-1.0659799 2.5628905,-1.0659799 1.4969086,0 2.5628936,1.0659799 1.06598,1.065981 1.06598,2.5628905 0,1.4969097 -1.06598,2.5628927 -1.065985,1.065982 -2.5628936,1.065982 z M 18.850529,8.8711273 q 0,1.4969097 -1.065983,2.5628927 -1.065981,1.065982 -2.562891,1.065982 -0.249484,0 -0.635051,-0.0567 -0.385568,-0.05671 -0.635054,-0.124746 0.612371,-0.725772 0.941238,-1.610312 0.328867,-0.8845367 0.328867,-1.8371171 0,-0.952576 -0.328867,-1.8371147 -0.328867,-0.8845379 -0.941238,-1.6103137 0.317525,-0.1134005 0.635054,-0.1474208 0.317524,-0.034025 0.635051,-0.034025 1.49691,0 2.562891,1.0659801 1.065983,1.0659809 1.065983,2.5628904 z"
     id="path1"
     style="stroke-width:0.0226805" />
</svg>
