<?xml version="1.0" encoding="UTF-8" standalone="no"?>
<svg
   width="25"
   height="25"
   viewBox="0 0 25 25"
   fill="none"
   version="1.1"
   id="svg2"
   sodipodi:docname="microphone.svg"
   inkscape:version="1.4 (86a8ad7, 2024-10-11)"
   xmlns:inkscape="http://www.inkscape.org/namespaces/inkscape"
   xmlns:sodipodi="http://sodipodi.sourceforge.net/DTD/sodipodi-0.dtd"
   xmlns="http://www.w3.org/2000/svg"
   xmlns:svg="http://www.w3.org/2000/svg">
  <defs
     id="defs2" />
  <sodipodi:namedview
     id="namedview2"
     pagecolor="#ffffff"
     bordercolor="#000000"
     borderopacity="0.25"
     inkscape:showpageshadow="2"
     inkscape:pageopacity="0.0"
     inkscape:pagecheckerboard="0"
     inkscape:deskcolor="#d1d1d1"
     inkscape:zoom="31.32"
     inkscape:cx="12.5"
     inkscape:cy="12.5"
     inkscape:window-width="1920"
     inkscape:window-height="1001"
     inkscape:window-x="-9"
     inkscape:window-y="-9"
     inkscape:window-maximized="1"
     inkscape:current-layer="svg2" />
  <g
     id="g2"
     transform="translate(0.27111,-0.1067)">
    <path
       d="m 9.97888,8.1067 c 0,-0.41421 -0.33579,-0.75 -0.75,-0.75 H 8.04485 6.52735 c 0.36751,-2.82127 2.78008,-5 5.70155,-5 2.9214,0 5.334,2.17873 5.7015,5 h -1.5175 -2.684 c -0.4142,0 -0.75,0.33579 -0.75,0.75 0,0.41421 0.3358,0.75 0.75,0.75 h 2.75 1.5 v 1.5 h -1.5 -2.75 c -0.4142,0 -0.75,0.3358 -0.75,0.75 0,0.4142 0.3358,0.75 0.75,0.75 h 2.684 1.5175 c -0.3675,2.8213 -2.7801,5 -5.7015,5 -2.92147,0 -5.33404,-2.1787 -5.70155,-5 h 1.5175 1.18403 c 0.41421,0 0.75,-0.3358 0.75,-0.75 0,-0.4142 -0.33579,-0.75 -0.75,-0.75 h -1.25 -1.5 v -1.5 h 1.5 1.25 c 0.41421,0 0.75,-0.33579 0.75,-0.75 z"
       fill="#2d2d2d"
       id="path1" />
    <path
       fill-rule="evenodd"
       clip-rule="evenodd"
       d="m 4.22888,9.3567 c 0.41421,0 0.75,0.33579 0.75,0.75 v 1 c 0,4.0041 3.24594,7.25 7.25002,7.25 4.0041,0 7.25,-3.2459 7.25,-7.25 v -1 c 0,-0.41421 0.3358,-0.75 0.75,-0.75 0.4142,0 0.75,0.33579 0.75,0.75 v 1 c 0,4.5798 -3.5186,8.3379 -8,8.7183 v 2.2817 c 0,0.4142 -0.3358,0.75 -0.75,0.75 -0.4142,0 -0.75,-0.3358 -0.75,-0.75 V 19.825 C 6.99748,19.4446 3.47888,15.6865 3.47888,11.1067 v -1 c 0,-0.41421 0.33579,-0.75 0.75,-0.75 z"
       fill="#2d2d2d"
       id="path2" />
  </g>
</svg>
