<?xml version="1.0" encoding="UTF-8" standalone="no"?>
<svg
   width="25"
   height="25"
   viewBox="0 0 25 25"
   fill="none"
   version="1.1"
   id="svg3"
   sodipodi:docname="money.svg"
   inkscape:version="1.4 (86a8ad7, 2024-10-11)"
   xmlns:inkscape="http://www.inkscape.org/namespaces/inkscape"
   xmlns:sodipodi="http://sodipodi.sourceforge.net/DTD/sodipodi-0.dtd"
   xmlns="http://www.w3.org/2000/svg"
   xmlns:svg="http://www.w3.org/2000/svg">
  <defs
     id="defs3" />
  <sodipodi:namedview
     id="namedview3"
     pagecolor="#ffffff"
     bordercolor="#000000"
     borderopacity="0.25"
     inkscape:showpageshadow="2"
     inkscape:pageopacity="0.0"
     inkscape:pagecheckerboard="0"
     inkscape:deskcolor="#d1d1d1"
     inkscape:zoom="31.32"
     inkscape:cx="12.484036"
     inkscape:cy="12.5"
     inkscape:window-width="1920"
     inkscape:window-height="1001"
     inkscape:window-x="-9"
     inkscape:window-y="-9"
     inkscape:window-maximized="1"
     inkscape:current-layer="svg3" />
  <g
     id="g3"
     transform="translate(0.458385,-0.27082)">
    <path
       d="m 20.983,8.45965 c 0.5801,0.57325 0.8296,1.29505 0.9463,2.15225 0.1123,0.8257 0.1123,1.8755 0.1123,3.178 v 0.1045 c 0,1.3025 0,2.3524 -0.1123,3.178 -0.1167,0.8573 -0.3662,1.5791 -0.9463,2.1523 -0.5802,0.5733 -1.3107,0.8199 -2.1782,0.9351 -0.8356,0.111 -1.8981,0.111 -3.2162,0.111 h -4.925 c -1.31816,0 -2.38062,0 -3.21623,-0.111 C 6.57981,20.0446 5.84934,19.798 5.26919,19.2247 4.91723,18.877 4.68692,18.4745 4.53418,18.0203 c 0.87146,0.1079 1.94959,0.1078 3.19526,0.1078 H 12.739 c 1.2816,0 2.3859,10e-5 3.2702,-0.1174 0.9478,-0.1259 1.8562,-0.4098 2.5931,-1.1379 0.7368,-0.7281 1.0241,-1.6258 1.1516,-2.5622 0.1189,-0.8738 0.1188,-1.965 0.1187,-3.2314 v -0.1881 c 10e-5,-1.23114 10e-5,-2.2967 -0.1091,-3.15792 0.4599,0.15094 0.8674,0.37854 1.2195,0.72647 z"
       fill="#2d2d2d"
       id="path1" />
    <path
       d="m 10.2342,9.31849 c -0.93154,0 -1.68671,0.74621 -1.68671,1.66661 0,0.9205 0.75517,1.6667 1.68671,1.6667 0.9316,0 1.6867,-0.7462 1.6867,-1.6667 0,-0.9204 -0.7551,-1.66661 -1.6867,-1.66661 z"
       fill="#2d2d2d"
       id="path2" />
    <path
       fill-rule="evenodd"
       clip-rule="evenodd"
       d="M 2.88854,6.10768 C 2.04163,6.94453 2.04163,8.29141 2.04163,10.9851 c 0,2.6938 0,4.0407 0.84691,4.8775 0.8469,0.8369 2.20997,0.8369 4.93612,0.8369 h 4.81914 c 2.7262,0 4.0892,0 4.9362,-0.8369 0.8469,-0.8368 0.8469,-2.1837 0.8469,-4.8775 0,-2.69369 0,-4.04057 -0.8469,-4.87742 C 16.733,5.27084 15.37,5.27084 12.6438,5.27084 H 7.82466 c -2.72615,0 -4.08922,0 -4.93612,0.83684 z m 4.21324,4.87742 c 0,-1.70939 1.40246,-3.09519 3.13242,-3.09519 1.73,0 3.1325,1.3858 3.1325,3.09519 0,1.7095 -1.4025,3.0953 -3.1325,3.0953 -1.72996,0 -3.13242,-1.3858 -3.13242,-3.0953 z m 8.43352,2.6191 c -0.3992,0 -0.7228,-0.3198 -0.7228,-0.7143 V 9.0804 c 0,-0.3945 0.3236,-0.7143 0.7228,-0.7143 0.3993,0 0.7229,0.3198 0.7229,0.7143 v 3.8095 c 0,0.3945 -0.3236,0.7143 -0.7229,0.7143 z M 4.21027,12.8899 c 0,0.3945 0.32364,0.7143 0.72288,0.7143 0.39923,0 0.72287,-0.3198 0.72287,-0.7143 V 9.0804 c 0,-0.3945 -0.32364,-0.7143 -0.72287,-0.7143 -0.39924,0 -0.72288,0.3198 -0.72288,0.7143 z"
       fill="#2d2d2d"
       id="path3" />
  </g>
</svg>
