<?xml version="1.0" encoding="UTF-8" standalone="no"?>
<svg
   fill="none"
   aria-hidden="true"
   class="ac86f68ab746d5ff-icon"
   width="24"
   height="24"
   viewBox="0 0 24 24"
   version="1.1"
   id="svg4"
   sodipodi:docname="nitro.svg"
   inkscape:version="1.2.2 (b0a8486541, 2022-12-01)"
   xmlns:inkscape="http://www.inkscape.org/namespaces/inkscape"
   xmlns:sodipodi="http://sodipodi.sourceforge.net/DTD/sodipodi-0.dtd"
   xmlns="http://www.w3.org/2000/svg"
   xmlns:svg="http://www.w3.org/2000/svg">
  <defs
     id="defs8" />
  <sodipodi:namedview
     id="namedview6"
     pagecolor="#505050"
     bordercolor="#eeeeee"
     borderopacity="1"
     inkscape:showpageshadow="0"
     inkscape:pageopacity="0"
     inkscape:pagecheckerboard="0"
     inkscape:deskcolor="#505050"
     showgrid="false"
     inkscape:zoom="34.375"
     inkscape:cx="10.487273"
     inkscape:cy="12.029091"
     inkscape:window-width="1920"
     inkscape:window-height="1017"
     inkscape:window-x="0"
     inkscape:window-y="0"
     inkscape:window-maximized="1"
     inkscape:current-layer="svg4" />
  <path
     fill="currentColor"
     d="M16.23 12c0 1.29-.95 2.25-2.22 2.25A2.18 2.18 0 0 1 11.8 12c0-1.29.95-2.25 2.22-2.25s2.22.96 2.22 2.25ZM23 12c0 5.01-4 9-8.99 9a8.93 8.93 0 0 1-8.75-6.9H3.34l-.9-4.2H5.3c.26-.96.68-1.89 1.21-2.7H1.89L1 3h12.74C19.13 3 23 6.99 23 12m-4.26 0c0-2.67-2.1-4.8-4.73-4.8A4.74 4.74 0 0 0 9.28 12c0 2.67 2.1 4.8 4.73 4.8a4.74 4.74 0 0 0 4.73-4.8"
     id="path2"
     style="fill:#2e2e2e;fill-opacity:1" />
</svg>
