<?xml version="1.0" encoding="UTF-8" standalone="no"?>
<svg
   width="25"
   height="25"
   viewBox="0 0 25 25"
   fill="none"
   version="1.1"
   id="svg1"
   sodipodi:docname="notebook.svg"
   inkscape:version="1.4 (86a8ad7, 2024-10-11)"
   xmlns:inkscape="http://www.inkscape.org/namespaces/inkscape"
   xmlns:sodipodi="http://sodipodi.sourceforge.net/DTD/sodipodi-0.dtd"
   xmlns="http://www.w3.org/2000/svg"
   xmlns:svg="http://www.w3.org/2000/svg">
  <defs
     id="defs1" />
  <sodipodi:namedview
     id="namedview1"
     pagecolor="#ffffff"
     bordercolor="#000000"
     borderopacity="0.25"
     inkscape:showpageshadow="2"
     inkscape:pageopacity="0.0"
     inkscape:pagecheckerboard="0"
     inkscape:deskcolor="#d1d1d1"
     inkscape:zoom="31.32"
     inkscape:cx="12.5"
     inkscape:cy="12.5"
     inkscape:window-width="1920"
     inkscape:window-height="1001"
     inkscape:window-x="-9"
     inkscape:window-y="-9"
     inkscape:window-maximized="1"
     inkscape:current-layer="svg1" />
  <path
     fill-rule="evenodd"
     clip-rule="evenodd"
     d="M 10.12499,2.5127 V 22.5 h 6.25002 c 2.8284,0 4.2426,0 5.1213,-0.8787 0.8787,-0.8787 0.8787,-2.2929 0.8787,-5.1213 v -8 c 0,-2.82843 0,-4.24264 -0.8787,-5.12132 C 20.61761,2.5 19.20341,2.5 16.37501,2.5 H 10.37499 Z M 12.12501,7 c 0,-0.41421 0.3358,-0.75 0.75,-0.75 h 5 c 0.4142,0 0.75,0.33579 0.75,0.75 0,0.41421 -0.3358,0.75 -0.75,0.75 h -5 c -0.4142,0 -0.75,-0.33579 -0.75,-0.75 z m 0,3.5 c 0,-0.41421 0.3358,-0.75 0.75,-0.75 h 5 c 0.4142,0 0.75,0.33579 0.75,0.75 0,0.4142 -0.3358,0.75 -0.75,0.75 h -5 c -0.4142,0 -0.75,-0.3358 -0.75,-0.75 z M 4.37569,7.75 C 4.38252,5.41427 4.45635,4.176 5.25367,3.37868 5.92865,2.7037 6.91966,2.54722 8.62499,2.51095 V 22.4891 C 6.91966,22.4528 5.92865,22.2963 5.25367,21.6213 4.45635,20.824 4.38252,19.5857 4.37569,17.25 h 0.9993 c 0.41421,0 0.75,-0.3358 0.75,-0.75 0,-0.4142 -0.33579,-0.75 -0.75,-0.75 h -1 v -2.5 h 1 c 0.41421,0 0.75,-0.3358 0.75,-0.75 0,-0.4142 -0.33579,-0.75 -0.75,-0.75 h -1 v -2.5 h 1 c 0.41421,0 0.75,-0.33579 0.75,-0.75 0,-0.41421 -0.33579,-0.75 -0.75,-0.75 z m 0,0 h -1.0007 c -0.41421,0 -0.75,0.33579 -0.75,0.75 0,0.41421 0.33579,0.75 0.75,0.75 h 1 V 8.5 c 0,-0.26189 0,-0.51166 7e-4,-0.75 z m -7e-4,5.5 h -1 c -0.41421,0 -0.75,-0.3358 -0.75,-0.75 0,-0.4142 0.33579,-0.75 0.75,-0.75 h 1 z m 0,2.5 h -1 c -0.41421,0 -0.75,0.3358 -0.75,0.75 0,0.4142 0.33579,0.75 0.75,0.75 h 1.0007 c -7e-4,-0.2383 -7e-4,-0.4881 -7e-4,-0.75 z"
     fill="#2d2d2d"
     id="path1" />
</svg>
