<svg width="25" height="25" viewBox="0 0 25 25" fill="none" xmlns="http://www.w3.org/2000/svg">
<path fill-rule="evenodd" clip-rule="evenodd" d="M8.97888 2.3694V22.3567H15.2289C18.0573 22.3567 19.4715 22.3567 20.3502 21.478C21.2289 20.5993 21.2289 19.1851 21.2289 16.3567V8.3567C21.2289 5.52827 21.2289 4.11406 20.3502 3.23538C19.4715 2.3567 18.0573 2.3567 15.2289 2.3567H9.22888L8.97888 2.3694ZM10.9789 6.8567C10.9789 6.44249 11.3147 6.1067 11.7289 6.1067H16.7289C17.1431 6.1067 17.4789 6.44249 17.4789 6.8567C17.4789 7.27091 17.1431 7.6067 16.7289 7.6067H11.7289C11.3147 7.6067 10.9789 7.27091 10.9789 6.8567ZM10.9789 10.3567C10.9789 9.94249 11.3147 9.6067 11.7289 9.6067H16.7289C17.1431 9.6067 17.4789 9.94249 17.4789 10.3567C17.4789 10.7709 17.1431 11.1067 16.7289 11.1067H11.7289C11.3147 11.1067 10.9789 10.7709 10.9789 10.3567ZM3.22958 7.6067C3.23641 5.27097 3.31024 4.0327 4.10756 3.23538C4.78254 2.5604 5.77355 2.40392 7.47888 2.36765V22.3458C5.77355 22.3095 4.78254 22.153 4.10756 21.478C3.31024 20.6807 3.23641 19.4424 3.22958 17.1067H4.22888C4.64309 17.1067 4.97888 16.7709 4.97888 16.3567C4.97888 15.9425 4.64309 15.6067 4.22888 15.6067H3.22888V13.1067H4.22888C4.64309 13.1067 4.97888 12.7709 4.97888 12.3567C4.97888 11.9425 4.64309 11.6067 4.22888 11.6067H3.22888V9.1067H4.22888C4.64309 9.1067 4.97888 8.77091 4.97888 8.3567C4.97888 7.94249 4.64309 7.6067 4.22888 7.6067H3.22958ZM3.22958 7.6067H2.22888C1.81467 7.6067 1.47888 7.94249 1.47888 8.3567C1.47888 8.77091 1.81467 9.1067 2.22888 9.1067H3.22888V8.3567C3.22888 8.09481 3.22888 7.84504 3.22958 7.6067ZM3.22888 13.1067H2.22888C1.81467 13.1067 1.47888 12.7709 1.47888 12.3567C1.47888 11.9425 1.81467 11.6067 2.22888 11.6067H3.22888V13.1067ZM3.22888 15.6067H2.22888C1.81467 15.6067 1.47888 15.9425 1.47888 16.3567C1.47888 16.7709 1.81467 17.1067 2.22888 17.1067H3.22958C3.22888 16.8684 3.22888 16.6186 3.22888 16.3567V15.6067Z" fill="#2D2D2D"/>
</svg>
