<?xml version="1.0" encoding="UTF-8" standalone="no"?>
<svg
   height="25"
   viewBox="0 0 25 25"
   width="25"
   fill="#2d2d2d"
   version="1.1"
   id="svg1"
   sodipodi:docname="overlay.svg"
   inkscape:version="1.3.2 (091e20e, 2023-11-25, custom)"
   xmlns:inkscape="http://www.inkscape.org/namespaces/inkscape"
   xmlns:sodipodi="http://sodipodi.sourceforge.net/DTD/sodipodi-0.dtd"
   xmlns="http://www.w3.org/2000/svg"
   xmlns:svg="http://www.w3.org/2000/svg">
  <sodipodi:namedview
     id="namedview1"
     pagecolor="#ffffff"
     bordercolor="#000000"
     borderopacity="0.25"
     inkscape:showpageshadow="2"
     inkscape:pageopacity="0.0"
     inkscape:pagecheckerboard="0"
     inkscape:deskcolor="#d1d1d1"
     inkscape:zoom="11.989583"
     inkscape:cx="23.728932"
     inkscape:cy="10.884449"
     inkscape:window-width="2560"
     inkscape:window-height="1364"
     inkscape:window-x="2551"
     inkscape:window-y="-9"
     inkscape:window-maximized="1"
     inkscape:current-layer="svg1" />
  <defs
     id="defs1" />
  <path
     d="m 3.6147394,16.413001 q -0.4869017,-0.371634 -0.479836,-0.973258 0.00705,-0.601624 0.5004952,-0.973258 0.3379224,-0.25012 0.7468009,-0.253354 0.4086021,-0.0035 0.7465294,0.253354 l 7.3663201,5.707704 7.379369,-5.707704 q 0.337927,-0.25012 0.743269,-0.253354 0.405615,-0.0035 0.743534,0.246839 0.49343,0.371634 0.503762,0.976525 0.01033,0.604886 -0.476575,0.97652 l -7.379097,5.735163 q -0.682641,0.52061 -1.517523,0.523872 -0.834882,0.0035 -1.510728,-0.523872 z M 10.98106,16.279521 4.8582248,11.510823 Q 3.8982866,10.767286 3.8982866,9.5640359 q 0,-1.203258 0.9599382,-1.9467911 L 10.98106,2.848542 q 0.682367,-0.520615 1.513989,-0.520615 0.831621,0 1.514262,0.520615 l 6.122563,4.7686983 q 0.959938,0.7435332 0.959938,1.9467912 0,1.2032505 -0.959938,1.9467865 l -6.122563,4.768699 q -0.682641,0.520611 -1.514262,0.520611 -0.831622,0 -1.513989,-0.520607 z"
     id="path1"
     style="stroke-width:0.027186" />
</svg>
