<?xml version="1.0" encoding="UTF-8" standalone="no"?>
<svg
   width="25"
   height="25"
   viewBox="0 0 25 25"
   fill="none"
   version="1.1"
   id="svg2"
   sodipodi:docname="plate.svg"
   inkscape:version="1.4 (86a8ad7, 2024-10-11)"
   xmlns:inkscape="http://www.inkscape.org/namespaces/inkscape"
   xmlns:sodipodi="http://sodipodi.sourceforge.net/DTD/sodipodi-0.dtd"
   xmlns="http://www.w3.org/2000/svg"
   xmlns:svg="http://www.w3.org/2000/svg">
  <defs
     id="defs2" />
  <sodipodi:namedview
     id="namedview2"
     pagecolor="#ffffff"
     bordercolor="#000000"
     borderopacity="0.25"
     inkscape:showpageshadow="2"
     inkscape:pageopacity="0.0"
     inkscape:pagecheckerboard="0"
     inkscape:deskcolor="#d1d1d1"
     inkscape:zoom="15.66"
     inkscape:cx="-0.19157088"
     inkscape:cy="12.994891"
     inkscape:window-width="1920"
     inkscape:window-height="1001"
     inkscape:window-x="-9"
     inkscape:window-y="-9"
     inkscape:window-maximized="1"
     inkscape:current-layer="svg2" />
  <g
     id="g2"
     transform="translate(0.45838508,0.72913)">
    <path
       d="m 12.791615,3.27084 c 0,-0.41421 -0.3358,-0.75 -0.75,-0.75 -0.4142,0 -0.75,0.33579 -0.75,0.75 v 2 c 0,0.41421 0.3358,0.75 0.75,0.75 0.4142,0 0.75,-0.33579 0.75,-0.75 z"
       fill="#2d2d2d"
       id="path1" />
    <path
       fill-rule="evenodd"
       clip-rule="evenodd"
       d="m 22.7916,12.3273 c 0,1.8378 0,3.2934 -0.1531,4.4326 -0.1577,1.1724 -0.4898,2.1214 -1.2381,2.8697 -0.7484,0.7484 -1.6974,1.0805 -2.8698,1.2382 -1.1392,0.1531 -2.5948,0.1531 -4.4325,0.1531 H 9.98511 c -1.83771,0 -3.29331,0 -4.4325,-0.1531 C 4.38019,20.7101 3.43124,20.378 2.68287,19.6296 1.93451,18.8813 1.60239,17.9323 1.44477,16.7599 1.2916,15.6207 1.29162,14.1651 1.29163,12.3273 v -0.284 c 2e-5,-0.2196 1.1e-4,-0.4337 5.3e-4,-0.6422 C 1.29295,11.0174 1.2949,10.6522 1.29969,10.3048 1.31315,9.32956 1.34904,8.49399 1.44477,7.78199 1.60239,6.60956 1.93451,5.66061 2.68287,4.91225 3.43124,4.16389 4.38019,3.83177 5.55261,3.67414 6.26905,3.57782 7.11063,3.54208 8.09369,3.52882 8.25893,3.52659 8.51632,3.52495 8.79022,3.52375 9.34303,3.52133 9.79163,3.96956 9.79163,4.52238 v 0.74853 c 0,1.24264 1.00737,2.25 2.24997,2.25 1.2426,0 2.25,-1.00736 2.25,-2.25 v -0.7498 c 0,-0.55232 0.448,-1.00093 1.0003,-0.99832 1.2888,0.0061 2.3583,0.03298 3.2387,0.15135 1.1724,0.15763 2.1214,0.48975 2.8698,1.23811 0.7483,0.74836 1.0804,1.69731 1.2381,2.86974 0.1531,1.1392 0.1531,2.59471 0.1531,4.43251 z M 8.04163,10.0209 c -0.41421,0 -0.75,0.3358 -0.75,0.75 0,0.4142 0.33579,0.75 0.75,0.75 h 7.99997 c 0.4142,0 0.75,-0.3358 0.75,-0.75 0,-0.4142 -0.3358,-0.75 -0.75,-0.75 z m 0,3.5 c -0.41421,0 -0.75,0.3358 -0.75,0.75 0,0.4142 0.33579,0.75 0.75,0.75 h 5.49997 c 0.4142,0 0.75,-0.3358 0.75,-0.75 0,-0.4142 -0.3358,-0.75 -0.75,-0.75 z"
       fill="#2d2d2d"
       id="path2" />
  </g>
</svg>
