<?xml version="1.0" encoding="UTF-8" standalone="no"?>
<svg
   width="25"
   height="25"
   viewBox="0 0 25 25"
   fill="none"
   version="1.1"
   id="svg4"
   sodipodi:docname="plugins.svg"
   inkscape:version="1.4 (86a8ad7, 2024-10-11)"
   xmlns:inkscape="http://www.inkscape.org/namespaces/inkscape"
   xmlns:sodipodi="http://sodipodi.sourceforge.net/DTD/sodipodi-0.dtd"
   xmlns="http://www.w3.org/2000/svg"
   xmlns:svg="http://www.w3.org/2000/svg">
  <defs
     id="defs4" />
  <sodipodi:namedview
     id="namedview4"
     pagecolor="#ffffff"
     bordercolor="#000000"
     borderopacity="0.25"
     inkscape:showpageshadow="2"
     inkscape:pageopacity="0.0"
     inkscape:pagecheckerboard="0"
     inkscape:deskcolor="#d1d1d1"
     inkscape:zoom="31.32"
     inkscape:cx="12.5"
     inkscape:cy="12.5"
     inkscape:window-width="1920"
     inkscape:window-height="1001"
     inkscape:window-x="-9"
     inkscape:window-y="-9"
     inkscape:window-maximized="1"
     inkscape:current-layer="svg4" />
  <g
     id="g4"
     transform="translate(0.27111,0.1433)">
    <path
       fill-rule="evenodd"
       clip-rule="evenodd"
       d="m 2.22888,6.99085 c 0,-2.55937 2.07478,-4.63415 4.63415,-4.63415 2.55936,0 4.63417,2.07478 4.63417,4.63415 0,2.55936 -2.07481,4.63415 -4.63417,4.63415 -2.55937,0 -4.63415,-2.07479 -4.63415,-4.63415 z"
       fill="#2d2d2d"
       id="path1" />
    <path
       fill-rule="evenodd"
       clip-rule="evenodd"
       d="m 12.9606,17.7226 c 0,-2.5594 2.0748,-4.6342 4.6342,-4.6342 2.5593,0 4.6341,2.0748 4.6341,4.6342 0,2.5593 -2.0748,4.6341 -4.6341,4.6341 -2.5594,0 -4.6342,-2.0748 -4.6342,-4.6341 z"
       fill="#2d2d2d"
       id="path2" />
    <path
       d="m 2.22888,17.8567 c 0,-2.1213 0,-3.182 0.65901,-3.841 0.65901,-0.659 1.71967,-0.659 3.84099,-0.659 2.12132,0 3.18198,0 3.84102,0.659 0.659,0.659 0.659,1.7197 0.659,3.841 0,2.1213 0,3.182 -0.659,3.841 -0.65904,0.659 -1.7197,0.659 -3.84102,0.659 -2.12132,0 -3.18198,0 -3.84099,-0.659 -0.65901,-0.659 -0.65901,-1.7197 -0.65901,-3.841 z"
       fill="#2d2d2d"
       id="path3" />
    <path
       d="m 13.2289,6.8567 c 0,-2.12132 0,-3.18198 0.659,-3.84099 0.659,-0.65901 1.7197,-0.65901 3.841,-0.65901 2.1213,0 3.182,0 3.841,0.65901 0.659,0.65901 0.659,1.71967 0.659,3.84099 0,2.12132 0,3.182 -0.659,3.841 -0.659,0.659 -1.7197,0.659 -3.841,0.659 -2.1213,0 -3.182,0 -3.841,-0.659 -0.659,-0.659 -0.659,-1.71968 -0.659,-3.841 z"
       fill="#2d2d2d"
       id="path4" />
  </g>
</svg>
