<svg width="25" height="25" viewBox="0 0 25 25" fill="none" xmlns="http://www.w3.org/2000/svg">
<path fill-rule="evenodd" clip-rule="evenodd" d="M3.6064 5.43911C3.22888 5.97698 3.22888 7.57578 3.22888 10.7734V12.3481C3.22888 17.9861 7.46784 20.7222 10.1274 21.884C10.8489 22.1991 11.2096 22.3567 12.2289 22.3567C13.2482 22.3567 13.6089 22.1991 14.3303 21.884C16.9899 20.7222 21.2289 17.9861 21.2289 12.3481V10.7734C21.2289 7.57578 21.2289 5.97698 20.8514 5.43911C20.4739 4.90124 18.9706 4.38666 15.964 3.35749L15.3912 3.16142C13.8239 2.62494 13.0403 2.3567 12.2289 2.3567C11.4175 2.3567 10.6339 2.62494 9.0666 3.16142L8.49379 3.35749C5.4872 4.38666 3.98391 4.90124 3.6064 5.43911ZM13.7289 15.3567C13.7289 15.909 13.2812 16.3567 12.7289 16.3567H11.7289C11.1766 16.3567 10.7289 15.909 10.7289 15.3567V13.9554C9.83218 13.4366 9.22888 12.4671 9.22888 11.3567C9.22888 9.69985 10.572 8.3567 12.2289 8.3567C13.8858 8.3567 15.2289 9.69985 15.2289 11.3567C15.2289 12.4671 14.6256 13.4366 13.7289 13.9554V15.3567Z" fill="#2D2D2D"/>
</svg>
