<svg width="25" height="25" viewBox="0 0 25 25" fill="none" xmlns="http://www.w3.org/2000/svg">
<path fill-rule="evenodd" clip-rule="evenodd" d="M10.2289 4.3567H14.2289C18.0001 4.3567 19.8858 4.3567 21.0573 5.52827C22.2289 6.69985 22.2289 8.58546 22.2289 12.3567C22.2289 16.1279 22.2289 18.0136 21.0573 19.1851C19.8858 20.3567 18.0001 20.3567 14.2289 20.3567H10.2289C6.45764 20.3567 4.57203 20.3567 3.40045 19.1851C2.22888 18.0136 2.22888 16.1279 2.22888 12.3567C2.22888 8.58546 2.22888 6.69985 3.40045 5.52827C4.57203 4.3567 6.45764 4.3567 10.2289 4.3567ZM13.4789 9.3567C13.4789 8.94249 13.8147 8.6067 14.2289 8.6067H19.2289C19.6431 8.6067 19.9789 8.94249 19.9789 9.3567C19.9789 9.77091 19.6431 10.1067 19.2289 10.1067H14.2289C13.8147 10.1067 13.4789 9.77091 13.4789 9.3567ZM14.4789 12.3567C14.4789 11.9425 14.8147 11.6067 15.2289 11.6067H19.2289C19.6431 11.6067 19.9789 11.9425 19.9789 12.3567C19.9789 12.7709 19.6431 13.1067 19.2289 13.1067H15.2289C14.8147 13.1067 14.4789 12.7709 14.4789 12.3567ZM15.4789 15.3567C15.4789 14.9425 15.8147 14.6067 16.2289 14.6067H19.2289C19.6431 14.6067 19.9789 14.9425 19.9789 15.3567C19.9789 15.7709 19.6431 16.1067 19.2289 16.1067H16.2289C15.8147 16.1067 15.4789 15.7709 15.4789 15.3567ZM11.2289 9.3567C11.2289 10.4613 10.3335 11.3567 9.22888 11.3567C8.12431 11.3567 7.22888 10.4613 7.22888 9.3567C7.22888 8.25213 8.12431 7.3567 9.22888 7.3567C10.3335 7.3567 11.2289 8.25213 11.2289 9.3567ZM9.22888 17.3567C13.2289 17.3567 13.2289 16.4613 13.2289 15.3567C13.2289 14.2521 11.438 13.3567 9.22888 13.3567C7.01974 13.3567 5.22888 14.2521 5.22888 15.3567C5.22888 16.4613 5.22888 17.3567 9.22888 17.3567Z" fill="#2D2D2D"/>
</svg>
