<?xml version="1.0" encoding="UTF-8" standalone="no"?>
<svg
   width="25"
   height="25"
   viewBox="0 0 25 25"
   fill="none"
   version="1.1"
   id="svg1"
   sodipodi:docname="profile.svg"
   inkscape:version="1.4 (86a8ad7, 2024-10-11)"
   xmlns:inkscape="http://www.inkscape.org/namespaces/inkscape"
   xmlns:sodipodi="http://sodipodi.sourceforge.net/DTD/sodipodi-0.dtd"
   xmlns="http://www.w3.org/2000/svg"
   xmlns:svg="http://www.w3.org/2000/svg">
  <defs
     id="defs1" />
  <sodipodi:namedview
     id="namedview1"
     pagecolor="#ffffff"
     bordercolor="#000000"
     borderopacity="0.25"
     inkscape:showpageshadow="2"
     inkscape:pageopacity="0.0"
     inkscape:pagecheckerboard="0"
     inkscape:deskcolor="#d1d1d1"
     inkscape:zoom="31.32"
     inkscape:cx="12.5"
     inkscape:cy="12.5"
     inkscape:window-width="1920"
     inkscape:window-height="1001"
     inkscape:window-x="-9"
     inkscape:window-y="-9"
     inkscape:window-maximized="1"
     inkscape:current-layer="svg1" />
  <path
     fill-rule="evenodd"
     clip-rule="evenodd"
     d="m 10.50001,4.5 h 4 c 3.7712,0 5.6569,0 6.8284,1.17157 1.1716,1.17158 1.1716,3.05719 1.1716,6.82843 0,3.7712 0,5.6569 -1.1716,6.8284 C 20.15691,20.5 18.27121,20.5 14.50001,20.5 h -4 c -3.77126,0 -5.65687,0 -6.82845,-1.1716 C 2.49999,18.1569 2.49999,16.2712 2.49999,12.5 c 0,-3.77124 0,-5.65685 1.17157,-6.82843 C 4.84314,4.5 6.72875,4.5 10.50001,4.5 Z m 3.25,5 c 0,-0.41421 0.3358,-0.75 0.75,-0.75 h 5 c 0.4142,0 0.75,0.33579 0.75,0.75 0,0.41421 -0.3358,0.75 -0.75,0.75 h -5 c -0.4142,0 -0.75,-0.33579 -0.75,-0.75 z m 1,3 c 0,-0.4142 0.3358,-0.75 0.75,-0.75 h 4 c 0.4142,0 0.75,0.3358 0.75,0.75 0,0.4142 -0.3358,0.75 -0.75,0.75 h -4 c -0.4142,0 -0.75,-0.3358 -0.75,-0.75 z m 1,3 c 0,-0.4142 0.3358,-0.75 0.75,-0.75 h 3 c 0.4142,0 0.75,0.3358 0.75,0.75 0,0.4142 -0.3358,0.75 -0.75,0.75 h -3 c -0.4142,0 -0.75,-0.3358 -0.75,-0.75 z m -4.25,-6 c 0,1.1046 -0.8954,2 -2.00002,2 -1.10457,0 -2,-0.8954 -2,-2 0,-1.10457 0.89543,-2 2,-2 1.10462,0 2.00002,0.89543 2.00002,2 z m -2.00002,8 c 4.00002,0 4.00002,-0.8954 4.00002,-2 0,-1.1046 -1.7909,-2 -4.00002,-2 -2.20914,0 -4,0.8954 -4,2 0,1.1046 0,2 4,2 z"
     fill="#2d2d2d"
     id="path1" />
</svg>
