<svg width="25" height="25" viewBox="0 0 25 25" fill="none" xmlns="http://www.w3.org/2000/svg">
<path fill-rule="evenodd" clip-rule="evenodd" d="M14.5077 2.50894C14.1374 2.3567 13.6679 2.3567 12.7289 2.3567C11.7899 2.3567 11.3204 2.3567 10.9501 2.50894C10.4563 2.71193 10.064 3.10128 9.85944 3.59133C9.76607 3.81504 9.72953 4.0752 9.71523 4.45469C9.69422 5.01238 9.40604 5.52859 8.91905 5.80763C8.43206 6.08666 7.83752 6.07624 7.34037 5.81546C7.00206 5.638 6.75677 5.53932 6.51487 5.50772C5.98497 5.43848 5.44906 5.58099 5.02504 5.9039C4.70702 6.14608 4.47227 6.5496 4.00278 7.35663C3.53329 8.16367 3.29855 8.56718 3.24623 8.96161C3.17646 9.4875 3.32006 10.0194 3.64543 10.4402C3.79394 10.6323 4.00265 10.7937 4.32658 10.9957C4.80279 11.2927 5.1092 11.7986 5.10917 12.3567C5.10914 12.9148 4.80274 13.4206 4.32658 13.7175C4.0026 13.9196 3.79385 14.0811 3.64533 14.2732C3.31996 14.694 3.17637 15.2258 3.24613 15.7517C3.29845 16.1461 3.5332 16.5497 4.00268 17.3567C4.47217 18.1637 4.70692 18.5673 5.02494 18.8094C5.44896 19.1323 5.98487 19.2748 6.51477 19.2056C6.75666 19.174 7.00193 19.0753 7.34021 18.8979C7.8374 18.6371 8.43198 18.6267 8.919 18.9057C9.40602 19.1848 9.69421 19.701 9.71523 20.2588C9.72953 20.6382 9.76607 20.8984 9.85944 21.1221C10.064 21.6121 10.4563 22.0015 10.9501 22.2045C11.3204 22.3567 11.7899 22.3567 12.7289 22.3567C13.6679 22.3567 14.1374 22.3567 14.5077 22.2045C15.0015 22.0015 15.3938 21.6121 15.5983 21.1221C15.6917 20.8984 15.7283 20.6382 15.7426 20.2587C15.7636 19.701 16.0517 19.1848 16.5387 18.9057C17.0257 18.6266 17.6203 18.6371 18.1175 18.8979C18.4558 19.0753 18.701 19.1739 18.9429 19.2055C19.4728 19.2748 20.0087 19.1323 20.4327 18.8094C20.7508 18.5672 20.9855 18.1637 21.455 17.3566C21.9245 16.5496 22.1592 16.1461 22.2116 15.7517C22.2813 15.2258 22.1377 14.6939 21.8124 14.2731C21.6638 14.081 21.4551 13.9195 21.1311 13.7175C20.655 13.4206 20.3486 12.9147 20.3486 12.3566C20.3486 11.7985 20.655 11.2928 21.1311 10.9959C21.4552 10.7938 21.6639 10.6324 21.8125 10.4402C22.1378 10.0194 22.2814 9.48757 22.2117 8.96167C22.1593 8.56725 21.9246 8.16373 21.4551 7.3567C20.9856 6.54967 20.7509 6.14615 20.4328 5.90397C20.0088 5.58106 19.4729 5.43855 18.943 5.50779C18.7011 5.53939 18.4558 5.63806 18.1176 5.8155C17.6204 6.07629 17.0258 6.08672 16.5388 5.80766C16.0518 5.52861 15.7636 5.01236 15.7425 4.45464C15.7282 4.07518 15.6917 3.81503 15.5983 3.59133C15.3938 3.10128 15.0015 2.71193 14.5077 2.50894ZM12.7289 15.3567C14.3984 15.3567 15.7517 14.0136 15.7517 12.3567C15.7517 10.6998 14.3984 9.3567 12.7289 9.3567C11.0594 9.3567 9.70604 10.6998 9.70604 12.3567C9.70604 14.0136 11.0594 15.3567 12.7289 15.3567Z" fill="#2D2D2D"/>
</svg>
