<?xml version="1.0" encoding="UTF-8" standalone="no"?>
<svg
   width="25"
   height="25"
   viewBox="0 0 25 25"
   fill="none"
   version="1.1"
   id="svg1"
   sodipodi:docname="settings.svg"
   inkscape:version="1.4 (86a8ad7, 2024-10-11)"
   xmlns:inkscape="http://www.inkscape.org/namespaces/inkscape"
   xmlns:sodipodi="http://sodipodi.sourceforge.net/DTD/sodipodi-0.dtd"
   xmlns="http://www.w3.org/2000/svg"
   xmlns:svg="http://www.w3.org/2000/svg">
  <defs
     id="defs1" />
  <sodipodi:namedview
     id="namedview1"
     pagecolor="#ffffff"
     bordercolor="#000000"
     borderopacity="0.25"
     inkscape:showpageshadow="2"
     inkscape:pageopacity="0.0"
     inkscape:pagecheckerboard="0"
     inkscape:deskcolor="#d1d1d1"
     inkscape:zoom="31.32"
     inkscape:cx="12.5"
     inkscape:cy="12.5"
     inkscape:window-width="1920"
     inkscape:window-height="1001"
     inkscape:window-x="-9"
     inkscape:window-y="-9"
     inkscape:window-maximized="1"
     inkscape:current-layer="svg1" />
  <path
     fill-rule="evenodd"
     clip-rule="evenodd"
     d="M 14.278798,2.65224 C 13.908498,2.5 13.438998,2.5 12.499998,2.5 c -0.939,0 -1.4085,0 -1.7788,0.15224 -0.4938,0.20299 -0.8861002,0.59234 -1.0906602,1.08239 -0.09337,0.22371 -0.12991,0.48387 -0.14421,0.86336 -0.02101,0.55769 -0.30919,1.0739 -0.79618,1.35294 -0.48699,0.27903 -1.08153,0.26861 -1.57868,0.00783 -0.33831,-0.17746 -0.5836,-0.27614 -0.8255,-0.30774 -0.5299,-0.06924 -1.06581,0.07327 -1.48983,0.39618 -0.31802,0.24218 -0.55277,0.6457 -1.02226,1.45273 -0.46949,0.80704 -0.70423,1.21055 -0.75655,1.60498 -0.06977,0.52589 0.07383,1.05779 0.3992,1.47859 0.14851,0.1921 0.35722,0.3535 0.68115,0.5555 0.47621,0.297 0.78262,0.8029 0.78259,1.361 -3e-5,0.5581 -0.30643,1.0639 -0.78259,1.3608 -0.32398,0.2021 -0.53273,0.3636 -0.68125,0.5557 -0.32537,0.4208 -0.46896,0.9526 -0.3992,1.4785 0.05232,0.3944 0.28707,0.798 0.75655,1.605 0.46949,0.807 0.70424,1.2106 1.02226,1.4527 0.42402,0.3229 0.95993,0.4654 1.48983,0.3962 0.24189,-0.0316 0.48716,-0.1303 0.82544,-0.3077 0.49719,-0.2608 1.09177,-0.2712 1.57879,0.0078 0.48702,0.2791 0.77521,0.7953 0.79623,1.3531 0.0143,0.3794 0.05084,0.6396 0.14421,0.8633 0.20456,0.49 0.5968602,0.8794 1.0906602,1.0824 0.3703,0.1522 0.8398,0.1522 1.7788,0.1522 0.939,0 1.4085,0 1.7788,-0.1522 0.4938,-0.203 0.8861,-0.5924 1.0906,-1.0824 0.0934,-0.2237 0.13,-0.4839 0.1443,-0.8634 0.021,-0.5577 0.3091,-1.0739 0.7961,-1.353 0.487,-0.2791 1.0816,-0.2686 1.5788,-0.0078 0.3383,0.1774 0.5835,0.276 0.8254,0.3076 0.5299,0.0693 1.0658,-0.0732 1.4898,-0.3961 0.3181,-0.2422 0.5528,-0.6457 1.0223,-1.4528 0.4695,-0.807 0.7042,-1.2105 0.7566,-1.6049 0.0697,-0.5259 -0.0739,-1.0578 -0.3992,-1.4786 -0.1486,-0.1921 -0.3573,-0.3536 -0.6813,-0.5556 -0.4761,-0.2969 -0.7825,-0.8028 -0.7825,-1.3609 0,-0.5581 0.3064,-1.0638 0.7825,-1.3607 0.3241,-0.2021 0.5328,-0.3635 0.6814,-0.5557 0.3253,-0.4208 0.4689,-0.95263 0.3992,-1.47853 -0.0524,-0.39442 -0.2871,-0.79794 -0.7566,-1.60497 -0.4695,-0.80703 -0.7042,-1.21055 -1.0223,-1.45273 -0.424,-0.32291 -0.9599,-0.46542 -1.4898,-0.39618 -0.2419,0.0316 -0.4872,0.13027 -0.8254,0.30771 -0.4972,0.26079 -1.0918,0.27122 -1.5788,-0.00784 -0.487,-0.27905 -0.7752,-0.7953 -0.7963,-1.35302 -0.0143,-0.37946 -0.0508,-0.63961 -0.1442,-0.86331 -0.2045,-0.49005 -0.5968,-0.8794 -1.0906,-1.08239 z M 12.499998,15.5 c 1.6695,0 3.0228,-1.3431 3.0228,-3 0,-1.6569 -1.3533,-3 -3.0228,-3 -1.6695,0 -3.0228602,1.3431 -3.0228602,3 0,1.6569 1.3533602,3 3.0228602,3 z"
     fill="#2d2d2d"
     id="path1" />
</svg>
