<?xml version="1.0" encoding="UTF-8" standalone="no"?>
<svg
   width="25"
   height="25"
   viewBox="0 0 25 25"
   fill="none"
   version="1.1"
   id="svg4"
   sodipodi:docname="shield.svg"
   inkscape:version="1.4 (86a8ad7, 2024-10-11)"
   xmlns:inkscape="http://www.inkscape.org/namespaces/inkscape"
   xmlns:sodipodi="http://sodipodi.sourceforge.net/DTD/sodipodi-0.dtd"
   xmlns="http://www.w3.org/2000/svg"
   xmlns:svg="http://www.w3.org/2000/svg">
  <defs
     id="defs4" />
  <sodipodi:namedview
     id="namedview4"
     pagecolor="#ffffff"
     bordercolor="#000000"
     borderopacity="0.25"
     inkscape:showpageshadow="2"
     inkscape:pageopacity="0.0"
     inkscape:pagecheckerboard="0"
     inkscape:deskcolor="#d1d1d1"
     inkscape:zoom="31.32"
     inkscape:cx="12.484036"
     inkscape:cy="12.5"
     inkscape:window-width="1920"
     inkscape:window-height="1001"
     inkscape:window-x="-9"
     inkscape:window-y="-9"
     inkscape:window-maximized="1"
     inkscape:current-layer="svg4" />
  <g
     id="g4"
     transform="translate(-0.084375,-0.011965)">
    <path
       d="M 11.8344,2.56883 C 11.2281,2.68193 10.5159,2.9257 9.42207,3.30013 L 8.84926,3.49621 C 5.84267,4.52537 4.33938,5.03995 3.96187,5.57782 3.5926,6.10395 3.58453,7.64516 3.58435,10.7049 L 11.8344,7.95484 Z"
       fill="#2d2d2d"
       id="path1" />
    <path
       d="M 11.8344,9.53598 3.58435,12.286 v 0.2008 c 0,5.6381 4.23896,8.3741 6.89855,9.5359 0.5108,0.2231 0.8407,0.3672 1.3515,0.4324 z"
       fill="#2d2d2d"
       id="path2" />
    <path
       d="M 13.3344,22.4551 V 9.53598 l 8.25,2.75002 v 0.2008 c 0,5.6381 -4.239,8.3741 -6.8986,9.5359 -0.5107,0.2231 -0.8406,0.3672 -1.3514,0.4324 z"
       fill="#2d2d2d"
       id="path3" />
    <path
       d="M 13.3344,7.95484 V 2.56883 c 0.6063,0.1131 1.3184,0.35687 2.4123,0.7313 l 0.5728,0.19608 c 3.0066,1.02916 4.5099,1.54374 4.8874,2.08161 0.3693,0.52613 0.3773,2.06734 0.3775,5.12708 z"
       fill="#2d2d2d"
       id="path4" />
  </g>
</svg>
