<?xml version="1.0" encoding="UTF-8" standalone="no"?>
<svg
   width="25"
   height="25"
   viewBox="0 0 25 25"
   fill="none"
   version="1.1"
   id="svg2"
   sodipodi:docname="shop.svg"
   inkscape:version="1.4 (86a8ad7, 2024-10-11)"
   xmlns:inkscape="http://www.inkscape.org/namespaces/inkscape"
   xmlns:sodipodi="http://sodipodi.sourceforge.net/DTD/sodipodi-0.dtd"
   xmlns="http://www.w3.org/2000/svg"
   xmlns:svg="http://www.w3.org/2000/svg">
  <defs
     id="defs2" />
  <sodipodi:namedview
     id="namedview2"
     pagecolor="#ffffff"
     bordercolor="#000000"
     borderopacity="0.25"
     inkscape:showpageshadow="2"
     inkscape:pageopacity="0.0"
     inkscape:pagecheckerboard="0"
     inkscape:deskcolor="#d1d1d1"
     inkscape:zoom="31.32"
     inkscape:cx="12.5"
     inkscape:cy="12.5"
     inkscape:window-width="1920"
     inkscape:window-height="1001"
     inkscape:window-x="-9"
     inkscape:window-y="-9"
     inkscape:window-maximized="1"
     inkscape:current-layer="svg2" />
  <g
     id="g2"
     transform="translate(0.27109417,0.14765)">
    <path
       d="M 4.00679,4.01154 C 3.82575,4.37243 3.73671,4.81763 3.55863,5.70803 l -0.59792,2.9896 c -0.37859,1.89297 1.06927,3.65907 2.99972,3.65907 1.57163,0 2.88756,-1.1909 3.04394,-2.75473 L 9.07338,8.91185 c -0.16309,1.84865 1.29402,3.44485 3.15532,3.44485 1.8739,0 3.3382,-1.618 3.1517,-3.48263 l 0.073,0.7279 c 0.1564,1.56383 1.4723,2.75473 3.044,2.75473 1.9304,0 3.3783,-1.7661 2.9997,-3.65907 L 20.8992,5.70803 C 20.7211,4.81765 20.632,4.37243 20.451,4.01154 20.0695,3.25109 19.3831,2.68838 18.5626,2.46345 18.1732,2.3567 17.7192,2.3567 16.8112,2.3567 H 14.7287 7.64659 c -0.90802,0 -1.36204,0 -1.75143,0.10675 -0.82049,0.22493 -1.5069,0.78764 -1.88837,1.54809 z"
       fill="#2d2d2d"
       id="path1" />
    <path
       d="m 18.4974,13.8567 c 0.8171,0 1.5763,-0.2124 2.2315,-0.5811 v 1.0811 c 0,3.7712 0,5.6568 -1.1716,6.8284 -0.9431,0.9431 -2.3488,1.127 -4.8284,1.1629 v -3.4913 c 0,-0.9346 0,-1.4019 -0.201,-1.75 -0.1316,-0.228 -0.321,-0.4174 -0.549,-0.549 -0.3481,-0.201 -0.8154,-0.201 -1.75,-0.201 -0.9346,0 -1.4019,0 -1.75,0.201 -0.228,0.1316 -0.4174,0.321 -0.54906,0.549 -0.20096,0.3481 -0.20096,0.8154 -0.20096,1.75 V 22.348 C 7.24931,22.3121 5.84354,22.1282 4.90045,21.1851 3.72888,20.0135 3.72888,18.1279 3.72888,14.3567 v -1.0811 c 0.65524,0.3687 1.41439,0.5811 2.23157,0.5811 1.19707,0 2.2946,-0.4636 3.11278,-1.2281 0.82733,0.7602 1.93217,1.2281 3.15547,1.2281 1.2234,0 2.3283,-0.468 3.1557,-1.2283 0.8182,0.7646 1.9158,1.2283 3.113,1.2283 z"
       fill="#2d2d2d"
       id="path2" />
  </g>
</svg>
