<?xml version="1.0" encoding="UTF-8" standalone="no"?>
<svg
   width="25"
   height="25"
   viewBox="0 0 25 25"
   fill="none"
   version="1.1"
   id="svg4"
   sodipodi:docname="social.svg"
   inkscape:version="1.4 (86a8ad7, 2024-10-11)"
   xmlns:inkscape="http://www.inkscape.org/namespaces/inkscape"
   xmlns:sodipodi="http://sodipodi.sourceforge.net/DTD/sodipodi-0.dtd"
   xmlns="http://www.w3.org/2000/svg"
   xmlns:svg="http://www.w3.org/2000/svg">
  <defs
     id="defs4" />
  <sodipodi:namedview
     id="namedview4"
     pagecolor="#ffffff"
     bordercolor="#000000"
     borderopacity="0.25"
     inkscape:showpageshadow="2"
     inkscape:pageopacity="0.0"
     inkscape:pagecheckerboard="0"
     inkscape:deskcolor="#d1d1d1"
     inkscape:zoom="31.32"
     inkscape:cx="12.5"
     inkscape:cy="12.5"
     inkscape:window-width="1920"
     inkscape:window-height="1001"
     inkscape:window-x="-9"
     inkscape:window-y="-9"
     inkscape:window-maximized="1"
     inkscape:current-layer="svg4" />
  <g
     id="g4">
    <path
       fill-rule="evenodd"
       clip-rule="evenodd"
       d="M2.47978 12.2376C2.46928 12.4137 2.49424 12.6273 2.54418 13.0545L2.94486 16.4825C3.12569 18.0296 3.9524 19.4281 5.2207 20.3324C6.15518 20.9986 7.27425 21.3567 8.42191 21.3567H12.0358C13.1835 21.3567 14.3025 20.9986 15.237 20.3324C16.0405 19.7595 16.6667 18.9884 17.0638 18.1067H19.2289C21.3 18.1067 22.9789 16.4278 22.9789 14.3567C22.9789 12.2856 21.3 10.6067 19.2289 10.6067H16.9501C16.7614 10.5022 16.5533 10.427 16.3316 10.3876C16.1579 10.3567 15.9428 10.3567 15.5127 10.3567H4.945C4.51488 10.3567 4.29982 10.3567 4.12613 10.3876C3.21565 10.5495 2.53487 11.3144 2.47978 12.2376ZM17.9658 12.1067C17.9713 12.1499 17.9753 12.1936 17.9779 12.2376C17.9884 12.4137 17.9635 12.6273 17.9136 13.0544L17.5129 16.4825C17.508 16.524 17.5027 16.5654 17.4969 16.6067H19.2289C20.4715 16.6067 21.4789 15.5993 21.4789 14.3567C21.4789 13.1141 20.4715 12.1067 19.2289 12.1067H17.9658Z"
       fill="#2D2D2D"
       id="path1" />
    <path
       fill-rule="evenodd"
       clip-rule="evenodd"
       d="M10.7594 1.82637C11.0523 2.11926 11.0523 2.59414 10.7594 2.88703C10.5 3.14642 10.5 3.56698 10.7594 3.82637C11.6046 4.67155 11.6046 6.04185 10.7594 6.88703C10.4665 7.17992 9.99159 7.17992 9.6987 6.88703C9.40581 6.59414 9.40581 6.11926 9.6987 5.82637C9.95809 5.56698 9.95809 5.14642 9.6987 4.88703C8.85352 4.04185 8.85352 2.67155 9.6987 1.82637C9.99159 1.53348 10.4665 1.53348 10.7594 1.82637Z"
       fill="#2D2D2D"
       id="path2" />
    <path
       fill-rule="evenodd"
       clip-rule="evenodd"
       d="M6.25916 3.32637C6.55205 3.61926 6.55205 4.09414 6.25916 4.38703L6.14304 4.50315C5.89979 4.7464 5.87243 5.13149 6.07883 5.4067C6.73312 6.27909 6.64636 7.49983 5.87528 8.27091L5.75916 8.38703C5.46627 8.67992 4.99139 8.67992 4.6985 8.38703C4.40561 8.09414 4.40561 7.61926 4.6985 7.32637L4.81462 7.21025C5.05787 6.967 5.08523 6.58191 4.87883 6.3067C4.22454 5.43431 4.3113 4.21357 5.08238 3.44249L5.1985 3.32637C5.49139 3.03348 5.96627 3.03348 6.25916 3.32637Z"
       fill="#2D2D2D"
       id="path3" />
    <path
       fill-rule="evenodd"
       clip-rule="evenodd"
       d="M15.7592 3.32637C16.0521 3.61926 16.0521 4.09414 15.7592 4.38703L15.6431 4.50315C15.3999 4.7464 15.3725 5.13149 15.5789 5.4067C16.2332 6.27909 16.1464 7.49983 15.3753 8.27091L15.2592 8.38703C14.9663 8.67992 14.4915 8.67992 14.1986 8.38703C13.9057 8.09414 13.9057 7.61926 14.1986 7.32637L14.3147 7.21025C14.5579 6.967 14.5853 6.58191 14.3789 6.3067C13.7246 5.43431 13.8114 4.21357 14.5825 3.44249L14.6986 3.32637C14.9915 3.03348 15.4663 3.03348 15.7592 3.32637Z"
       fill="#2D2D2D"
       id="path4" />
  </g>
</svg>
