<?xml version="1.0" encoding="UTF-8" standalone="no"?>
<svg
   width="25"
   height="25"
   viewBox="0 0 25 25"
   fill="none"
   version="1.1"
   id="svg1"
   sodipodi:docname="sound.svg"
   inkscape:version="1.4 (86a8ad7, 2024-10-11)"
   xmlns:inkscape="http://www.inkscape.org/namespaces/inkscape"
   xmlns:sodipodi="http://sodipodi.sourceforge.net/DTD/sodipodi-0.dtd"
   xmlns="http://www.w3.org/2000/svg"
   xmlns:svg="http://www.w3.org/2000/svg">
  <defs
     id="defs1" />
  <sodipodi:namedview
     id="namedview1"
     pagecolor="#ffffff"
     bordercolor="#000000"
     borderopacity="0.25"
     inkscape:showpageshadow="2"
     inkscape:pageopacity="0.0"
     inkscape:pagecheckerboard="0"
     inkscape:deskcolor="#d1d1d1"
     inkscape:zoom="31.32"
     inkscape:cx="12.484036"
     inkscape:cy="12.5"
     inkscape:window-width="1920"
     inkscape:window-height="1001"
     inkscape:window-x="-9"
     inkscape:window-y="-9"
     inkscape:window-maximized="1"
     inkscape:current-layer="svg1" />
  <path
     fill-rule="evenodd"
     clip-rule="evenodd"
     d="m 12.500025,3.749995 c 0.4142,0 0.75,0.33579 0.75,0.75 v 16.00001 c 0,0.4142 -0.3358,0.75 -0.75,0.75 -0.4142,0 -0.75,-0.3358 -0.75,-0.75 V 4.499995 c 0,-0.41421 0.3358,-0.75 0.75,-0.75 z m -4.00005,3 c 0.41421,0 0.75,0.33579 0.75,0.75 v 10.00001 c 0,0.4142 -0.33579,0.75 -0.75,0.75 -0.41421,0 -0.75,-0.3358 -0.75,-0.75 V 7.499995 c 0,-0.41421 0.33579,-0.75 0.75,-0.75 z m 8.00005,0 c 0.4142,0 0.75,0.33579 0.75,0.75 v 10.00001 c 0,0.4142 -0.3358,0.75 -0.75,0.75 -0.4142,0 -0.75,-0.3358 -0.75,-0.75 V 7.499995 c 0,-0.41421 0.3358,-0.75 0.75,-0.75 z m -12.00005,4.00001 c 0.41421,0 0.75,0.3358 0.75,0.75 v 2 c 0,0.4142 -0.33579,0.75 -0.75,0.75 -0.41421,0 -0.75,-0.3358 -0.75,-0.75 v -2 c 0,-0.4142 0.33579,-0.75 0.75,-0.75 z m 16.00005,0 c 0.4142,0 0.75,0.3358 0.75,0.75 v 2 c 0,0.4142 -0.3358,0.75 -0.75,0.75 -0.4142,0 -0.75,-0.3358 -0.75,-0.75 v -2 c 0,-0.4142 0.3358,-0.75 0.75,-0.75 z"
     fill="#2d2d2d"
     id="path1" />
</svg>
