<svg width="25" height="25" viewBox="0 0 25 25" fill="none" xmlns="http://www.w3.org/2000/svg">
<path d="M7.49447 2.9835C7.86923 2.03328 9.21403 2.03329 9.58879 2.98351L10.7501 5.92816C10.8645 6.21827 11.0942 6.44791 11.3843 6.56232L14.3289 7.72368C15.2792 8.09844 15.2792 9.44324 14.3289 9.818L11.3843 10.9793C11.0942 11.0937 10.8645 11.3234 10.7501 11.6135L9.58879 14.5581C9.21403 15.5084 7.86923 15.5084 7.49447 14.5581L6.33311 11.6135C6.2187 11.3234 5.98906 11.0937 5.69895 10.9793L2.75429 9.818C1.80407 9.44324 1.80408 8.09844 2.7543 7.72368L5.69895 6.56232C5.98906 6.44791 6.2187 6.21827 6.33311 5.92816L7.49447 2.9835Z" fill="#2D2D2D"/>
<path d="M16.9661 13.6624C17.1721 13.1403 17.9111 13.1403 18.1171 13.6624L19.0177 15.9461C19.0806 16.1056 19.2068 16.2318 19.3663 16.2947L21.65 17.1953C22.1721 17.4013 22.1721 18.1403 21.65 18.3463L19.3663 19.2469C19.2068 19.3098 19.0806 19.436 19.0177 19.5955L18.1171 21.8792C17.9111 22.4013 17.1721 22.4013 16.9661 21.8792L16.0655 19.5955C16.0026 19.436 15.8764 19.3098 15.7169 19.2469L13.4332 18.3463C12.9111 18.1403 12.9111 17.4013 13.4332 17.1953L15.7169 16.2947C15.8764 16.2318 16.0026 16.1056 16.0655 15.9461L16.9661 13.6624Z" fill="#2D2D2D"/>
</svg>
