<?xml version="1.0" encoding="UTF-8" standalone="no"?>
<svg
   width="25"
   height="25"
   viewBox="0 0 25 25"
   fill="none"
   version="1.1"
   id="svg1"
   sodipodi:docname="stream.svg"
   inkscape:version="1.4 (86a8ad7, 2024-10-11)"
   xmlns:inkscape="http://www.inkscape.org/namespaces/inkscape"
   xmlns:sodipodi="http://sodipodi.sourceforge.net/DTD/sodipodi-0.dtd"
   xmlns="http://www.w3.org/2000/svg"
   xmlns:svg="http://www.w3.org/2000/svg">
  <defs
     id="defs1" />
  <sodipodi:namedview
     id="namedview1"
     pagecolor="#ffffff"
     bordercolor="#000000"
     borderopacity="0.25"
     inkscape:showpageshadow="2"
     inkscape:pageopacity="0.0"
     inkscape:pagecheckerboard="0"
     inkscape:deskcolor="#d1d1d1"
     inkscape:zoom="31.32"
     inkscape:cx="12.5"
     inkscape:cy="12.5"
     inkscape:window-width="1920"
     inkscape:window-height="1001"
     inkscape:window-x="-9"
     inkscape:window-y="-9"
     inkscape:window-maximized="1"
     inkscape:current-layer="svg1" />
  <path
     d="m 2.49999,12 v 1 c 0,3.2875 0,4.9312 0.90796,6.0376 0.16622,0.2025 0.35193,0.3882 0.55447,0.5544 1.10635,0.908 2.75009,0.908 6.03757,0.908 3.28752,0 4.93122,0 6.03762,-0.908 0.2025,-0.1662 0.3882,-0.3519 0.5544,-0.5544 0.7016,-0.8549 0.8611,-2.0306 0.8973,-4.0376 l 0.6691,0.3292 c 1.9458,0.9729 2.9188,1.4594 3.6302,1.0197 0.7114,-0.4396 0.7114,-1.5274 0.7114,-3.703 v -0.2918 c 0,-2.1756 0,-3.26335 -0.7114,-3.70303 -0.7114,-0.43967 -1.6844,0.04681 -3.6302,1.01975 l -0.6691,0.3292 C 17.45311,7.99303 17.29361,6.8173 16.59201,5.96243 16.42581,5.75989 16.24011,5.57418 16.03761,5.40796 14.93121,4.5 13.28751,4.5 9.99999,4.5 6.71251,4.5 5.06877,4.5 3.96242,5.40796 3.75988,5.57418 3.57417,5.75989 3.40795,5.96243 2.49999,7.06878 2.49999,8.71252 2.49999,12 Z"
     fill="#2d2d2d"
     id="path1" />
</svg>
