<svg width="25" height="25" viewBox="0 0 25 25" fill="none" xmlns="http://www.w3.org/2000/svg">
<path d="M2.22888 11.8567V12.8567C2.22888 16.1442 2.22888 17.7879 3.13684 18.8943C3.30306 19.0968 3.48877 19.2825 3.69131 19.4487C4.79766 20.3567 6.4414 20.3567 9.72888 20.3567C13.0164 20.3567 14.6601 20.3567 15.7665 19.4487C15.969 19.2825 16.1547 19.0968 16.3209 18.8943C17.0225 18.0394 17.182 16.8637 17.2182 14.8567L17.8873 15.1859C19.8331 16.1588 20.8061 16.6453 21.5175 16.2056C22.2289 15.766 22.2289 14.6782 22.2289 12.5026V12.2108C22.2289 10.0352 22.2289 8.94745 21.5175 8.50777C20.8061 8.0681 19.8331 8.55458 17.8873 9.52752L17.2182 9.85672C17.182 7.84973 17.0225 6.674 16.3209 5.81913C16.1547 5.61659 15.969 5.43088 15.7665 5.26466C14.6601 4.3567 13.0164 4.3567 9.72888 4.3567C6.4414 4.3567 4.79766 4.3567 3.69131 5.26466C3.48877 5.43088 3.30306 5.61659 3.13684 5.81913C2.22888 6.92548 2.22888 8.56922 2.22888 11.8567Z" fill="#2D2D2D"/>
</svg>
