<?xml version="1.0" encoding="UTF-8" standalone="no"?>
<svg
   class="vc-settings-quickActions-img vc-paintbrush-icon vc-icon"
   role="img"
   width="24"
   height="24"
   viewBox="0 0 24 24"
   version="1.1"
   id="svg1"
   sodipodi:docname="theme.svg"
   inkscape:version="1.4 (86a8ad7, 2024-10-11)"
   xmlns:inkscape="http://www.inkscape.org/namespaces/inkscape"
   xmlns:sodipodi="http://sodipodi.sourceforge.net/DTD/sodipodi-0.dtd"
   xmlns="http://www.w3.org/2000/svg"
   xmlns:svg="http://www.w3.org/2000/svg">
  <defs
     id="defs1" />
  <sodipodi:namedview
     id="namedview1"
     pagecolor="#ffffff"
     bordercolor="#000000"
     borderopacity="0.25"
     inkscape:showpageshadow="2"
     inkscape:pageopacity="0.0"
     inkscape:pagecheckerboard="0"
     inkscape:deskcolor="#d1d1d1"
     inkscape:zoom="15.083333"
     inkscape:cx="11.966851"
     inkscape:cy="11.966851"
     inkscape:window-width="1920"
     inkscape:window-height="1001"
     inkscape:window-x="-9"
     inkscape:window-y="-9"
     inkscape:window-maximized="1"
     inkscape:current-layer="svg1" />
  <path
     fill="currentColor"
     fill-rule="evenodd"
     clip-rule="evenodd"
     d="m 15.35368,7.2388172 c 0.55,-0.57 0.65,-1.44 0.65,-2.24 a 3,3 0 1 1 3,3 c -0.8,0 -1.67,0.09 -2.24,0.65 a 1.5,1.5 0 0 0 0,2.1099998 l 1.12,1.12 a 3,3 0 0 1 0,4.24 l -5,5 a 3,3 0 0 1 -4.2499999,0 l -5.76,-5.75 a 3,3 0 0 1 0,-4.24 l 4.04,-4.0399998 0.97,-0.97 a 3,3 0 0 1 4.2399999,0 l 1.12,1.12 c 0.58,0.58 1.52,0.58 2.1,0 z m -8.4499999,2.66 -2.6,2.6399998 a 1,1 0 0 0 0,1.42 l 2.17,2.17 0.83,-0.84 a 1.0040916,1.0040916 0 0 1 1.42,1.42 l -0.84,0.83 0.59,0.59 1.8299999,-1.84 a 1.0040916,1.0040916 0 0 1 1.42,1.42 l -1.8399999,1.83 0.1699999,0.17 a 1,1 0 0 0 1.42,0 l 2.63,-2.62 z"
     id="path1"
     style="fill:#2d2d2d;fill-opacity:1" />
</svg>
