<?xml version="1.0" encoding="UTF-8" standalone="no"?>
<svg
   width="25"
   height="25"
   viewBox="0 0 25 25"
   fill="none"
   version="1.1"
   id="svg1"
   sodipodi:docname="update.svg"
   inkscape:version="1.4 (86a8ad7, 2024-10-11)"
   xmlns:inkscape="http://www.inkscape.org/namespaces/inkscape"
   xmlns:sodipodi="http://sodipodi.sourceforge.net/DTD/sodipodi-0.dtd"
   xmlns="http://www.w3.org/2000/svg"
   xmlns:svg="http://www.w3.org/2000/svg">
  <defs
     id="defs1" />
  <sodipodi:namedview
     id="namedview1"
     pagecolor="#ffffff"
     bordercolor="#000000"
     borderopacity="0.25"
     inkscape:showpageshadow="2"
     inkscape:pageopacity="0.0"
     inkscape:pagecheckerboard="0"
     inkscape:deskcolor="#d1d1d1"
     inkscape:zoom="31.32"
     inkscape:cx="12.5"
     inkscape:cy="12.5"
     inkscape:window-width="1920"
     inkscape:window-height="1001"
     inkscape:window-x="-9"
     inkscape:window-y="-9"
     inkscape:window-maximized="1"
     inkscape:current-layer="svg1" />
  <path
     fill-rule="evenodd"
     clip-rule="evenodd"
     d="m 22.50001,12.5 c 0,5.5228 -4.4772,10 -10,10 -5.52287,0 -10.00002,-4.4772 -10.00002,-10 0,-5.52285 4.47715,-10 10.00002,-10 5.5228,0 10,4.47715 10,10 z M 5.96055,11.5833 C 6.3333,8.29988 9.12403,5.75 12.50961,5.75 c 2.1384,0 4.0393,1.01793 5.2425,2.59246 0.2515,0.32912 0.1885,0.79981 -0.1406,1.0513 -0.3291,0.2515 -0.7998,0.18857 -1.0513,-0.14056 C 15.62891,8.03445 14.16131,7.25 12.50961,7.25 9.95212,7.25 7.83638,9.13219 7.47329,11.5833 h 0.36322 c 0.30344,0 0.57698,0.1829 0.69301,0.4633 0.11603,0.2803 0.05167,0.603 -0.16304,0.8174 l -1.16826,1.1667 c -0.29281,0.2924 -0.76713,0.2924 -1.05994,0 L 4.97002,12.864 C 4.75531,12.6496 4.69096,12.3269 4.80698,12.0466 4.92301,11.7662 5.19655,11.5833 5.49999,11.5833 Z m 12.90116,-0.614 c -0.2928,-0.2924 -0.7671,-0.2924 -1.0599,0 l -1.1683,1.1667 c -0.2147,0.2144 -0.279,0.5371 -0.163,0.8174 0.116,0.2804 0.3896,0.4633 0.693,0.4633 h 0.3632 c -0.3631,2.4511 -2.4788,4.3333 -5.0362,4.3333 -1.6441,0 -3.10568,-0.7771 -4.03762,-1.9862 -0.25288,-0.328 -0.72382,-0.389 -1.05189,-0.1361 -0.32806,0.2529 -0.38901,0.7238 -0.13614,1.0519 1.20399,1.562 3.09715,2.5704 5.22565,2.5704 3.3855,0 6.1762,-2.5499 6.549,-5.8333 h 0.4605 c 0.3035,0 0.577,-0.1829 0.693,-0.4633 0.1161,-0.2803 0.0517,-0.603 -0.163,-0.8174 z"
     fill="#2d2d2d"
     id="path1" />
</svg>
