<svg width="25" height="25" viewBox="0 0 25 25" fill="none" xmlns="http://www.w3.org/2000/svg">
<path fill-rule="evenodd" clip-rule="evenodd" d="M22.2289 12.3567C22.2289 17.8795 17.7517 22.3567 12.2289 22.3567C6.70603 22.3567 2.22888 17.8795 2.22888 12.3567C2.22888 6.83385 6.70603 2.3567 12.2289 2.3567C17.7517 2.3567 22.2289 6.83385 22.2289 12.3567ZM5.68944 11.44C6.06219 8.15658 8.85292 5.6067 12.2385 5.6067C14.3769 5.6067 16.2778 6.62463 17.481 8.19916C17.7325 8.52828 17.6695 8.99897 17.3404 9.25046C17.0113 9.50196 16.5406 9.43903 16.2891 9.1099C15.3578 7.89115 13.8902 7.1067 12.2385 7.1067C9.68101 7.1067 7.56527 8.98889 7.20218 11.44H7.5654C7.86884 11.44 8.14238 11.6229 8.25841 11.9033C8.37444 12.1836 8.31008 12.5063 8.09537 12.7207L6.92711 13.8874C6.6343 14.1798 6.15998 14.1798 5.86717 13.8874L4.69891 12.7207C4.4842 12.5063 4.41985 12.1836 4.53587 11.9033C4.6519 11.6229 4.92544 11.44 5.22888 11.44H5.68944ZM18.5906 10.826C18.2978 10.5336 17.8235 10.5336 17.5307 10.826L16.3624 11.9927C16.1477 12.2071 16.0834 12.5298 16.1994 12.8101C16.3154 13.0905 16.589 13.2734 16.8924 13.2734H17.2556C16.8925 15.7245 14.7768 17.6067 12.2194 17.6067C10.5753 17.6067 9.11372 16.8296 8.18178 15.6205C7.9289 15.2925 7.45796 15.2315 7.12989 15.4844C6.80183 15.7373 6.74088 16.2082 6.99375 16.5363C8.19774 18.0983 10.0909 19.1067 12.2194 19.1067C15.6049 19.1067 18.3956 16.5568 18.7684 13.2734H19.2289C19.5324 13.2734 19.8059 13.0905 19.9219 12.8101C20.038 12.5298 19.9736 12.2071 19.7589 11.9927L18.5906 10.826Z" fill="#2D2D2D"/>
</svg>
