<?xml version="1.0" encoding="UTF-8" standalone="no"?>
<svg
   width="25"
   height="25"
   viewBox="0 0 25 25"
   fill="none"
   version="1.1"
   id="svg3"
   sodipodi:docname="wallet.svg"
   inkscape:version="1.4 (86a8ad7, 2024-10-11)"
   xmlns:inkscape="http://www.inkscape.org/namespaces/inkscape"
   xmlns:sodipodi="http://sodipodi.sourceforge.net/DTD/sodipodi-0.dtd"
   xmlns="http://www.w3.org/2000/svg"
   xmlns:svg="http://www.w3.org/2000/svg">
  <defs
     id="defs3" />
  <sodipodi:namedview
     id="namedview3"
     pagecolor="#ffffff"
     bordercolor="#000000"
     borderopacity="0.25"
     inkscape:showpageshadow="2"
     inkscape:pageopacity="0.0"
     inkscape:pagecheckerboard="0"
     inkscape:deskcolor="#d1d1d1"
     inkscape:zoom="31.32"
     inkscape:cx="12.484036"
     inkscape:cy="12.5"
     inkscape:window-width="1920"
     inkscape:window-height="1001"
     inkscape:window-x="-9"
     inkscape:window-y="-9"
     inkscape:window-maximized="1"
     inkscape:current-layer="svg3" />
  <g
     id="g3"
     transform="translate(0.45838512,0.22918375)">
    <path
       fill-rule="evenodd"
       clip-rule="evenodd"
       d="M 20.4521,10.1314 C 20.3975,10.1279 20.338,10.128 20.2764,10.128 H 20.261 17.8431 c -1.9929,0 -3.6982,1.581 -3.6982,3.6428 0,2.0618 1.7053,3.6429 3.6982,3.6429 h 2.4179 0.0154 c 0.0616,0 0.1211,0 0.1757,-0.0035 0.8095,-0.0515 1.5254,-0.6899 1.5856,-1.5817 0.004,-0.0585 0.0039,-0.1215 0.0039,-0.1799 V 15.6327 11.9089 11.893 c 0,-0.0584 10e-5,-0.1214 -0.0039,-0.1799 -0.0602,-0.8917 -0.7761,-1.5302 -1.5856,-1.5817 z m -2.8233,4.6108 c 0.513,0 0.929,-0.4349 0.929,-0.9714 0,-0.5365 -0.416,-0.9714 -0.929,-0.9714 -0.5131,0 -0.9291,0.4349 -0.9291,0.9714 0,0.5365 0.416,0.9714 0.9291,0.9714 z"
       fill="#2d2d2d"
       id="path1" />
    <path
       fill-rule="evenodd"
       clip-rule="evenodd"
       d="m 20.2757,18.8708 c 0.1437,-0.0037 0.2525,0.1304 0.2135,0.2699 -0.1935,0.6921 -0.5006,1.2819 -0.9934,1.7786 -0.7213,0.727 -1.6359,1.0496 -2.766,1.2027 -1.098,0.1488 -2.501,0.1488 -4.2724,0.1488 H 10.421 c -1.77134,0 -3.17436,0 -4.2724,-0.1488 C 5.01855,21.9689 4.1039,21.6463 3.38259,20.9193 2.66127,20.1923 2.34116,19.2705 2.18923,18.1316 2.0416,17.0249 2.04162,15.6109 2.04163,13.8256 V 13.716 c -2e-5,-1.7853 -3e-5,-3.1993 0.1476,-4.30592 C 2.34116,8.27115 2.66127,7.34932 3.38259,6.62233 4.1039,5.89535 5.01855,5.57272 6.1486,5.4196 7.24663,5.27081 8.64965,5.27083 10.421,5.27084 h 2.0364 c 1.7714,-2e-5 3.1744,-3e-5 4.2724,0.14876 1.1301,0.15312 2.0447,0.47575 2.766,1.20273 0.4928,0.49668 0.7999,1.08655 0.9934,1.77863 0.039,0.13947 -0.0698,0.27364 -0.2135,0.26988 l -2.4326,10e-6 c -2.7342,0 -5.144,2.17685 -5.144,5.09995 0,2.9231 2.4098,5.1 5.144,5.1 z M 5.65609,9.15656 c -0.39924,0 -0.72289,0.32619 -0.72289,0.72857 0,0.40237 0.32365,0.72857 0.72289,0.72857 h 3.85542 c 0.39924,0 0.72289,-0.3262 0.72289,-0.72857 0,-0.40238 -0.32365,-0.72857 -0.72289,-0.72857 z"
       fill="#2d2d2d"
       id="path2" />
    <path
       d="M 7.81836,4.29522 9.77717,2.85209 c 1.05193,-0.77501 2.47713,-0.77501 3.52903,0 L 15.2753,4.3028 C 14.452,4.27078 13.5326,4.27081 12.5246,4.27083 H 10.354 c -0.92109,-2e-5 -1.76822,-4e-5 -2.53564,0.02439 z"
       fill="#2d2d2d"
       id="path3" />
  </g>
</svg>
