<?xml version="1.0" encoding="UTF-8" standalone="no"?>
<svg
   width="25"
   height="25"
   viewBox="0 0 25 25"
   fill="none"
   version="1.1"
   id="svg2"
   sodipodi:docname="web.svg"
   inkscape:version="1.4 (86a8ad7, 2024-10-11)"
   xmlns:inkscape="http://www.inkscape.org/namespaces/inkscape"
   xmlns:sodipodi="http://sodipodi.sourceforge.net/DTD/sodipodi-0.dtd"
   xmlns="http://www.w3.org/2000/svg"
   xmlns:svg="http://www.w3.org/2000/svg">
  <defs
     id="defs2" />
  <sodipodi:namedview
     id="namedview2"
     pagecolor="#ffffff"
     bordercolor="#000000"
     borderopacity="0.25"
     inkscape:showpageshadow="2"
     inkscape:pageopacity="0.0"
     inkscape:pagecheckerboard="0"
     inkscape:deskcolor="#d1d1d1"
     inkscape:zoom="31.32"
     inkscape:cx="12.5"
     inkscape:cy="12.5"
     inkscape:window-width="1920"
     inkscape:window-height="1001"
     inkscape:window-x="-9"
     inkscape:window-y="-9"
     inkscape:window-maximized="1"
     inkscape:current-layer="svg2" />
  <g
     id="g2"
     transform="translate(0.458385,0.22918)">
    <path
       fill-rule="evenodd"
       clip-rule="evenodd"
       d="M 3.5061,3.73531 C 2.42584,4.81556 2.14243,6.38148 2.06808,9.02084 H 22.0152 C 21.9408,6.38148 21.6574,4.81556 20.5771,3.73531 19.1127,2.27084 16.7556,2.27084 12.0416,2.27084 c -4.71402,0 -7.07104,0 -8.5355,1.46447 z M 2.04163,12.2708 c 0,-0.6234 0,-1.2056 0.00339,-1.75 h 6.24661 v 10.75 0.9563 C 5.95125,22.1299 4.51631,21.8166 3.5061,20.8063 2.04163,19.3419 2.04163,16.9848 2.04163,12.2708 Z m 4,-4.99996 c 0.55228,0 1,-0.44772 1,-1 0,-0.55228 -0.44772,-1 -1,-1 -0.55228,0 -1,0.44772 -1,1 0,0.55228 0.44772,1 1,1 z m 3.99997,-1 c 0,0.55228 -0.44769,1 -0.99997,1 -0.55228,0 -1,-0.44772 -1,-1 0,-0.55228 0.44772,-1 1,-1 0.55228,0 0.99997,0.44772 0.99997,1 z m 2,1 c 0.5523,0 1,-0.44772 1,-1 0,-0.55228 -0.4477,-1 -1,-1 -0.5523,0 -1,0.44772 -1,1 0,0.55228 0.4477,1 1,1 z"
       fill="#2d2d2d"
       id="path1" />
    <path
       d="m 22.0416,12.2708 c 0,4.714 0,7.0711 -1.4645,8.5355 -1.4644,1.4645 -3.8215,1.4645 -8.5355,1.4645 -0.8185,0 -1.5659,0 -2.24997,-0.0077 v -0.9923 -10.75 H 22.0382 c 0.0034,0.5444 0.0034,1.1266 0.0034,1.75 z"
       fill="#2d2d2d"
       id="path2" />
  </g>
</svg>
